<?xml version="1.0" encoding="utf-8"?>
<!-- Generator: Adobe Illustrator 18.1.0, SVG Export Plug-In . SVG Version: 6.00 Build 0)  -->
<!DOCTYPE svg PUBLIC "-//W3C//DTD SVG 1.1//EN" "http://www.w3.org/Graphics/SVG/1.1/DTD/svg11.dtd">
<svg version="1.1" id="Layer_1" xmlns="http://www.w3.org/2000/svg" xmlns:xlink="http://www.w3.org/1999/xlink" x="0px" y="0px"
	 viewBox="0 0 8 8" enable-background="new 0 0 8 8" xml:space="preserve">
<g>
	<rect x="162" y="13.7" opacity="0" fill="#0B080D" width="24" height="24"/>
	<path fill="#0B080D" d="M181.3,17c-0.4-0.4-1-0.4-1.4,0l0,0l-1.7,1.7c-0.4-1.9-2-3.3-3.9-3.3c-1.1,0-2.1,0.5-2.8,1.2c0,0,0,0,0,0
		c-0.2,0.2-0.3,0.4-0.5,0.6c-0.1,0.1-0.2,0.3-0.2,0.4c0,0.1-0.1,0.2-0.1,0.2c-0.2,0.5-0.3,1-0.3,1.6v6c0,0.4,0.1,0.7,0.2,1l-0.8,0.8
		c-0.2-0.6-0.4-1.2-0.4-1.8h0c0-0.6-0.4-1-1-1c-0.6,0-1,0.4-1,1c0,0,0,0,0,0c0,1.2,0.3,2.3,0.8,3.3l-2.3,2.3l0,0
		c-0.3,0.4-0.3,1,0,1.4c0.4,0.4,1,0.4,1.4,0l0,0l0,0c0,0,0,0,0,0s0,0,0,0l2.1-2.1l0,0l1.4-1.4l0,0l1.4-1.4l0,0l5.1-5.1v0l4-4
		c0,0,0,0,0,0C181.7,18,181.7,17.4,181.3,17z"/>
	<path fill="#0B080D" d="M178.3,25.4v-0.2v-1l-1.6,1.6v0l-3.5,3.5c0.3,0.1,0.7,0.2,1,0.2C176.5,29.4,178.3,27.6,178.3,25.4z"/>
	<path fill="#0B080D" d="M181.3,25.4L181.3,25.4c0-0.6-0.4-1-1-1c-0.6,0-1,0.4-1,1l0,0c0,2.8-2.2,5-5,5c-0.6,0-1.3-0.1-1.8-0.4
		l-1.5,1.5c0.7,0.4,1.2,1,2.1,1.1v1h-2c-0.6,0-1,0.4-1,1c0,0.6,0.4,1,1,1h6c0.6,0,1-0.4,1-1c0-0.6-0.4-1-1-1h-2v-1
		C178.4,32.2,181.3,28.9,181.3,25.4z"/>
</g>
<g>
	<rect x="164.7" y="75" opacity="0" fill="#0B080D" width="24" height="24"/>
	<g>
		<path d="M179.7,93h-10c-1.1,0-2-0.9-2-2v-8c0-1.1,0.9-2,2-2h10c1.1,0,2,0.9,2,2l0,8C181.7,92.1,180.8,93,179.7,93z"/>
	</g>
	<path d="M185.1,82l-2.5,2v6l2.5,2c0.8,0,1.5-1.3,1.5-2v-6C186.7,83.3,185.9,82,185.1,82z"/>
</g>
<g>
	<rect x="118.3" y="14" opacity="0" fill="#0B080D" width="24" height="24"/>
	<path d="M127.8,17.8v1.8l0.9,7c0.1,0.8,0.8,1.5,1.6,1.5h0c0.8,0,1.6-0.6,1.6-1.5l0.9-7v-1.8c0-1.1-0.9-2-2-2h-1
		C128.7,15.8,127.8,16.6,127.8,17.8z"/>
	<circle cx="130.3" cy="32" r="2"/>
</g>
<g>
	<rect x="-165" y="14" opacity="0" fill="#0B080D" width="24" height="24"/>
	<path fill="#0B080D" d="M-161.1,18.7c0,0.8,0.2,5.2,5.3,10.3s9.5,5.2,10.3,5.3c0.3,0,0.4,0,0.5-0.2c0.5-0.9,1.9-3.5,1.9-3.5
		c0-0.2-0.1-0.4-0.3-0.5l-3.9-2.7c-0.2-0.1-0.4-0.1-0.5,0c0,0-0.4,0.4-0.7,0.7c-0.7,0.7-2.4-0.4-4.2-2.2c-1.8-1.8-2.8-3.5-2.2-4.2
		c0.2-0.2,0.6-0.6,0.7-0.7c0.1-0.1,0.1-0.3,0-0.5l-2.7-3.9c-0.1-0.2-0.3-0.3-0.5-0.3c0,0-2.7,1.4-3.5,1.9
		C-161,18.3-161.1,18.4-161.1,18.7z"/>
</g>
<g>
	<rect x="-118" y="14" opacity="0" fill="#0B080D" width="24" height="24"/>
	<polygon points="-101,17 -103,19 -101,21 -106,21 -106,24 -101,24 -103,26 -101,28 -96.2,22.5 	"/>
	<path fill="#0B080D" d="M-117.7,21.8c0,0.9,0.2,5.4,5.5,10.7c5.3,5.3,9.8,5.4,10.7,5.5c0.3,0,0.4,0,0.5-0.2c0.5-0.9,2-3.7,2-3.7
		c0-0.2-0.1-0.4-0.3-0.6l-4.1-2.8c-0.2-0.1-0.4-0.1-0.5,0c0,0-0.4,0.4-0.7,0.7c-0.7,0.7-2.5-0.4-4.4-2.2c-1.9-1.9-2.9-3.7-2.2-4.4
		c0.2-0.2,0.6-0.6,0.7-0.7c0.1-0.1,0.1-0.3,0-0.5l-2.8-4.1c-0.1-0.2-0.4-0.3-0.6-0.3c0,0-2.8,1.5-3.7,2
		C-117.7,21.4-117.7,21.5-117.7,21.8z"/>
</g>
<g>
	<rect x="122" y="76" opacity="0" fill="#0B080D" width="24" height="24"/>
	<path fill="#0B080D" d="M130,96h-1c-1.1,0-2-0.9-2-2V82c0-1.1,0.9-2,2-2h1c1.1,0,2,0.9,2,2v12C132,95.1,131.1,96,130,96z"/>
	<path fill="#0B080D" d="M138,96h-1c-1.1,0-2-0.9-2-2V82c0-1.1,0.9-2,2-2h1c1.1,0,2,0.9,2,2v12C140,95.1,139.1,96,138,96z"/>
</g>
<rect x="74" y="76" opacity="0" fill="#0B080D" width="24" height="24"/>
<g>
	<rect x="-70" y="14" opacity="0" fill="#0B080D" width="24" height="24"/>
	<g>
		<rect x="-55" y="17" fill="#0B080D" width="3" height="9"/>
		<rect x="-58" y="20" fill="#0B080D" width="9" height="3"/>
	</g>
	<path fill="#0B080D" d="M-69.7,21.5c0,0.9,0.2,5.4,5.5,10.7c5.3,5.3,9.8,5.4,10.7,5.5c0.3,0,0.4,0,0.5-0.2c0.5-0.9,2-3.7,2-3.7
		c0-0.2-0.1-0.4-0.3-0.6l-4.1-2.8c-0.2-0.1-0.4-0.1-0.5,0c0,0-0.4,0.4-0.7,0.7c-0.7,0.7-2.5-0.4-4.4-2.2c-1.9-1.9-2.9-3.7-2.2-4.4
		c0.2-0.2,0.6-0.6,0.7-0.7c0.1-0.1,0.1-0.3,0-0.5l-2.8-4.1c-0.1-0.2-0.4-0.3-0.6-0.3c0,0-2.8,1.5-3.7,2
		C-69.7,21.1-69.7,21.2-69.7,21.5z"/>
</g>
<g>
	<rect x="75" y="14" opacity="0" fill="#0B080D" width="24" height="24"/>
	<rect x="81.7" y="24.4" transform="matrix(0.7071 -0.7071 0.7071 0.7071 4.5384 67.76)" fill="#0B080D" width="4.7" height="8"/>
	
		<rect x="82.5" y="25" transform="matrix(0.7071 -0.7071 0.7071 0.7071 7.1116 71.4472)" fill="#0B080D" width="14.6" height="4.3"/>
</g>
<g>
	<rect x="210" y="13.7" opacity="0" fill="#0B080D" width="24" height="24"/>
	<path fill="#231F20" d="M222.6,18.4c2.5,0,4.5,2,4.5,4.5s-2,4.5-4.5,4.5s-4.5-2-4.5-4.5S220.1,18.4,222.6,18.4 M222.6,16.4
		c-3.6,0-6.5,2.9-6.5,6.5s2.9,6.5,6.5,6.5c3.6,0,6.5-2.9,6.5-6.5S226.2,16.4,222.6,16.4L222.6,16.4z"/>
	<path fill="#231F20" d="M225.9,28.1c-0.7-0.3-2.1-0.7-3.3-0.7c-1.2,0-2.4,0.3-3.3,0.7c-1.2,0.5-2.4,1.9-3.4,3.2
		c-0.9,1.3,0.1,3.1,1.8,3.1h9.8c1.7,0,2.7-1.8,1.8-3.1C228.2,30,227,28.6,225.9,28.1z"/>
</g>
<g>
	<rect x="-117.1" y="76" opacity="0" width="24" height="24"/>
	<rect x="-117.1" y="76" opacity="0" width="24" height="24"/>
	<path d="M-95.2,95c0.6,0.6,0.7,1.4,0.2,1.9l-1.1,1.1c-0.5,0.5-1.3,0.4-1.9-0.2l-3.7-3.7c-0.6-0.6-0.7-1.4-0.2-1.9l1.1-1.1
		c0.5-0.5,1.3-0.4,1.9,0.2L-95.2,95z"/>
	<path d="M-108.1,77c-4.4,0-8,3.6-8,8s3.6,8,8,8s8-3.6,8-8S-103.7,77-108.1,77z M-108,90c-2.8,0-5-2.2-5-5s2.2-5,5-5s5,2.2,5,5
		S-105.2,90-108,90z"/>
</g>
<g>
	<rect x="-16" y="20" opacity="0" fill="#0B080D" width="12" height="12"/>
	<rect x="-11.7" y="20.7" transform="matrix(-0.7071 -0.7071 0.7071 -0.7071 -35.87 37.4853)" width="3" height="11"/>
	<polygon points="-13,20 -13,23 -7,23 -7,29 -4,29 -4,23 -4,20 	"/>
</g>
<g>
	<rect x="31" y="22" opacity="0" fill="#0B080D" width="11" height="11"/>
	<rect x="31" y="23" width="3" height="10"/>
	<rect x="35.7" y="21.3" transform="matrix(0.7071 0.7071 -0.7071 0.7071 29.8579 -18.4264)" width="3" height="11"/>
	<rect x="31" y="30" width="10" height="3"/>
</g>
<g>
	<rect x="0" opacity="0" fill="#0B080D" width="8" height="8"/>
	<rect x="2.6" y="0.3" transform="matrix(-0.7071 -0.7071 0.7071 -0.7071 3.0167 10.0641)" width="2" height="8.2"/>
	<polygon points="1,0 1,2 6,2 6,7 8,7 8,2 8,0 	"/>
</g>
<g>
	<rect x="28" y="-0.9" opacity="0" fill="#0B080D" width="7.9" height="7.9"/>
	<rect x="28" width="2" height="7"/>
	<rect x="31.4" y="-1.4" transform="matrix(0.7071 0.7071 -0.7071 0.7071 11.3119 -22.1882)" width="2.2" height="7.9"/>
	<rect x="28" y="5" width="7" height="2"/>
</g>
<g>
	<rect x="-71.3" y="76" opacity="0" width="24" height="24"/>
	<g>
		<rect x="-54.3" y="84" width="3" height="9"/>
		<rect x="-57.3" y="87" width="9" height="3"/>
	</g>
	<path d="M-63.8,80c-2.5,0-4.5,2-4.5,4.5s2,4.5,4.5,4.5c2.5,0,4.5-2,4.5-4.5S-61.3,80-63.8,80L-63.8,80z"/>
	<path d="M-60.8,89.8c-0.7-0.3-1.9-0.7-3.1-0.7c-1.1,0-2.3,0.3-3.1,0.7c-1.1,0.5-2.2,1.8-3.1,3.1c-0.9,1.3,0.1,3,1.6,3h9.1
		c1.6,0,2.5-1.7,1.6-3C-58.6,91.6-59.7,90.3-60.8,89.8z"/>
</g>
<g>
	<rect x="-22" y="76" opacity="0" fill="#0B080D" width="24" height="24"/>
	<path d="M0,79h-19v5h2v-3h15v11h-15v-3h-2v5h7v2h-2v2h9v-2h-2v-2h7V79z"/>
	<g>
		<polygon fill="#0B080D" points="-10,86.7 -15,83 -15,85 -20,85 -20,88 -15,88 -15,90.5 		"/>
	</g>
</g>
<g>
	<rect x="-202.3" y="13.7" opacity="0" fill="#0B080D" width="24" height="24"/>
	<path fill="#0B080D" d="M-179.4,25.2c-0.6-0.6-3.8-3.6-11-3.6c-7.2,0-10.4,3-11,3.6c-0.2,0.2-0.3,0.3-0.2,0.5
		c0.3,1,1.1,3.9,1.1,3.9c0.1,0.2,0.4,0.3,0.6,0.2l4.7-0.9c0.2-0.1,0.3-0.2,0.3-0.4c0-0.1,0-0.6,0-0.9c0-1,1.9-1.4,4.5-1.4
		c2.5,0,4.5,0.5,4.5,1.4c0,0.3,0,0.9,0,0.9c0,0.2,0.1,0.3,0.3,0.4l4.7,0.9c0.2,0.1,0.5,0,0.6-0.2c0,0,0.9-2.9,1.1-3.9
		C-179.2,25.5-179.2,25.4-179.4,25.2z"/>
</g>
<g>
	<rect x="26" y="76" opacity="0" width="24" height="24"/>
	<path fill="#0B080D" d="M31.5,89c-3,0-5.5,2.5-5.5,5.5s2.5,5.5,5.5,5.5s5.5-2.5,5.5-5.5S34.5,89,31.5,89z M31.5,97
		c-1.4,0-2.5-1.1-2.5-2.5s1.1-2.5,2.5-2.5s2.5,1.1,2.5,2.5S32.9,97,31.5,97z"/>
	<path fill="#0B080D" d="M44.5,89c-3,0-5.5,2.5-5.5,5.5s2.5,5.5,5.5,5.5s5.5-2.5,5.5-5.5S47.5,89,44.5,89z M44.5,97
		c-1.4,0-2.5-1.1-2.5-2.5s1.1-2.5,2.5-2.5s2.5,1.1,2.5,2.5S45.9,97,44.5,97z"/>
	<rect x="31" y="97" fill="#0B080D" width="13" height="3"/>
</g>
<rect x="-165" y="76" opacity="0" width="24" height="24"/>
<rect x="-165" y="76" opacity="0" width="24" height="24"/>
<path d="M-143,90v-4h-2.2c-0.2-0.7-0.5-1.4-0.9-2.1l1.5-1.5l-2.8-2.8l-1.5,1.5c-0.6-0.4-1.3-0.7-2.1-0.8V78h-4v2.3
	c-0.7,0.2-1.4,0.5-2.1,0.8l-1.5-1.5l-2.8,2.8l1.5,1.5c-0.4,0.6-0.7,1.3-0.8,2.1h-2.2v4h2.3c0.2,0.7,0.5,1.4,0.9,2l-1.5,1.5l2.8,2.8
	l1.5-1.5c0.6,0.4,1.3,0.7,2.1,0.9V98h4v-2.3c0.7-0.2,1.4-0.5,2-0.9l1.6,1.6l2.8-2.8l-1.6-1.6c0.4-0.6,0.7-1.3,0.9-2H-143z
	 M-153,91.9c-2.2,0-4-1.9-4-4c0-2.2,1.8-3.9,4-3.9c2.2,0,4,1.7,4,3.9C-149,90.1-150.8,91.9-153,91.9z"/>
<g>
	<rect x="74" y="76" opacity="0" fill="#0B080D" width="24" height="24"/>
	<path fill="#0B080D" d="M90.7,89.8l-7.2,4.6c-1.5,1-3.5-0.1-3.5-1.9v-9.2c0-1.8,2-2.9,3.5-1.9l7.2,4.6
		C92.1,86.9,92.1,88.9,90.7,89.8z"/>
</g>
<g>
	<rect x="74" y="137" opacity="0" fill="#0B080D" width="24" height="24"/>
	<path fill="#0B080D" d="M90,155h-8c-1.1,0-2-0.9-2-2v-8c0-1.1,0.9-2,2-2h8c1.1,0,2,0.9,2,2v8C92,154.1,91.1,155,90,155z"/>
</g>
<g>
	<rect x="210.6" y="75" opacity="0" fill="#0B080D" width="24" height="24"/>
	<circle cx="217" cy="80" r="2"/>
	<circle cx="223" cy="80" r="2"/>
	<circle cx="229" cy="80" r="2"/>
	<circle cx="229" cy="85" r="2"/>
	<circle cx="229" cy="90" r="2"/>
	<circle cx="223" cy="90" r="2"/>
	<circle cx="223" cy="85" r="2"/>
	<circle cx="217" cy="85" r="2"/>
	<circle cx="217" cy="90" r="2"/>
	<circle cx="223" cy="95" r="2"/>
</g>
<g>
	<rect x="-203" y="75" opacity="0" fill="#0B080D" width="24" height="24"/>
	<circle cx="-191" cy="81" r="2"/>
	<circle cx="-191" cy="93" r="2"/>
	<circle cx="-191" cy="87" r="2"/>
</g>
<g>
	<rect x="28" y="137" opacity="0" fill="#0B080D" width="24" height="24"/>
	<g>
		<path fill="#0B080D" d="M38.1,152.4l-2.8-2.8c-0.4-0.4-0.4-1,0-1.4l0,0c0.4-0.4,1-0.4,1.4,0l2.8,2.8c0.4,0.4,0.4,1,0,1.4l0,0
			C39.1,152.8,38.5,152.8,38.1,152.4z"/>
		<path fill="#0B080D" d="M38.1,152.4L38.1,152.4c-0.4-0.4-0.4-1,0-1.4l5.7-5.7c0.4-0.4,1-0.4,1.4,0h0c0.4,0.4,0.4,1,0,1.4l-5.7,5.7
			C39.1,152.8,38.5,152.8,38.1,152.4z"/>
	</g>
</g>
<g>
	<rect x="-21" y="137" opacity="0" fill="#0B080D" width="24" height="24"/>
	<path fill="#0B080D" d="M-13.6,153.6L-13.6,153.6c-0.4-0.4-0.4-1,0-1.4l7.8-7.8c0.4-0.4,1-0.4,1.4,0l0,0c0.4,0.4,0.4,1,0,1.4
		l-7.8,7.8C-12.6,154-13.2,154-13.6,153.6z"/>
	<path fill="#0B080D" d="M-13.6,144.4L-13.6,144.4c0.4-0.4,1-0.4,1.4,0l7.8,7.8c0.4,0.4,0.4,1,0,1.4l0,0c-0.4,0.4-1,0.4-1.4,0
		l-7.8-7.8C-14,145.4-14,144.8-13.6,144.4z"/>
</g>
</svg>
