<?xml version="1.0" encoding="utf-8"?>
<!-- Generator: Adobe Illustrator 18.1.1, SVG Export Plug-In . SVG Version: 6.00 Build 0)  -->
<svg version="1.1" id="Layer_1" xmlns="http://www.w3.org/2000/svg" xmlns:xlink="http://www.w3.org/1999/xlink" x="0px" y="0px"
	 viewBox="0 113 640 601" enable-background="new 0 113 640 601" xml:space="preserve">
<path id="path-1" fill="#FFFFFF" d="M488.7,428.9l-55.6-55.6l55.6-55.6H346.8v-83.5h141.9l-55.6-55.6l55.6-55.6l136.3,153L488.7,428.9z
	 M385.8,523.5c5.6-5.6,16.7-16.7,19.5-19.5c2.8-2.8,8.3-2.8,13.9,0l114.1,77.9c5.6,2.8,8.3,11.1,8.3,16.7c0,0-41.7,77.9-55.6,102.9
	c-2.8,5.6-5.6,5.6-13.9,5.6c-25,0-153-5.6-303.2-153S13,281.5,13,256.4c0-8.3,0-11.1,5.6-13.9c25-13.9,105.7-55.6,105.7-55.6
	c5.6,0,13.9,2.8,16.7,8.3l77.9,114.1c2.8,5.6,2.8,11.1,0,13.9c0,0-11.1,11.1-19.5,19.5c-19.5,19.5,11.1,69.5,64,122.4
	C316.2,515.1,366.3,543,385.8,523.5z"/>
</svg>
