<?xml version="1.0" encoding="utf-8"?>
<!-- Generator: Adobe Illustrator 18.1.0, SVG Export Plug-In . SVG Version: 6.00 Build 0)  -->
<!DOCTYPE svg PUBLIC "-//W3C//DTD SVG 1.1//EN" "http://www.w3.org/Graphics/SVG/1.1/DTD/svg11.dtd">
<svg version="1.1" id="Layer_1" xmlns="http://www.w3.org/2000/svg" xmlns:xlink="http://www.w3.org/1999/xlink" x="0px" y="0px"
	 viewBox="0 0 24 24" enable-background="new 0 0 24 24" xml:space="preserve">
<g>
	<rect x="40" y="-62.3" opacity="0" fill="#0B080D" width="24" height="24"/>
	<path fill="#0B080D" d="M59.3-59c-0.4-0.4-1-0.4-1.4,0l0,0l-1.7,1.7c-0.4-1.9-2-3.3-3.9-3.3c-1.1,0-2.1,0.5-2.8,1.2c0,0,0,0,0,0
		c-0.2,0.2-0.3,0.4-0.5,0.6c-0.1,0.1-0.2,0.3-0.2,0.4c0,0.1-0.1,0.2-0.1,0.2c-0.2,0.5-0.3,1-0.3,1.6v6c0,0.4,0.1,0.7,0.2,1l-0.8,0.8
		c-0.2-0.6-0.4-1.2-0.4-1.8h0c0-0.6-0.4-1-1-1c-0.6,0-1,0.4-1,1c0,0,0,0,0,0c0,1.2,0.3,2.3,0.8,3.3l-2.3,2.3l0,0
		c-0.3,0.4-0.3,1,0,1.4c0.4,0.4,1,0.4,1.4,0l0,0l0,0c0,0,0,0,0,0s0,0,0,0l2.1-2.1l0,0l1.4-1.4l0,0l1.4-1.4l0,0l5.1-5.1v0l4-4
		c0,0,0,0,0,0C59.7-58,59.7-58.6,59.3-59z"/>
	<path fill="#0B080D" d="M56.3-50.6v-0.2v-1l-1.6,1.6v0l-3.5,3.5c0.3,0.1,0.7,0.2,1,0.2C54.5-46.6,56.3-48.4,56.3-50.6z"/>
	<path fill="#0B080D" d="M59.3-50.6L59.3-50.6c0-0.6-0.4-1-1-1c-0.6,0-1,0.4-1,1l0,0c0,2.8-2.2,5-5,5c-0.6,0-1.3-0.1-1.8-0.4
		l-1.5,1.5c0.7,0.4,1.2,1,2.1,1.1v1h-2c-0.6,0-1,0.4-1,1c0,0.6,0.4,1,1,1h6c0.6,0,1-0.4,1-1c0-0.6-0.4-1-1-1h-2v-1
		C56.4-43.8,59.3-47.1,59.3-50.6z"/>
</g>
<g>
	<rect x="42.7" y="-1" opacity="0" fill="#0B080D" width="24" height="24"/>
	<g>
		<path d="M57.7,17h-10c-1.1,0-2-0.9-2-2V7c0-1.1,0.9-2,2-2h10c1.1,0,2,0.9,2,2l0,8C59.7,16.1,58.8,17,57.7,17z"/>
	</g>
	<path d="M63.1,6l-2.5,2v6l2.5,2c0.8,0,1.5-1.3,1.5-2V8C64.7,7.3,63.9,6,63.1,6z"/>
</g>
<g>
	<rect x="-3.7" y="-62" opacity="0" fill="#0B080D" width="24" height="24"/>
	<path d="M5.8-58.2v1.8l0.9,7C6.8-48.6,7.5-48,8.3-48h0c0.8,0,1.6-0.6,1.6-1.5l0.9-7v-1.8c0-1.1-0.9-2-2-2h-1
		C6.7-60.2,5.8-59.4,5.8-58.2z"/>
	<circle cx="8.3" cy="-44" r="2"/>
</g>
<g>
	<rect x="-287" y="-62" opacity="0" fill="#0B080D" width="24" height="24"/>
	<path fill="#0B080D" d="M-283.1-57.3c0,0.8,0.2,5.2,5.3,10.3s9.5,5.2,10.3,5.3c0.3,0,0.4,0,0.5-0.2c0.5-0.9,1.9-3.5,1.9-3.5
		c0-0.2-0.1-0.4-0.3-0.5l-3.9-2.7c-0.2-0.1-0.4-0.1-0.5,0c0,0-0.4,0.4-0.7,0.7c-0.7,0.7-2.4-0.4-4.2-2.2c-1.8-1.8-2.8-3.5-2.2-4.2
		c0.2-0.2,0.6-0.6,0.7-0.7c0.1-0.1,0.1-0.3,0-0.5l-2.7-3.9c-0.1-0.2-0.3-0.3-0.5-0.3c0,0-2.7,1.4-3.5,1.9
		C-283-57.7-283.1-57.6-283.1-57.3z"/>
</g>
<g>
	<rect x="-240" y="-62" opacity="0" fill="#0B080D" width="24" height="24"/>
	<polygon points="-223,-59 -225,-57 -223,-55 -228,-55 -228,-52 -223,-52 -225,-50 -223,-48 -218.2,-53.5 	"/>
	<path fill="#0B080D" d="M-239.7-54.2c0,0.9,0.2,5.4,5.5,10.7c5.3,5.3,9.8,5.4,10.7,5.5c0.3,0,0.4,0,0.5-0.2c0.5-0.9,2-3.7,2-3.7
		c0-0.2-0.1-0.4-0.3-0.6l-4.1-2.8c-0.2-0.1-0.4-0.1-0.5,0c0,0-0.4,0.4-0.7,0.7c-0.7,0.7-2.5-0.4-4.4-2.2c-1.9-1.9-2.9-3.7-2.2-4.4
		c0.2-0.2,0.6-0.6,0.7-0.7c0.1-0.1,0.1-0.3,0-0.5l-2.8-4.1c-0.1-0.2-0.4-0.3-0.6-0.3c0,0-2.8,1.5-3.7,2
		C-239.7-54.6-239.7-54.5-239.7-54.2z"/>
</g>
<g>
	<rect x="0" opacity="0" fill="#0B080D" width="24" height="24"/>
	<path fill="#0B080D" d="M8,20H7c-1.1,0-2-0.9-2-2V6c0-1.1,0.9-2,2-2h1c1.1,0,2,0.9,2,2v12C10,19.1,9.1,20,8,20z"/>
	<path fill="#0B080D" d="M16,20h-1c-1.1,0-2-0.9-2-2V6c0-1.1,0.9-2,2-2h1c1.1,0,2,0.9,2,2v12C18,19.1,17.1,20,16,20z"/>
</g>
<rect x="-48" opacity="0" fill="#0B080D" width="24" height="24"/>
<g>
	<rect x="-192" y="-62" opacity="0" fill="#0B080D" width="24" height="24"/>
	<g>
		<rect x="-177" y="-59" fill="#0B080D" width="3" height="9"/>
		<rect x="-180" y="-56" fill="#0B080D" width="9" height="3"/>
	</g>
	<path fill="#0B080D" d="M-191.7-54.5c0,0.9,0.2,5.4,5.5,10.7c5.3,5.3,9.8,5.4,10.7,5.5c0.3,0,0.4,0,0.5-0.2c0.5-0.9,2-3.7,2-3.7
		c0-0.2-0.1-0.4-0.3-0.6l-4.1-2.8c-0.2-0.1-0.4-0.1-0.5,0c0,0-0.4,0.4-0.7,0.7c-0.7,0.7-2.5-0.4-4.4-2.2c-1.9-1.9-2.9-3.7-2.2-4.4
		c0.2-0.2,0.6-0.6,0.7-0.7c0.1-0.1,0.1-0.3,0-0.5l-2.8-4.1c-0.1-0.2-0.4-0.3-0.6-0.3c0,0-2.8,1.5-3.7,2
		C-191.7-54.9-191.7-54.8-191.7-54.5z"/>
</g>
<g>
	<rect x="-47" y="-62" opacity="0" fill="#0B080D" width="24" height="24"/>
	
		<rect x="-40.3" y="-51.6" transform="matrix(0.7071 -0.7071 0.7071 0.7071 22.5456 -40.7669)" fill="#0B080D" width="4.7" height="8"/>
	
		<rect x="-39.5" y="-51" transform="matrix(0.7071 -0.7071 0.7071 0.7071 25.1188 -37.0797)" fill="#0B080D" width="14.6" height="4.3"/>
</g>
<g>
	<rect x="88" y="-62.3" opacity="0" fill="#0B080D" width="24" height="24"/>
	<path fill="#231F20" d="M100.6-57.6c2.5,0,4.5,2,4.5,4.5s-2,4.5-4.5,4.5s-4.5-2-4.5-4.5S98.1-57.6,100.6-57.6 M100.6-59.6
		c-3.6,0-6.5,2.9-6.5,6.5s2.9,6.5,6.5,6.5c3.6,0,6.5-2.9,6.5-6.5S104.2-59.6,100.6-59.6L100.6-59.6z"/>
	<path fill="#231F20" d="M103.9-47.9c-0.7-0.3-2.1-0.7-3.3-0.7c-1.2,0-2.4,0.3-3.3,0.7c-1.2,0.5-2.4,1.9-3.4,3.2
		c-0.9,1.3,0.1,3.1,1.8,3.1h9.8c1.7,0,2.7-1.8,1.8-3.1C106.2-46,105-47.4,103.9-47.9z"/>
</g>
<g>
	<rect x="-239.1" opacity="0" width="24" height="24"/>
	<rect x="-239.1" opacity="0" width="24" height="24"/>
	<path d="M-217.2,19c0.6,0.6,0.7,1.4,0.2,1.9l-1.1,1.1c-0.5,0.5-1.3,0.4-1.9-0.2l-3.7-3.7c-0.6-0.6-0.7-1.4-0.2-1.9l1.1-1.1
		c0.5-0.5,1.3-0.4,1.9,0.2L-217.2,19z"/>
	<path d="M-230.1,1c-4.4,0-8,3.6-8,8s3.6,8,8,8s8-3.6,8-8S-225.7,1-230.1,1z M-230,14c-2.8,0-5-2.2-5-5s2.2-5,5-5s5,2.2,5,5
		S-227.2,14-230,14z"/>
</g>
<g>
	<rect x="-144" y="-62" opacity="0" fill="#0B080D" width="24" height="24"/>
	<rect x="-133.7" y="-55.3" transform="matrix(-0.7071 -0.7071 0.7071 -0.7071 -190.397 -178.5219)" width="3" height="11"/>
	<polygon points="-135,-56 -135,-53 -129,-53 -129,-47 -126,-47 -126,-53 -126,-56 	"/>
</g>
<g>
	<rect x="-96" y="-62" opacity="0" fill="#0B080D" width="24" height="24"/>
	<rect x="-91" y="-53" width="3" height="10"/>
	<rect x="-86.3" y="-54.7" transform="matrix(0.7071 0.7071 -0.7071 0.7071 -59.6152 45.5807)" width="3" height="11"/>
	<rect x="-91" y="-46" width="10" height="3"/>
</g>
<g>
	<rect x="-193.3" opacity="0" width="24" height="24"/>
	<g>
		<rect x="-176.3" y="8" width="3" height="9"/>
		<rect x="-179.3" y="11" width="9" height="3"/>
	</g>
	<path d="M-185.8,4c-2.5,0-4.5,2-4.5,4.5s2,4.5,4.5,4.5c2.5,0,4.5-2,4.5-4.5S-183.3,4-185.8,4L-185.8,4z"/>
	<path d="M-182.8,13.8c-0.7-0.3-1.9-0.7-3.1-0.7c-1.1,0-2.3,0.3-3.1,0.7c-1.1,0.5-2.2,1.8-3.1,3.1c-0.9,1.3,0.1,3,1.6,3h9.1
		c1.6,0,2.5-1.7,1.6-3C-180.6,15.6-181.7,14.3-182.8,13.8z"/>
</g>
<rect x="-96" opacity="0" width="24" height="24"/>
<g>
	<rect x="-144" y="0.3" opacity="0" fill="#0B080D" width="24" height="24"/>
	<path d="M-122,3.3h-19v5h2v-3h15v11h-15v-3h-2v5h7v2h-2v2h9v-2h-2v-2h7V3.3z"/>
	<g>
		<polygon fill="#0B080D" points="-132,11 -137,7.3 -137,9.3 -142,9.3 -142,12.3 -137,12.3 -137,14.8 		"/>
	</g>
</g>
<g>
	<rect x="-324.3" y="-62.3" opacity="0" fill="#0B080D" width="24" height="24"/>
	<path fill="#0B080D" d="M-301.4-50.8c-0.6-0.6-3.8-3.6-11-3.6c-7.2,0-10.4,3-11,3.6c-0.2,0.2-0.3,0.3-0.2,0.5
		c0.3,1,1.1,3.9,1.1,3.9c0.1,0.2,0.4,0.3,0.6,0.2l4.7-0.9c0.2-0.1,0.3-0.2,0.3-0.4c0-0.1,0-0.6,0-0.9c0-1,1.9-1.4,4.5-1.4
		c2.5,0,4.5,0.5,4.5,1.4c0,0.3,0,0.9,0,0.9c0,0.2,0.1,0.3,0.3,0.4l4.7,0.9c0.2,0.1,0.5,0,0.6-0.2c0,0,0.9-2.9,1.1-3.9
		C-301.2-50.5-301.2-50.6-301.4-50.8z"/>
</g>
<path fill="#0B080D" d="M-90.5,13c-3,0-5.5,2.5-5.5,5.5s2.5,5.5,5.5,5.5s5.5-2.5,5.5-5.5S-87.5,13-90.5,13z M-90.5,21
	c-1.4,0-2.5-1.1-2.5-2.5s1.1-2.5,2.5-2.5s2.5,1.1,2.5,2.5S-89.1,21-90.5,21z"/>
<path fill="#0B080D" d="M-77.5,13c-3,0-5.5,2.5-5.5,5.5s2.5,5.5,5.5,5.5s5.5-2.5,5.5-5.5S-74.5,13-77.5,13z M-77.5,21
	c-1.4,0-2.5-1.1-2.5-2.5s1.1-2.5,2.5-2.5s2.5,1.1,2.5,2.5S-76.1,21-77.5,21z"/>
<rect x="-91" y="21" fill="#0B080D" width="13" height="3"/>
<rect x="-287" opacity="0" width="24" height="24"/>
<rect x="-287" opacity="0" width="24" height="24"/>
<path d="M-265,14v-4h-2.2c-0.2-0.7-0.5-1.4-0.9-2.1l1.5-1.5l-2.8-2.8l-1.5,1.5c-0.6-0.4-1.3-0.7-2.1-0.8V2h-4v2.3
	c-0.7,0.2-1.4,0.5-2.1,0.8l-1.5-1.5l-2.8,2.8l1.5,1.5c-0.4,0.6-0.7,1.3-0.8,2.1h-2.2v4h2.3c0.2,0.7,0.5,1.4,0.9,2l-1.5,1.5l2.8,2.8
	l1.5-1.5c0.6,0.4,1.3,0.7,2.1,0.9V22h4v-2.3c0.7-0.2,1.4-0.5,2-0.9l1.6,1.6l2.8-2.8l-1.6-1.6c0.4-0.6,0.7-1.3,0.9-2H-265z
	 M-275,15.9c-2.2,0-4-1.9-4-4c0-2.2,1.8-3.9,4-3.9c2.2,0,4,1.7,4,3.9C-271,14.1-272.8,15.9-275,15.9z"/>
<g>
	<path opacity="0" fill="#0B080D" d="M-26,24h-20c-1.1,0-2-0.9-2-2V2c0-1.1,0.9-2,2-2h20c1.1,0,2,0.9,2,2v20C-24,23.1-24.9,24-26,24
		z"/>
	<path fill="#0B080D" d="M-31.3,13.8l-7.2,4.6c-1.5,1-3.5-0.1-3.5-1.9V7.3c0-1.8,2-2.9,3.5-1.9l7.2,4.6
		C-29.9,10.9-29.9,12.9-31.3,13.8z"/>
</g>
<g>
	<rect x="88.6" y="-1" opacity="0" fill="#0B080D" width="24" height="24"/>
	<circle cx="95" cy="4" r="2"/>
	<circle cx="101" cy="4" r="2"/>
	<circle cx="107" cy="4" r="2"/>
	<circle cx="107" cy="9" r="2"/>
	<circle cx="107" cy="14" r="2"/>
	<circle cx="101" cy="14" r="2"/>
	<circle cx="101" cy="9" r="2"/>
	<circle cx="95" cy="9" r="2"/>
	<circle cx="95" cy="14" r="2"/>
	<circle cx="101" cy="19" r="2"/>
</g>
</svg>
