<?xml version="1.0" encoding="utf-8"?>
<!-- Generator: Adobe Illustrator 18.1.0, SVG Export Plug-In . SVG Version: 6.00 Build 0)  -->
<!DOCTYPE svg PUBLIC "-//W3C//DTD SVG 1.1//EN" "http://www.w3.org/Graphics/SVG/1.1/DTD/svg11.dtd">
<svg version="1.1" id="Layer_1" xmlns="http://www.w3.org/2000/svg" xmlns:xlink="http://www.w3.org/1999/xlink" x="0px" y="0px"
	 viewBox="0 0 24 24" enable-background="new 0 0 24 24" xml:space="preserve">
<g>
	<rect x="-48.6" y="-61.3" opacity="0" fill="#0B080D" width="24" height="24"/>
	<path fill="#0B080D" d="M-29.2-58c-0.4-0.4-1-0.4-1.4,0l0,0l-1.7,1.7c-0.4-1.9-2-3.3-3.9-3.3c-1.1,0-2.1,0.5-2.8,1.2c0,0,0,0,0,0
		c-0.2,0.2-0.3,0.4-0.5,0.6c-0.1,0.1-0.2,0.3-0.2,0.4c0,0.1-0.1,0.2-0.1,0.2c-0.2,0.5-0.3,1-0.3,1.6v6c0,0.4,0.1,0.7,0.2,1l-0.8,0.8
		c-0.2-0.6-0.4-1.2-0.4-1.8h0c0-0.6-0.4-1-1-1c-0.6,0-1,0.4-1,1c0,0,0,0,0,0c0,1.2,0.3,2.3,0.8,3.3l-2.3,2.3l0,0
		c-0.3,0.4-0.3,1,0,1.4c0.4,0.4,1,0.4,1.4,0l0,0l0,0c0,0,0,0,0,0s0,0,0,0l2.1-2.1l0,0l1.4-1.4l0,0l1.4-1.4l0,0l5.1-5.1v0l4-4
		c0,0,0,0,0,0C-28.9-57-28.9-57.6-29.2-58z"/>
	<path fill="#0B080D" d="M-32.3-49.6v-0.2v-1l-1.6,1.6v0l-3.5,3.5c0.3,0.1,0.7,0.2,1,0.2C-34.1-45.6-32.3-47.4-32.3-49.6z"/>
	<path fill="#0B080D" d="M-29.3-49.6L-29.3-49.6c0-0.6-0.4-1-1-1c-0.6,0-1,0.4-1,1l0,0c0,2.8-2.2,5-5,5c-0.6,0-1.3-0.1-1.8-0.4
		l-1.5,1.5c0.7,0.4,1.2,1,2.1,1.1v1h-2c-0.6,0-1,0.4-1,1c0,0.6,0.4,1,1,1h6c0.6,0,1-0.4,1-1c0-0.6-0.4-1-1-1h-2v-1
		C-32.2-42.8-29.3-46.1-29.3-49.6z"/>
</g>
<g>
	<rect x="-45.9" opacity="0" fill="#0B080D" width="24" height="24"/>
	<g>
		<path d="M-30.9,18h-10c-1.1,0-2-0.9-2-2V8c0-1.1,0.9-2,2-2h10c1.1,0,2,0.9,2,2l0,8C-28.9,17.1-29.8,18-30.9,18z"/>
	</g>
	<path d="M-25.4,7l-2.5,2v6l2.5,2c0.8,0,1.5-1.3,1.5-2V9C-23.9,8.3-24.6,7-25.4,7z"/>
</g>
<g>
	<rect x="-92.2" y="-61" opacity="0" fill="#0B080D" width="24" height="24"/>
	<path d="M-82.7-57.2v1.8l0.9,7c0.1,0.8,0.8,1.5,1.6,1.5h0c0.8,0,1.6-0.6,1.6-1.5l0.9-7v-1.8c0-1.1-0.9-2-2-2h-1
		C-81.8-59.2-82.7-58.4-82.7-57.2z"/>
	<circle cx="-80.2" cy="-43" r="2"/>
</g>
<g>
	<rect x="-375.6" y="-61" opacity="0" fill="#0B080D" width="24" height="24"/>
	<path fill="#0B080D" d="M-371.6-56.3c0,0.8,0.2,5.2,5.3,10.3c5.1,5.1,9.5,5.2,10.3,5.3c0.3,0,0.4,0,0.5-0.2
		c0.5-0.9,1.9-3.5,1.9-3.5c0-0.2-0.1-0.4-0.3-0.5l-3.9-2.7c-0.2-0.1-0.4-0.1-0.5,0c0,0-0.4,0.4-0.7,0.7c-0.7,0.7-2.4-0.4-4.2-2.2
		c-1.8-1.8-2.8-3.5-2.2-4.2c0.2-0.2,0.6-0.6,0.7-0.7c0.1-0.1,0.1-0.3,0-0.5l-2.7-3.9c-0.1-0.2-0.3-0.3-0.5-0.3c0,0-2.7,1.4-3.5,1.9
		C-371.6-56.7-371.6-56.6-371.6-56.3z"/>
</g>
<g>
	<rect x="-328.6" y="-61" opacity="0" fill="#0B080D" width="24" height="24"/>
	<polygon points="-311.6,-58 -313.6,-56 -311.6,-54 -316.6,-54 -316.6,-51 -311.6,-51 -313.6,-49 -311.6,-47 -306.8,-52.5 	"/>
	<path fill="#0B080D" d="M-328.3-53.2c0,0.9,0.2,5.4,5.5,10.7s9.8,5.4,10.7,5.5c0.3,0,0.4,0,0.5-0.2c0.5-0.9,2-3.7,2-3.7
		c0-0.2-0.1-0.4-0.3-0.6l-4.1-2.8c-0.2-0.1-0.4-0.1-0.5,0c0,0-0.4,0.4-0.7,0.7c-0.7,0.7-2.5-0.4-4.4-2.2c-1.9-1.9-2.9-3.7-2.2-4.4
		c0.2-0.2,0.6-0.6,0.7-0.7c0.1-0.1,0.1-0.3,0-0.5l-2.8-4.1c-0.1-0.2-0.4-0.3-0.6-0.3c0,0-2.8,1.5-3.7,2
		C-328.2-53.6-328.3-53.5-328.3-53.2z"/>
</g>
<g>
	<rect x="-88.6" y="1" opacity="0" fill="#0B080D" width="24" height="24"/>
	<path fill="#0B080D" d="M-80.6,21h-1c-1.1,0-2-0.9-2-2V7c0-1.1,0.9-2,2-2h1c1.1,0,2,0.9,2,2v12C-78.6,20.1-79.5,21-80.6,21z"/>
	<path fill="#0B080D" d="M-72.6,21h-1c-1.1,0-2-0.9-2-2V7c0-1.1,0.9-2,2-2h1c1.1,0,2,0.9,2,2v12C-70.6,20.1-71.5,21-72.6,21z"/>
</g>
<rect x="-136.6" y="1" opacity="0" fill="#0B080D" width="24" height="24"/>
<g>
	<rect x="-280.6" y="-61" opacity="0" fill="#0B080D" width="24" height="24"/>
	<g>
		<rect x="-265.6" y="-58" fill="#0B080D" width="3" height="9"/>
		<rect x="-268.6" y="-55" fill="#0B080D" width="9" height="3"/>
	</g>
	<path fill="#0B080D" d="M-280.3-53.5c0,0.9,0.2,5.4,5.5,10.7s9.8,5.4,10.7,5.5c0.3,0,0.4,0,0.5-0.2c0.5-0.9,2-3.7,2-3.7
		c0-0.2-0.1-0.4-0.3-0.6l-4.1-2.8c-0.2-0.1-0.4-0.1-0.5,0c0,0-0.4,0.4-0.7,0.7c-0.7,0.7-2.5-0.4-4.4-2.2c-1.9-1.9-2.9-3.7-2.2-4.4
		c0.2-0.2,0.6-0.6,0.7-0.7c0.1-0.1,0.1-0.3,0-0.5l-2.8-4.1c-0.1-0.2-0.4-0.3-0.6-0.3c0,0-2.8,1.5-3.7,2
		C-280.2-53.9-280.3-53.8-280.3-53.5z"/>
</g>
<g>
	<rect x="-135.6" y="-61" opacity="0" fill="#0B080D" width="24" height="24"/>
	
		<rect x="-128.9" y="-50.6" transform="matrix(0.7071 -0.7071 0.7071 0.7071 -4.1009 -103.0971)" fill="#0B080D" width="4.7" height="8"/>
	
		<rect x="-128.1" y="-50" transform="matrix(0.7071 -0.7071 0.7071 0.7071 -1.5277 -99.4099)" fill="#0B080D" width="14.6" height="4.3"/>
</g>
<g>
	<rect x="-0.6" y="-61.3" opacity="0" fill="#0B080D" width="24" height="24"/>
	<path fill="#231F20" d="M12-56.6c2.5,0,4.5,2,4.5,4.5s-2,4.5-4.5,4.5s-4.5-2-4.5-4.5S9.5-56.6,12-56.6 M12-58.6
		c-3.6,0-6.5,2.9-6.5,6.5s2.9,6.5,6.5,6.5c3.6,0,6.5-2.9,6.5-6.5S15.6-58.6,12-58.6L12-58.6z"/>
	<path fill="#231F20" d="M15.3-46.9c-0.7-0.3-2.1-0.7-3.3-0.7c-1.2,0-2.4,0.3-3.3,0.7c-1.2,0.5-2.4,1.9-3.4,3.2
		c-0.9,1.3,0.1,3.1,1.8,3.1h9.8c1.7,0,2.7-1.8,1.8-3.1C17.7-45,16.5-46.4,15.3-46.9z"/>
</g>
<g>
	<rect x="-327.6" y="1" opacity="0" width="24" height="24"/>
	<rect x="-327.6" y="1" opacity="0" width="24" height="24"/>
	<path d="M-305.8,20c0.6,0.6,0.7,1.4,0.2,1.9l-1.1,1.1c-0.5,0.5-1.3,0.4-1.9-0.2l-3.7-3.7c-0.6-0.6-0.7-1.4-0.2-1.9l1.1-1.1
		c0.5-0.5,1.3-0.4,1.9,0.2L-305.8,20z"/>
	<path d="M-318.6,2c-4.4,0-8,3.6-8,8s3.6,8,8,8s8-3.6,8-8S-314.2,2-318.6,2z M-318.6,15c-2.8,0-5-2.2-5-5s2.2-5,5-5c2.8,0,5,2.2,5,5
		S-315.8,15-318.6,15z"/>
</g>
<g>
	<rect x="-232.6" y="-61" opacity="0" fill="#0B080D" width="24" height="24"/>
	<rect x="-222.2" y="-54.3" transform="matrix(-0.7071 -0.7071 0.7071 -0.7071 -342.2897 -239.4379)" width="3" height="11"/>
	<polygon points="-223.6,-55 -223.6,-52 -217.6,-52 -217.6,-46 -214.6,-46 -214.6,-52 -214.6,-55 	"/>
</g>
<g>
	<rect x="-184.6" y="-61" opacity="0" fill="#0B080D" width="24" height="24"/>
	<rect x="-179.6" y="-52" width="3" height="10"/>
	<rect x="-174.9" y="-53.7" transform="matrix(0.7071 0.7071 -0.7071 0.7071 -84.8475 108.4968)" width="3" height="11"/>
	<rect x="-179.6" y="-45" width="10" height="3"/>
</g>
<g>
	<rect x="-281.9" y="1" opacity="0" width="24" height="24"/>
	<g>
		<rect x="-264.9" y="9" width="3" height="9"/>
		<rect x="-267.9" y="12" width="9" height="3"/>
	</g>
	<path d="M-274.4,5c-2.5,0-4.5,2-4.5,4.5s2,4.5,4.5,4.5c2.5,0,4.5-2,4.5-4.5S-271.9,5-274.4,5L-274.4,5z"/>
	<path d="M-271.3,14.8c-0.7-0.3-1.9-0.7-3.1-0.7c-1.1,0-2.3,0.3-3.1,0.7c-1.1,0.5-2.2,1.8-3.1,3.1c-0.9,1.3,0.1,3,1.6,3h9.1
		c1.6,0,2.5-1.7,1.6-3C-269.1,16.6-270.2,15.3-271.3,14.8z"/>
</g>
<rect x="-184.6" y="1" opacity="0" width="24" height="24"/>
<g>
	<rect x="-232.6" y="1.3" opacity="0" fill="#0B080D" width="24" height="24"/>
	<path d="M-210.6,4.3h-19v5h2v-3h15v11h-15v-3h-2v5h7v2h-2v2h9v-2h-2v-2h7V4.3z"/>
	<g>
		<polygon fill="#0B080D" points="-220.6,12 -225.6,8.3 -225.6,10.3 -230.6,10.3 -230.6,13.3 -225.6,13.3 -225.6,15.8 		"/>
	</g>
</g>
<g>
	<rect x="-412.9" y="-61.3" opacity="0" fill="#0B080D" width="24" height="24"/>
	<path fill="#0B080D" d="M-390-49.8c-0.6-0.6-3.8-3.6-11-3.6c-7.2,0-10.4,3-11,3.6c-0.2,0.2-0.3,0.3-0.2,0.5c0.3,1,1.1,3.9,1.1,3.9
		c0.1,0.2,0.4,0.3,0.6,0.2l4.7-0.9c0.2-0.1,0.3-0.2,0.3-0.4c0-0.1,0-0.6,0-0.9c0-1,1.9-1.4,4.5-1.4c2.5,0,4.5,0.5,4.5,1.4
		c0,0.3,0,0.9,0,0.9c0,0.2,0.1,0.3,0.3,0.4l4.7,0.9c0.2,0.1,0.5,0,0.6-0.2c0,0,0.9-2.9,1.1-3.9C-389.7-49.5-389.7-49.6-390-49.8z"/>
</g>
<path fill="#0B080D" d="M-179.1,14c-3,0-5.5,2.5-5.5,5.5s2.5,5.5,5.5,5.5s5.5-2.5,5.5-5.5S-176,14-179.1,14z M-179.1,22
	c-1.4,0-2.5-1.1-2.5-2.5s1.1-2.5,2.5-2.5c1.4,0,2.5,1.1,2.5,2.5S-177.7,22-179.1,22z"/>
<path fill="#0B080D" d="M-166.1,14c-3,0-5.5,2.5-5.5,5.5s2.5,5.5,5.5,5.5s5.5-2.5,5.5-5.5S-163,14-166.1,14z M-166.1,22
	c-1.4,0-2.5-1.1-2.5-2.5s1.1-2.5,2.5-2.5c1.4,0,2.5,1.1,2.5,2.5S-164.7,22-166.1,22z"/>
<rect x="-179.6" y="22" fill="#0B080D" width="13" height="3"/>
<rect x="-375.6" y="1" opacity="0" width="24" height="24"/>
<rect x="-375.6" y="1" opacity="0" width="24" height="24"/>
<path d="M-353.6,15v-4h-2.2c-0.2-0.7-0.5-1.4-0.9-2.1l1.5-1.5l-2.8-2.8l-1.5,1.5c-0.6-0.4-1.3-0.7-2.1-0.8V3h-4v2.3
	c-0.7,0.2-1.4,0.5-2.1,0.8l-1.5-1.5l-2.8,2.8l1.5,1.5c-0.4,0.6-0.7,1.3-0.8,2.1h-2.2v4h2.3c0.2,0.7,0.5,1.4,0.9,2l-1.5,1.5l2.8,2.8
	l1.5-1.5c0.6,0.4,1.3,0.7,2.1,0.9V23h4v-2.3c0.7-0.2,1.4-0.5,2-0.9l1.6,1.6l2.8-2.8l-1.6-1.6c0.4-0.6,0.7-1.3,0.9-2H-353.6z
	 M-363.5,16.9c-2.2,0-4-1.9-4-4c0-2.2,1.8-3.9,4-3.9c2.2,0,4,1.7,4,3.9C-359.6,15.1-361.4,16.9-363.5,16.9z"/>
<g>
	<path opacity="0" fill="#0B080D" d="M-114.6,25h-20c-1.1,0-2-0.9-2-2V3c0-1.1,0.9-2,2-2h20c1.1,0,2,0.9,2,2v20
		C-112.6,24.1-113.5,25-114.6,25z"/>
	<path fill="#0B080D" d="M-119.8,14.8l-7.2,4.6c-1.5,1-3.5-0.1-3.5-1.9V8.3c0-1.8,2-2.9,3.5-1.9l7.2,4.6
		C-118.4,11.9-118.4,13.9-119.8,14.8z"/>
</g>
<g>
	<rect x="0" opacity="0" fill="#0B080D" width="24" height="24"/>
	<circle cx="6.4" cy="5" r="2"/>
	<circle cx="12.4" cy="5" r="2"/>
	<circle cx="18.4" cy="5" r="2"/>
	<circle cx="18.4" cy="10" r="2"/>
	<circle cx="18.4" cy="15" r="2"/>
	<circle cx="12.4" cy="15" r="2"/>
	<circle cx="12.4" cy="10" r="2"/>
	<circle cx="6.4" cy="10" r="2"/>
	<circle cx="6.4" cy="15" r="2"/>
	<circle cx="12.4" cy="20" r="2"/>
</g>
</svg>
