<?xml version="1.0" encoding="utf-8"?>
<!-- Generator: Adobe Illustrator 18.1.1, SVG Export Plug-In . SVG Version: 6.00 Build 0)  -->
<svg version="1.1" id="Layer_1" xmlns="http://www.w3.org/2000/svg" xmlns:xlink="http://www.w3.org/1999/xlink" x="0px" y="0px"
	 viewBox="0 0 612 792" enable-background="new 0 0 612 792" xml:space="preserve">
<g>
	<rect x="5949.1" y="-1498.7" fill="#FFFFFF" fill-opacity="0" width="612" height="612"/>
	<path fill="#FFFFFF" d="M6443.9-1414.5c-10.2-10.2-25.5-10.2-35.7,0l0,0l-43.3,43.3c-10.2-48.4-51-84.1-99.5-84.1
		c-28,0-53.5,12.8-71.4,30.6l0,0c-5.1,5.1-7.6,10.2-12.8,15.3c-2.6,2.6-5.1,7.7-5.1,10.2c0,2.5-2.5,5.1-2.5,5.1
		c-5.1,12.8-7.7,25.5-7.7,40.8v153c0,10.2,2.6,17.8,5.1,25.5l-20.4,20.4c-5.1-15.3-10.2-30.6-10.2-45.9l0,0
		c0-15.3-10.2-25.5-25.5-25.5c-15.3,0-25.5,10.2-25.5,25.5l0,0c0,30.6,7.7,58.6,20.4,84.1l-58.7,58.7l0,0c-7.6,10.2-7.6,25.5,0,35.7
		c10.2,10.2,25.5,10.2,35.7,0l0,0l0,0l0,0l0,0l53.5-53.5l0,0l35.7-35.7l0,0l35.7-35.7l0,0l130.1-130l0,0l102-102l0,0
		C6451.5-1389,6451.5-1404.3,6443.9-1414.5z"/>
	<path fill="#FFFFFF" d="M6364.8-1200.3v-5.1v-25.5l-40.8,40.8l0,0l-89.2,89.2c7.6,2.5,17.9,5.1,25.5,5.1
		C6318.9-1098.3,6364.8-1144.2,6364.8-1200.3z"/>
	<path fill="#FFFFFF" d="M6441.3-1200.3L6441.3-1200.3c0-15.3-10.2-25.5-25.5-25.5c-15.3,0-25.5,10.2-25.5,25.5l0,0
		c0,71.4-56.1,127.5-127.5,127.5c-15.3,0-33.2-2.6-45.9-10.2l-38.2,38.2c17.9,10.2,30.6,25.5,53.6,28v25.5h-51
		c-15.3,0-25.5,10.2-25.5,25.5c0,15.3,10.2,25.5,25.5,25.5h153c15.3,0,25.5-10.2,25.5-25.5c0-15.3-10.2-25.5-25.5-25.5h-51v-25.5
		C6367.4-1026.9,6441.3-1111,6441.3-1200.3z"/>
</g>
<g>
	<rect x="6018" y="64.5" fill="#FFFFFF" fill-opacity="0" width="612" height="612"/>
	<g>
		<path fill="#FFFFFF" d="M6400.5,523.5h-255c-28.1,0-51-22.9-51-51v-204c0-28.1,22.9-51,51-51h255c28.1,0,51,22.9,51,51v204
			C6451.5,500.6,6428.6,523.5,6400.5,523.5z"/>
	</g>
	<path d="M6540.8,243l-63.8,51v153l63.8,51c20.4,0,38.2-33.1,38.2-51V294C6579,276.1,6561.1,243,6540.8,243z"/>
</g>
<g>
	<rect x="4837.4" y="-1491" fill="#FFFFFF" fill-opacity="0" width="612" height="612"/>
	<path d="M5079.6-1394.1v45.9l22.9,178.5c2.6,20.4,20.4,38.2,40.8,38.2l0,0c20.4,0,40.8-15.3,40.8-38.2l23-178.5v-45.9
		c0-28.1-23-51-51-51h-25.5C5102.6-1445.1,5079.6-1424.7,5079.6-1394.1z"/>
	<circle cx="5143.4" cy="-1032" r="51"/>
</g>
<g>
	<rect x="-2389.3" y="-1491" fill="#FFFFFF" fill-opacity="0" width="612" height="612"/>
	<path fill="#FFFFFF" d="M-2287.3-1371.2c0,20.4,5.1,132.6,135.1,262.7s242.3,132.6,262.7,135.1c7.7,0,10.2,0,12.8-5.1
		c12.8-23,48.5-89.3,48.5-89.3c0-5.1-2.5-10.2-7.7-12.8l-99.5-68.8c-5.1-2.5-10.2-2.5-12.8,0c0,0-10.2,10.2-17.8,17.8
		c-17.8,17.9-61.2-10.2-107.1-56.1c-45.9-45.9-71.4-89.2-56.1-107.1c5.1-5.1,15.3-15.3,17.8-17.9c2.6-2.5,2.6-7.6,0-12.8l-68.8-99.5
		c-2.6-5.1-7.7-7.6-12.8-7.6c0,0-68.9,35.7-89.2,48.5C-2287.3-1381.3-2287.3-1378.8-2287.3-1371.2z"/>
</g>
<g>
	<rect x="-1190.9" y="-1491" fill="#FFFFFF" fill-opacity="0" width="612" height="612"/>
	<polygon points="-757.4,-1414.5 -808.4,-1363.5 -757.4,-1312.5 -884.9,-1312.5 -884.9,-1236 -757.4,-1236 -808.4,-1185 
		-757.4,-1134 -635,-1274.2 	"/>
	<path fill="#FFFFFF" d="M-1183.2-1292.1c0,22.9,5.1,137.7,140.2,272.8S-793.1-881.5-770.1-879c7.7,0,10.2,0,12.8-5.1
		c12.8-23,51-94.3,51-94.3c0-5.1-2.5-10.2-7.6-15.3l-104.5-71.4c-5.1-2.5-10.2-2.5-12.8,0c0,0-10.2,10.2-17.8,17.9
		c-17.9,17.8-63.8-10.2-112.2-56.1c-48.5-48.4-74-94.3-56.1-112.2c5.1-5.1,15.3-15.3,17.8-17.9c2.5-2.5,2.5-7.6,0-12.8l-71.4-104.5
		c-2.5-5.1-10.2-7.7-15.3-7.7c0,0-71.4,38.2-94.4,51C-1180.7-1302.3-1183.2-1299.8-1183.2-1292.1z"/>
</g>
<g>
	<rect x="4929.1" y="90" fill="#FFFFFF" fill-opacity="0" width="612" height="612"/>
	<path fill="#FFFFFF" d="M5133.1,600h-25.5c-28,0-51-23-51-51V243c0-28.1,23-51,51-51h25.5c28.1,0,51,22.9,51,51v306
		C5184.1,577,5161.2,600,5133.1,600z"/>
	<path fill="#FFFFFF" d="M5337.1,600h-25.5c-28,0-51-23-51-51V243c0-28.1,23-51,51-51h25.5c28.1,0,51,22.9,51,51v306
		C5388.1,577,5365.2,600,5337.1,600z"/>
</g>
<rect x="3705.2" y="90" fill="#FFFFFF" fill-opacity="0" width="612" height="612"/>
<g>
	<rect x="33.1" y="-1491" fill="#FFFFFF" fill-opacity="0" width="612" height="612"/>
	<g>
		<rect x="415.6" y="-1414.5" fill="#FFFFFF" width="76.5" height="229.5"/>
		<rect x="339.2" y="-1338" fill="#FFFFFF" width="229.5" height="76.5"/>
	</g>
	<path fill="#FFFFFF" d="M40.8-1299.8c0,23,5.1,137.7,140.2,272.8s249.9,137.7,272.8,140.3c7.6,0,10.2,0,12.8-5.1
		c12.8-23,51-94.4,51-94.4c0-5.1-2.5-10.2-7.6-15.3l-102-71.4c-5.1-2.6-10.2-2.6-12.8,0c0,0-10.2,10.2-17.9,17.8
		c-17.8,17.8-63.8-10.2-112.2-56.1c-48.4-48.5-73.9-94.4-56.1-112.2c5.1-5.1,15.3-15.3,17.9-17.8c2.6-2.6,2.6-7.7,0-12.8
		l-71.4-104.6c-2.5-2.6-7.6-5.1-15.3-5.1c0,0-71.4,38.2-94.4,51C43.4-1310,40.8-1307.4,40.8-1299.8z"/>
</g>
<g>
	<rect x="3730.7" y="-1491" fill="#FFFFFF" fill-opacity="0" width="612" height="612"/>
	
		<rect x="3901.8" y="-1224.9" transform="matrix(-0.7071 0.7071 -0.7071 -0.7071 5969.0562 -4718.3066)" fill="#FFFFFF" width="119.8" height="204"/>
	
		<rect x="3922.3" y="-1209.9" transform="matrix(-0.7071 0.7071 -0.7071 -0.7071 6196.8203 -4877.0371)" fill="#FFFFFF" width="372.3" height="109.6"/>
</g>
<g>
	<rect x="7173.1" y="-1498.7" fill="#FFFFFF" fill-opacity="0" width="612" height="612"/>
	<path fill="#231F20" d="M7494.4-1378.8c63.8,0,114.8,51,114.8,114.8s-51,114.8-114.8,114.8s-114.8-51-114.8-114.8
		S7430.7-1378.8,7494.4-1378.8 M7494.4-1429.8c-91.8,0-165.8,73.9-165.8,165.8c0,91.8,74,165.8,165.8,165.8
		c91.8,0,165.8-74,165.8-165.8C7660.2-1355.8,7586.2-1429.8,7494.4-1429.8L7494.4-1429.8z"/>
	<path fill="#231F20" d="M7578.6-1131.5c-17.9-7.6-53.5-17.8-84.1-17.8c-30.6,0-61.2,7.7-84.1,17.8c-30.6,12.8-61.2,48.5-86.7,81.6
		c-22.9,33.1,2.6,79,45.9,79h249.9c43.4,0,68.9-45.9,45.9-79C7639.8-1083,7609.2-1118.7,7578.6-1131.5z"/>
</g>
<g>
	<rect x="-1165.4" y="90" fill-opacity="0" width="612" height="612"/>
	<rect x="-1165.4" y="90" fill-opacity="0" width="612" height="612"/>
	<path d="M-609.5,574.5c15.3,15.3,17.9,35.7,5.1,48.5l-28,28c-12.8,12.8-33.2,10.2-48.5-5.1l-94.4-94.3
		c-15.3-15.3-17.8-35.7-5.1-48.5l28-28.1c12.8-12.8,33.1-10.2,48.5,5.1L-609.5,574.5z"/>
	<path d="M-938.4,115.5c-112.2,0-204,91.8-204,204s91.8,204,204,204s204-91.8,204-204S-823.6,115.5-938.4,115.5z M-935.9,447
		c-71.4,0-127.5-56.1-127.5-127.5S-1007.2,192-935.9,192s127.5,56.1,127.5,127.5S-864.5,447-935.9,447z"/>
</g>
<g>
	<rect x="1257.1" y="-1491" fill="#FFFFFF" fill-opacity="0" width="612" height="612"/>
	
		<rect x="1521.2" y="-1322.1" transform="matrix(0.7071 0.7071 -0.7071 0.7071 -378.9198 -1448.8594)" width="76.5" height="280.5"/>
	<polygon points="1486.7,-1338 1486.7,-1261.5 1639.7,-1261.5 1639.7,-1108.5 1716.2,-1108.5 1716.2,-1261.5 1716.2,-1338 	"/>
</g>
<g>
	<rect x="2481.2" y="-1491" fill="#FFFFFF" fill-opacity="0" width="612" height="612"/>
	<rect x="2608.7" y="-1261.5" width="76.5" height="255"/>
	<rect x="2729" y="-1304.7" transform="matrix(-0.7071 -0.7071 0.7071 -0.7071 5547.4453 -31.1472)" width="76.5" height="280.5"/>
	<rect x="2608.7" y="-1083" width="255" height="76.5"/>
</g>
<g>
	<rect y="90" fill="#FFFFFF" fill-opacity="0" stroke="#000000" stroke-miterlimit="10" width="612" height="612"/>
	<g>
		<rect x="433.5" y="294" fill="#FFFFFF" stroke="#000000" stroke-miterlimit="10" width="76.5" height="229.5"/>
		<rect x="357" y="370.5" fill="#FFFFFF" stroke="#000000" stroke-miterlimit="10" width="229.5" height="76.5"/>
	</g>
	<path fill="#FFFFFF" stroke="#000000" stroke-miterlimit="10" d="M191.2,192c-63.8,0-114.8,51-114.8,114.8s51,114.8,114.8,114.8
		S306,370.5,306,306.8S255,192,191.2,192L191.2,192z"/>
	<path fill="#FFFFFF" stroke="#000000" stroke-miterlimit="10" d="M270.3,441.9c-17.9-7.6-48.4-17.8-79.1-17.8
		c-28.1,0-58.6,7.6-79.1,17.8c-28,12.8-56.1,45.9-79,79.1s2.5,76.5,40.8,76.5h232c40.8,0,63.8-43.4,40.8-76.5
		C326.4,487.8,298.4,454.6,270.3,441.9z"/>
</g>
<rect x="2481.2" y="90" fill-opacity="0" width="612" height="612"/>
<g>
	<rect x="1257.1" y="97.6" fill="#FFFFFF" fill-opacity="0" width="612" height="612"/>
	<path d="M1818.2,174.1h-484.5v127.5h51v-76.5h382.5v280.5h-382.5v-76.5h-51v127.5h178.5v51h-51v51h229.5v-51h-51v-51h178.5V174.1z"
		/>
	<g>
		<polygon fill="#FFFFFF" points="1563.2,370.5 1435.7,276.1 1435.7,327.1 1308.2,327.1 1308.2,403.6 1435.7,403.6 1435.7,467.4 		
			"/>
	</g>
</g>
<g>
	<rect x="-3340.5" y="-1498.7" fill="#FFFFFF" fill-opacity="0" width="612" height="612"/>
	<path fill="#FFFFFF" d="M-2756.6-1205.4c-15.3-15.3-96.9-91.8-280.5-91.8c-183.6,0-265.2,76.5-280.5,91.8
		c-5.1,5.1-7.7,7.7-5.1,12.8c7.7,25.5,28.1,99.5,28.1,99.5c2.6,5.1,10.2,7.7,15.3,5.1l119.8-22.9c5.1-2.6,7.7-5.1,7.7-10.2
		c0-2.5,0-15.3,0-23c0-25.5,48.5-35.7,114.8-35.7c63.8,0,114.8,12.8,114.8,35.7c0,7.7,0,23,0,23c0,5.1,2.6,7.7,7.7,10.2l119.8,22.9
		c5.1,2.6,12.8,0,15.3-5.1c0,0,22.9-74,28-99.5C-2748.9-1197.8-2751.4-1200.3-2756.6-1205.4z"/>
</g>
<path fill="#FFFFFF" d="M2621.4,421.5c-76.5,0-140.2,63.8-140.2,140.2S2544.9,702,2621.4,702s140.2-63.8,140.2-140.2
	S2700.4,421.5,2621.4,421.5z M2621.4,625.5c-35.7,0-63.8-28-63.8-63.8s28-63.8,63.8-63.8c35.7,0,63.8,28,63.8,63.8
	S2657.1,625.5,2621.4,625.5z"/>
<path fill="#FFFFFF" d="M2952.9,421.5c-76.5,0-140.2,63.8-140.2,140.2S2876.4,702,2952.9,702s140.2-63.8,140.2-140.2
	S3031.9,421.5,2952.9,421.5z M2952.9,625.5c-35.7,0-63.8-28-63.8-63.8s28-63.8,63.8-63.8c35.7,0,63.8,28,63.8,63.8
	S2988.6,625.5,2952.9,625.5z"/>
<rect x="2608.7" y="625.5" fill="#FFFFFF" width="331.5" height="76.5"/>
<rect x="-2389.3" y="90" fill-opacity="0" width="612" height="612"/>
<rect x="-2389.3" y="90" fill-opacity="0" width="612" height="612"/>
<path d="M-1828.3,447V345h-56.1c-5.1-17.9-12.8-35.7-23-53.5l38.2-38.3l-71.4-71.4l-38.2,38.2c-15.3-10.2-33.2-17.8-53.6-20.4V141
	h-102v58.7c-17.9,5.1-35.7,12.8-53.6,20.4l-38.2-38.2l-71.4,71.4l38.2,38.2c-10.2,15.3-17.8,33.1-20.4,53.5h-56.1v102h58.7
	c5.1,17.9,12.8,35.7,22.9,51l-38.2,38.2l71.4,71.4l38.2-38.2c15.3,10.2,33.2,17.9,53.6,23V651h102v-58.6c17.8-5.1,35.7-12.8,51-23
	l40.8,40.8l71.4-71.4l-40.8-40.8c10.2-15.3,17.8-33.2,23-51L-1828.3,447L-1828.3,447z M-2080.8,495.4c-56.1,0-102-48.4-102-102
	c0-56.1,45.9-99.4,102-99.4c56.1,0,102,43.4,102,99.4C-1981.3,449.6-2027.2,495.4-2080.8,495.4z"/>
<g>
	<path fill="#FFFFFF" fill-opacity="0" d="M4266.1,702h-510c-28.1,0-51-23-51-51V141c0-28.1,22.9-51,51-51h510c28.1,0,51,22.9,51,51
		v510C4317.1,679,4294.2,702,4266.1,702z"/>
	<path fill="#FFFFFF" d="M4133.6,441.9L3950,559.2c-38.2,25.5-89.2-2.6-89.2-48.5V276.1c0-45.9,51-73.9,89.2-48.4L4133.6,345
		C4169.2,367.9,4169.2,418.9,4133.6,441.9z"/>
</g>
<g>
	<rect x="7188.4" y="64.5" fill="#FFFFFF" fill-opacity="0" width="612" height="612"/>
	<circle cx="7351.6" cy="192" r="51"/>
	<circle cx="7504.6" cy="192" r="51"/>
	<circle cx="7657.6" cy="192" r="51"/>
	<circle cx="7657.6" cy="319.5" r="51"/>
	<circle cx="7657.6" cy="447" r="51"/>
	<circle cx="7504.6" cy="447" r="51"/>
	<circle cx="7504.6" cy="319.5" r="51"/>
	<circle cx="7351.6" cy="319.5" r="51"/>
	<circle cx="7351.6" cy="447" r="51"/>
	<circle cx="7504.6" cy="574.5" r="51"/>
</g>
</svg>
