<svg xmlns="http://www.w3.org/2000/svg" xmlns:xlink="http://www.w3.org/1999/xlink" preserveAspectRatio="xMidYMid" width="40" height="40" viewBox="0 0 40 40">
  <defs>
    <style>

      .cls-3 {
        fill: #999999;
      }

      .cls-4 {
        fill: #ffffff;
      }
    </style>
  </defs>
  <g id="avatar">
    <circle id="circle-1" class="cls-3" cx="20" cy="20" r="20"/>
    <path d="M26.788,24.895 C27.716,26.220 26.712,28.000 25.047,28.000 C25.047,28.000 15.369,28.000 15.369,28.000 C13.700,28.000 12.697,26.212 13.632,24.888 C14.591,23.531 15.795,22.142 16.953,21.675 C17.192,21.570 17.468,21.474 17.761,21.385 C15.991,20.476 14.767,18.641 14.767,16.500 C14.767,13.463 17.206,11.000 20.215,11.000 C23.224,11.000 25.664,13.463 25.664,16.500 C25.664,18.650 24.430,20.491 22.649,21.396 C22.965,21.489 23.257,21.584 23.478,21.675 C24.638,22.143 25.836,23.535 26.788,24.895 Z" id="path-1" class="cls-4" fill-rule="evenodd"/>
  </g>
</svg>
