<?xml version="1.0" encoding="utf-8"?>
<!-- Generator: Adobe Illustrator 18.1.0, SVG Export Plug-In . SVG Version: 6.00 Build 0)  -->
<!DOCTYPE svg PUBLIC "-//W3C//DTD SVG 1.1//EN" "http://www.w3.org/Graphics/SVG/1.1/DTD/svg11.dtd">
<svg version="1.1" id="Layer_1" xmlns="http://www.w3.org/2000/svg" xmlns:xlink="http://www.w3.org/1999/xlink" x="0px" y="0px"
	 viewBox="0 0 24 24" enable-background="new 0 0 24 24" xml:space="preserve">
<g>
	<rect x="279.1" y="-62.3" opacity="0" fill="#0B080D" width="24" height="24"/>
	<path fill="#0B080D" d="M298.4-59c-0.4-0.4-1-0.4-1.4,0l0,0l-1.7,1.7c-0.4-1.9-2-3.3-3.9-3.3c-1.1,0-2.1,0.5-2.8,1.2c0,0,0,0,0,0
		c-0.2,0.2-0.3,0.4-0.5,0.6c-0.1,0.1-0.2,0.3-0.2,0.4c0,0.1-0.1,0.2-0.1,0.2c-0.2,0.5-0.3,1-0.3,1.6v6c0,0.4,0.1,0.7,0.2,1l-0.8,0.8
		c-0.2-0.6-0.4-1.2-0.4-1.8h0c0-0.6-0.4-1-1-1c-0.6,0-1,0.4-1,1c0,0,0,0,0,0c0,1.2,0.3,2.3,0.8,3.3l-2.3,2.3l0,0
		c-0.3,0.4-0.3,1,0,1.4c0.4,0.4,1,0.4,1.4,0l0,0l0,0c0,0,0,0,0,0s0,0,0,0l2.1-2.1l0,0l1.4-1.4l0,0l1.4-1.4l0,0l5.1-5.1v0l4-4
		c0,0,0,0,0,0C298.8-58,298.8-58.6,298.4-59z"/>
	<path fill="#0B080D" d="M295.3-50.6v-0.2v-1l-1.6,1.6v0l-3.5,3.5c0.3,0.1,0.7,0.2,1,0.2C293.6-46.6,295.3-48.4,295.3-50.6z"/>
	<path fill="#0B080D" d="M298.3-50.6L298.3-50.6c0-0.6-0.4-1-1-1c-0.6,0-1,0.4-1,1l0,0c0,2.8-2.2,5-5,5c-0.6,0-1.3-0.1-1.8-0.4
		l-1.5,1.5c0.7,0.4,1.2,1,2.1,1.1v1h-2c-0.6,0-1,0.4-1,1c0,0.6,0.4,1,1,1h6c0.6,0,1-0.4,1-1c0-0.6-0.4-1-1-1h-2v-1
		C295.5-43.8,298.3-47.1,298.3-50.6z"/>
</g>
<g>
	<rect x="281.8" y="-1" opacity="0" fill="#0B080D" width="24" height="24"/>
	<g>
		<path d="M296.8,17h-10c-1.1,0-2-0.9-2-2V7c0-1.1,0.9-2,2-2h10c1.1,0,2,0.9,2,2l0,8C298.8,16.1,297.8,17,296.8,17z"/>
	</g>
	<path d="M302.2,6l-2.5,2v6l2.5,2c0.8,0,1.5-1.3,1.5-2V8C303.8,7.3,303,6,302.2,6z"/>
</g>
<g>
	<rect x="235.4" y="-62" opacity="0" fill="#0B080D" width="24" height="24"/>
	<path d="M244.9-58.2v1.8l0.9,7c0.1,0.8,0.8,1.5,1.6,1.5h0c0.8,0,1.6-0.6,1.6-1.5l0.9-7v-1.8c0-1.1-0.9-2-2-2h-1
		C245.8-60.2,244.9-59.4,244.9-58.2z"/>
	<circle cx="247.4" cy="-44" r="2"/>
</g>
<g>
	<rect x="-47.9" y="-62" opacity="0" fill="#0B080D" width="24" height="24"/>
	<path fill="#0B080D" d="M-44-57.3c0,0.8,0.2,5.2,5.3,10.3s9.5,5.2,10.3,5.3c0.3,0,0.4,0,0.5-0.2c0.5-0.9,1.9-3.5,1.9-3.5
		c0-0.2-0.1-0.4-0.3-0.5l-3.9-2.7c-0.2-0.1-0.4-0.1-0.5,0c0,0-0.4,0.4-0.7,0.7c-0.7,0.7-2.4-0.4-4.2-2.2c-1.8-1.8-2.8-3.5-2.2-4.2
		c0.2-0.2,0.6-0.6,0.7-0.7c0.1-0.1,0.1-0.3,0-0.5l-2.7-3.9c-0.1-0.2-0.3-0.3-0.5-0.3c0,0-2.7,1.4-3.5,1.9C-44-57.7-44-57.6-44-57.3z
		"/>
</g>
<g>
	<rect x="-0.9" y="-62" opacity="0" fill="#0B080D" width="24" height="24"/>
	<polygon points="16.1,-59 14.1,-57 16.1,-55 11.1,-55 11.1,-52 16.1,-52 14.1,-50 16.1,-48 20.9,-53.5 	"/>
	<path fill="#0B080D" d="M-0.6-54.2c0,0.9,0.2,5.4,5.5,10.7S14.7-38,15.6-38c0.3,0,0.4,0,0.5-0.2c0.5-0.9,2-3.7,2-3.7
		c0-0.2-0.1-0.4-0.3-0.6l-4.1-2.8c-0.2-0.1-0.4-0.1-0.5,0c0,0-0.4,0.4-0.7,0.7c-0.7,0.7-2.5-0.4-4.4-2.2c-1.9-1.9-2.9-3.7-2.2-4.4
		c0.2-0.2,0.6-0.6,0.7-0.7c0.1-0.1,0.1-0.3,0-0.5l-2.8-4.1c-0.1-0.2-0.4-0.3-0.6-0.3c0,0-2.8,1.5-3.7,2C-0.6-54.6-0.6-54.5-0.6-54.2
		z"/>
</g>
<g>
	<rect x="239.1" opacity="0" fill="#0B080D" width="24" height="24"/>
	<path fill="#0B080D" d="M247.1,20h-1c-1.1,0-2-0.9-2-2V6c0-1.1,0.9-2,2-2h1c1.1,0,2,0.9,2,2v12C249.1,19.1,248.2,20,247.1,20z"/>
	<path fill="#0B080D" d="M255.1,20h-1c-1.1,0-2-0.9-2-2V6c0-1.1,0.9-2,2-2h1c1.1,0,2,0.9,2,2v12C257.1,19.1,256.2,20,255.1,20z"/>
</g>
<rect x="191.1" opacity="0" fill="#0B080D" width="24" height="24"/>
<g>
	<rect x="47.1" y="-62" opacity="0" fill="#0B080D" width="24" height="24"/>
	<g>
		<rect x="62.1" y="-59" fill="#0B080D" width="3" height="9"/>
		<rect x="59.1" y="-56" fill="#0B080D" width="9" height="3"/>
	</g>
	<path fill="#0B080D" d="M47.4-54.5c0,0.9,0.2,5.4,5.5,10.7s9.8,5.4,10.7,5.5c0.3,0,0.4,0,0.5-0.2c0.5-0.9,2-3.7,2-3.7
		c0-0.2-0.1-0.4-0.3-0.6l-4.1-2.8c-0.2-0.1-0.4-0.1-0.5,0c0,0-0.4,0.4-0.7,0.7c-0.7,0.7-2.5-0.4-4.4-2.2c-1.9-1.9-2.9-3.7-2.2-4.4
		c0.2-0.2,0.6-0.6,0.7-0.7c0.1-0.1,0.1-0.3,0-0.5l-2.8-4.1c-0.1-0.2-0.4-0.3-0.6-0.3c0,0-2.8,1.5-3.7,2
		C47.4-54.9,47.4-54.8,47.4-54.5z"/>
</g>
<g>
	<rect x="192.1" y="-62" opacity="0" fill="#0B080D" width="24" height="24"/>
	
		<rect x="198.8" y="-51.6" transform="matrix(0.7071 -0.7071 0.7071 0.7071 92.5715 128.2906)" fill="#0B080D" width="4.7" height="8"/>
	
		<rect x="199.6" y="-51" transform="matrix(0.7071 -0.7071 0.7071 0.7071 95.1447 131.9778)" fill="#0B080D" width="14.6" height="4.3"/>
</g>
<g>
	<rect x="327.1" y="-62.3" opacity="0" fill="#0B080D" width="24" height="24"/>
	<path fill="#231F20" d="M339.7-57.6c2.5,0,4.5,2,4.5,4.5s-2,4.5-4.5,4.5s-4.5-2-4.5-4.5S337.2-57.6,339.7-57.6 M339.7-59.6
		c-3.6,0-6.5,2.9-6.5,6.5s2.9,6.5,6.5,6.5c3.6,0,6.5-2.9,6.5-6.5S343.2-59.6,339.7-59.6L339.7-59.6z"/>
	<path fill="#231F20" d="M342.9-47.9c-0.7-0.3-2.1-0.7-3.3-0.7c-1.2,0-2.4,0.3-3.3,0.7c-1.2,0.5-2.4,1.9-3.4,3.2
		c-0.9,1.3,0.1,3.1,1.8,3.1h9.8c1.7,0,2.7-1.8,1.8-3.1C345.3-46,344.1-47.4,342.9-47.9z"/>
</g>
<g>
	<rect x="0" opacity="0" width="24" height="24"/>
	<rect x="0" opacity="0" width="24" height="24"/>
	<path d="M21.9,19c0.6,0.6,0.7,1.4,0.2,1.9L21,22c-0.5,0.5-1.3,0.4-1.9-0.2l-3.7-3.7c-0.6-0.6-0.7-1.4-0.2-1.9l1.1-1.1
		c0.5-0.5,1.3-0.4,1.9,0.2L21.9,19z"/>
	<path d="M9,1C4.6,1,1,4.6,1,9s3.6,8,8,8s8-3.6,8-8S13.4,1,9,1z M9.1,14c-2.8,0-5-2.2-5-5s2.2-5,5-5s5,2.2,5,5S11.8,14,9.1,14z"/>
</g>
<g>
	<rect x="95.1" y="-62" opacity="0" fill="#0B080D" width="24" height="24"/>
	<rect x="105.4" y="-55.3" transform="matrix(-0.7071 -0.7071 0.7071 -0.7071 217.7438 -9.4644)" width="3" height="11"/>
	<polygon points="104.1,-56 104.1,-53 110.1,-53 110.1,-47 113.1,-47 113.1,-53 113.1,-56 	"/>
</g>
<g>
	<rect x="143.1" y="-62" opacity="0" fill="#0B080D" width="24" height="24"/>
	<rect x="148.1" y="-53" width="3" height="10"/>
	<rect x="152.8" y="-54.7" transform="matrix(0.7071 0.7071 -0.7071 0.7071 10.4107 -123.4767)" width="3" height="11"/>
	<rect x="148.1" y="-46" width="10" height="3"/>
</g>
<g>
	<rect x="45.8" opacity="0" width="24" height="24"/>
	<g>
		<rect x="62.8" y="8" width="3" height="9"/>
		<rect x="59.8" y="11" width="9" height="3"/>
	</g>
	<path d="M53.3,4c-2.5,0-4.5,2-4.5,4.5s2,4.5,4.5,4.5c2.5,0,4.5-2,4.5-4.5S55.7,4,53.3,4L53.3,4z"/>
	<path d="M56.3,13.8c-0.7-0.3-1.9-0.7-3.1-0.7c-1.1,0-2.3,0.3-3.1,0.7c-1.1,0.5-2.2,1.8-3.1,3.1c-0.9,1.3,0.1,3,1.6,3h9.1
		c1.6,0,2.5-1.7,1.6-3C58.5,15.6,57.4,14.3,56.3,13.8z"/>
</g>
<rect x="143.1" opacity="0" width="24" height="24"/>
<g>
	<rect x="95.1" y="0.3" opacity="0" fill="#0B080D" width="24" height="24"/>
	<path d="M117.1,3.3h-19v5h2v-3h15v11h-15v-3h-2v5h7v2h-2v2h9v-2h-2v-2h7V3.3z"/>
	<g>
		<polygon fill="#0B080D" points="107.1,11 102.1,7.3 102.1,9.3 97.1,9.3 97.1,12.3 102.1,12.3 102.1,14.8 		"/>
	</g>
</g>
<g>
	<rect x="-85.2" y="-62.3" opacity="0" fill="#0B080D" width="24" height="24"/>
	<path fill="#0B080D" d="M-62.3-50.8c-0.6-0.6-3.8-3.6-11-3.6s-10.4,3-11,3.6c-0.2,0.2-0.3,0.3-0.2,0.5c0.3,1,1.1,3.9,1.1,3.9
		c0.1,0.2,0.4,0.3,0.6,0.2l4.7-0.9c0.2-0.1,0.3-0.2,0.3-0.4c0-0.1,0-0.6,0-0.9c0-1,1.9-1.4,4.5-1.4c2.5,0,4.5,0.5,4.5,1.4
		c0,0.3,0,0.9,0,0.9c0,0.2,0.1,0.3,0.3,0.4l4.7,0.9c0.2,0.1,0.5,0,0.6-0.2c0,0,0.9-2.9,1.1-3.9C-62.1-50.5-62.1-50.6-62.3-50.8z"/>
</g>
<path fill="#0B080D" d="M148.6,13c-3,0-5.5,2.5-5.5,5.5s2.5,5.5,5.5,5.5s5.5-2.5,5.5-5.5S151.6,13,148.6,13z M148.6,21
	c-1.4,0-2.5-1.1-2.5-2.5s1.1-2.5,2.5-2.5c1.4,0,2.5,1.1,2.5,2.5S150,21,148.6,21z"/>
<path fill="#0B080D" d="M161.6,13c-3,0-5.5,2.5-5.5,5.5s2.5,5.5,5.5,5.5s5.5-2.5,5.5-5.5S164.6,13,161.6,13z M161.6,21
	c-1.4,0-2.5-1.1-2.5-2.5s1.1-2.5,2.5-2.5c1.4,0,2.5,1.1,2.5,2.5S163,21,161.6,21z"/>
<rect x="148.1" y="21" fill="#0B080D" width="13" height="3"/>
<rect x="-47.9" opacity="0" width="24" height="24"/>
<rect x="-47.9" opacity="0" width="24" height="24"/>
<path d="M-25.9,14v-4h-2.2c-0.2-0.7-0.5-1.4-0.9-2.1l1.5-1.5l-2.8-2.8l-1.5,1.5c-0.6-0.4-1.3-0.7-2.1-0.8V2h-4v2.3
	c-0.7,0.2-1.4,0.5-2.1,0.8l-1.5-1.5l-2.8,2.8l1.5,1.5c-0.4,0.6-0.7,1.3-0.8,2.1h-2.2v4h2.3c0.2,0.7,0.5,1.4,0.9,2l-1.5,1.5l2.8,2.8
	l1.5-1.5c0.6,0.4,1.3,0.7,2.1,0.9V22h4v-2.3c0.7-0.2,1.4-0.5,2-0.9l1.6,1.6l2.8-2.8l-1.6-1.6c0.4-0.6,0.7-1.3,0.9-2H-25.9z
	 M-35.9,15.9c-2.2,0-4-1.9-4-4c0-2.2,1.8-3.9,4-3.9c2.2,0,4,1.7,4,3.9C-31.9,14.1-33.7,15.9-35.9,15.9z"/>
<g>
	<path opacity="0" fill="#0B080D" d="M213.1,24h-20c-1.1,0-2-0.9-2-2V2c0-1.1,0.9-2,2-2h20c1.1,0,2,0.9,2,2v20
		C215.1,23.1,214.2,24,213.1,24z"/>
	<path fill="#0B080D" d="M207.8,13.8l-7.2,4.6c-1.5,1-3.5-0.1-3.5-1.9V7.3c0-1.8,2-2.9,3.5-1.9l7.2,4.6
		C209.2,10.9,209.2,12.9,207.8,13.8z"/>
</g>
<g>
	<rect x="327.6" y="-1" opacity="0" fill="#0B080D" width="24" height="24"/>
	<circle cx="334.1" cy="4" r="2"/>
	<circle cx="340.1" cy="4" r="2"/>
	<circle cx="346.1" cy="4" r="2"/>
	<circle cx="346.1" cy="9" r="2"/>
	<circle cx="346.1" cy="14" r="2"/>
	<circle cx="340.1" cy="14" r="2"/>
	<circle cx="340.1" cy="9" r="2"/>
	<circle cx="334.1" cy="9" r="2"/>
	<circle cx="334.1" cy="14" r="2"/>
	<circle cx="340.1" cy="19" r="2"/>
</g>
</svg>
