<?xml version="1.0" encoding="utf-8"?>
<!-- Generator: Adobe Illustrator 18.1.0, SVG Export Plug-In . SVG Version: 6.00 Build 0)  -->
<!DOCTYPE svg PUBLIC "-//W3C//DTD SVG 1.1//EN" "http://www.w3.org/Graphics/SVG/1.1/DTD/svg11.dtd">
<svg version="1.1" id="Layer_1" xmlns="http://www.w3.org/2000/svg" xmlns:xlink="http://www.w3.org/1999/xlink" x="0px" y="0px"
	 viewBox="0 0 595.3 841.9" enable-background="new 0 0 595.3 841.9" xml:space="preserve">
<g>
	<rect x="451" y="454.6" opacity="0" fill="#0B080D" width="24" height="24"/>
	<path fill="#0B080D" d="M470.3,457.9c-0.4-0.4-1-0.4-1.4,0l0,0l-1.7,1.7c-0.4-1.9-2-3.3-3.9-3.3c-1.1,0-2.1,0.5-2.8,1.2
		c0,0,0,0,0,0c-0.2,0.2-0.3,0.4-0.5,0.6c-0.1,0.1-0.2,0.3-0.2,0.4c0,0.1-0.1,0.2-0.1,0.2c-0.2,0.5-0.3,1-0.3,1.6v6
		c0,0.4,0.1,0.7,0.2,1l-0.8,0.8c-0.2-0.6-0.4-1.2-0.4-1.8h0c0-0.6-0.4-1-1-1c-0.6,0-1,0.4-1,1c0,0,0,0,0,0c0,1.2,0.3,2.3,0.8,3.3
		l-2.3,2.3l0,0c-0.3,0.4-0.3,1,0,1.4c0.4,0.4,1,0.4,1.4,0l0,0l0,0c0,0,0,0,0,0s0,0,0,0l2.1-2.1l0,0l1.4-1.4l0,0l1.4-1.4l0,0l5.1-5.1
		v0l4-4c0,0,0,0,0,0C470.7,458.9,470.7,458.2,470.3,457.9z"/>
	<path fill="#0B080D" d="M467.3,466.3v-0.2v-1l-1.6,1.6v0l-3.5,3.5c0.3,0.1,0.7,0.2,1,0.2C465.5,470.3,467.3,468.5,467.3,466.3z"/>
	<path fill="#0B080D" d="M470.3,466.3L470.3,466.3c0-0.6-0.4-1-1-1c-0.6,0-1,0.4-1,1l0,0c0,2.8-2.2,5-5,5c-0.6,0-1.3-0.1-1.8-0.4
		l-1.5,1.5c0.7,0.4,1.2,1,2.1,1.1v1h-2c-0.6,0-1,0.4-1,1c0,0.6,0.4,1,1,1h6c0.6,0,1-0.4,1-1c0-0.6-0.4-1-1-1h-2v-1
		C467.4,473.1,470.3,469.8,470.3,466.3z"/>
</g>
<g>
	<rect x="453.7" y="515.9" opacity="0" fill="#0B080D" width="24" height="24"/>
	<g>
		<path d="M468.7,533.9h-10c-1.1,0-2-0.9-2-2v-8c0-1.1,0.9-2,2-2h10c1.1,0,2,0.9,2,2l0,8C470.7,533,469.8,533.9,468.7,533.9z"/>
	</g>
	<path d="M474.1,522.9l-2.5,2v6l2.5,2c0.8,0,1.5-1.3,1.5-2v-6C475.7,524.1,474.9,522.9,474.1,522.9z"/>
</g>
<g>
	<rect x="407.3" y="454.9" opacity="0" fill="#0B080D" width="24" height="24"/>
	<path d="M416.8,458.6v1.8l0.9,7c0.1,0.8,0.8,1.5,1.6,1.5h0c0.8,0,1.6-0.6,1.6-1.5l0.9-7v-1.8c0-1.1-0.9-2-2-2h-1
		C417.7,456.6,416.8,457.5,416.8,458.6z"/>
	<circle cx="419.3" cy="472.9" r="2"/>
</g>
<g>
	<rect x="124" y="454.9" opacity="0" fill="#0B080D" width="24" height="24"/>
	<path fill="#0B080D" d="M127.9,459.5c0,0.8,0.2,5.2,5.3,10.3c5.1,5.1,9.5,5.2,10.3,5.3c0.3,0,0.4,0,0.5-0.2
		c0.5-0.9,1.9-3.5,1.9-3.5c0-0.2-0.1-0.4-0.3-0.5l-3.9-2.7c-0.2-0.1-0.4-0.1-0.5,0c0,0-0.4,0.4-0.7,0.7c-0.7,0.7-2.4-0.4-4.2-2.2
		c-1.8-1.8-2.8-3.5-2.2-4.2c0.2-0.2,0.6-0.6,0.7-0.7c0.1-0.1,0.1-0.3,0-0.5l-2.7-3.9c-0.1-0.2-0.3-0.3-0.5-0.3c0,0-2.7,1.4-3.5,1.9
		C128,459.2,127.9,459.2,127.9,459.5z"/>
</g>
<g>
	<rect x="171" y="454.9" opacity="0" fill="#0B080D" width="24" height="24"/>
	<polygon points="188,457.9 186,459.9 188,461.9 183,461.9 183,464.9 188,464.9 186,466.9 188,468.9 192.8,463.4 	"/>
	<path fill="#0B080D" d="M171.3,462.7c0,0.9,0.2,5.4,5.5,10.7c5.3,5.3,9.8,5.4,10.7,5.5c0.3,0,0.4,0,0.5-0.2c0.5-0.9,2-3.7,2-3.7
		c0-0.2-0.1-0.4-0.3-0.6l-4.1-2.8c-0.2-0.1-0.4-0.1-0.5,0c0,0-0.4,0.4-0.7,0.7c-0.7,0.7-2.5-0.4-4.4-2.2c-1.9-1.9-2.9-3.7-2.2-4.4
		c0.2-0.2,0.6-0.6,0.7-0.7c0.1-0.1,0.1-0.3,0-0.5l-2.8-4.1c-0.1-0.2-0.4-0.3-0.6-0.3c0,0-2.8,1.5-3.7,2
		C171.3,462.3,171.3,462.4,171.3,462.7z"/>
</g>
<g>
	<rect x="411" y="516.9" opacity="0" fill="#0B080D" width="24" height="24"/>
	<path fill="#0B080D" d="M419,536.9h-1c-1.1,0-2-0.9-2-2v-12c0-1.1,0.9-2,2-2h1c1.1,0,2,0.9,2,2v12C421,536,420.1,536.9,419,536.9z"
		/>
	<path fill="#0B080D" d="M427,536.9h-1c-1.1,0-2-0.9-2-2v-12c0-1.1,0.9-2,2-2h1c1.1,0,2,0.9,2,2v12C429,536,428.1,536.9,427,536.9z"
		/>
</g>
<rect x="363" y="516.9" opacity="0" fill="#0B080D" width="24" height="24"/>
<g>
	<rect x="219" y="454.9" opacity="0" fill="#0B080D" width="24" height="24"/>
	<g>
		<rect x="234" y="457.9" fill="#0B080D" width="3" height="9"/>
		<rect x="231" y="460.9" fill="#0B080D" width="9" height="3"/>
	</g>
	<path fill="#0B080D" d="M219.3,462.4c0,0.9,0.2,5.4,5.5,10.7c5.3,5.3,9.8,5.4,10.7,5.5c0.3,0,0.4,0,0.5-0.2c0.5-0.9,2-3.7,2-3.7
		c0-0.2-0.1-0.4-0.3-0.6l-4.1-2.8c-0.2-0.1-0.4-0.1-0.5,0c0,0-0.4,0.4-0.7,0.7c-0.7,0.7-2.5-0.4-4.4-2.2c-1.9-1.9-2.9-3.7-2.2-4.4
		c0.2-0.2,0.6-0.6,0.7-0.7c0.1-0.1,0.1-0.3,0-0.5l-2.8-4.1c-0.1-0.2-0.4-0.3-0.6-0.3c0,0-2.8,1.5-3.7,2
		C219.3,462,219.3,462.1,219.3,462.4z"/>
</g>
<g>
	<rect x="364" y="454.9" opacity="0" fill="#0B080D" width="24" height="24"/>
	
		<rect x="370.7" y="465.3" transform="matrix(0.7071 -0.7071 0.7071 0.7071 -222.5717 401.2476)" fill="#0B080D" width="4.7" height="8"/>
	
		<rect x="371.5" y="465.9" transform="matrix(0.7071 -0.7071 0.7071 0.7071 -219.9985 404.9348)" fill="#0B080D" width="14.6" height="4.3"/>
</g>
<g>
	<rect x="499" y="454.6" opacity="0" fill="#0B080D" width="24" height="24"/>
	<path fill="#231F20" d="M511.6,459.3c2.5,0,4.5,2,4.5,4.5s-2,4.5-4.5,4.5c-2.5,0-4.5-2-4.5-4.5S509.1,459.3,511.6,459.3
		 M511.6,457.3c-3.6,0-6.5,2.9-6.5,6.5s2.9,6.5,6.5,6.5c3.6,0,6.5-2.9,6.5-6.5S515.2,457.3,511.6,457.3L511.6,457.3z"/>
	<path fill="#231F20" d="M514.9,469c-0.7-0.3-2.1-0.7-3.3-0.7c-1.2,0-2.4,0.3-3.3,0.7c-1.2,0.5-2.4,1.9-3.4,3.2
		c-0.9,1.3,0.1,3.1,1.8,3.1h9.8c1.7,0,2.7-1.8,1.8-3.1C517.2,470.9,516,469.5,514.9,469z"/>
</g>
<g>
	<rect x="171.9" y="516.9" opacity="0" width="24" height="24"/>
	<rect x="171.9" y="516.9" opacity="0" width="24" height="24"/>
	<path d="M193.8,535.9c0.6,0.6,0.7,1.4,0.2,1.9l-1.1,1.1c-0.5,0.5-1.3,0.4-1.9-0.2l-3.7-3.7c-0.6-0.6-0.7-1.4-0.2-1.9l1.1-1.1
		c0.5-0.5,1.3-0.4,1.9,0.2L193.8,535.9z"/>
	<path d="M180.9,517.9c-4.4,0-8,3.6-8,8s3.6,8,8,8s8-3.6,8-8S185.3,517.9,180.9,517.9z M181,530.9c-2.8,0-5-2.2-5-5s2.2-5,5-5
		s5,2.2,5,5S183.8,530.9,181,530.9z"/>
</g>
<g>
	<rect x="273" y="460.9" opacity="0" fill="#0B080D" width="12" height="12"/>
	<rect x="277.3" y="461.6" transform="matrix(-0.7071 -0.7071 0.7071 -0.7071 145.7275 994.4855)" width="3" height="11"/>
	<polygon points="276,460.9 276,463.9 282,463.9 282,469.9 285,469.9 285,463.9 285,460.9 	"/>
</g>
<g>
	<rect x="320" y="462.9" opacity="0" fill="#0B080D" width="11" height="11"/>
	<rect x="320" y="463.9" width="3" height="10"/>
	<rect x="324.7" y="462.2" transform="matrix(0.7071 0.7071 -0.7071 0.7071 426.2603 -93.6466)" width="3" height="11"/>
	<rect x="320" y="470.9" width="10" height="3"/>
</g>
<g>
	<rect x="289" y="440.9" opacity="0" fill="#0B080D" width="8" height="8"/>
	<rect x="291.6" y="441.2" transform="matrix(-0.7071 -0.7071 0.7071 -0.7071 184.6143 967.0643)" width="2" height="8.2"/>
	<polygon points="290,440.9 290,442.9 295,442.9 295,447.9 297,447.9 297,442.9 297,440.9 	"/>
</g>
<g>
	<rect x="317" y="440" opacity="0" fill="#0B080D" width="7.9" height="7.9"/>
	<rect x="317" y="440.9" width="2" height="7"/>
	<rect x="320.4" y="439.5" transform="matrix(0.7071 0.7071 -0.7071 0.7071 407.7143 -97.4084)" width="2.2" height="7.9"/>
	<rect x="317" y="445.9" width="7" height="2"/>
</g>
<g>
	<rect x="217.7" y="516.9" opacity="0" width="24" height="24"/>
	<g>
		<rect x="234.7" y="524.9" width="3" height="9"/>
		<rect x="231.7" y="527.9" width="9" height="3"/>
	</g>
	<path d="M225.2,520.9c-2.5,0-4.5,2-4.5,4.5c0,2.5,2,4.5,4.5,4.5c2.5,0,4.5-2,4.5-4.5C229.7,522.9,227.7,520.9,225.2,520.9
		L225.2,520.9z"/>
	<path d="M228.2,530.7c-0.7-0.3-1.9-0.7-3.1-0.7c-1.1,0-2.3,0.3-3.1,0.7c-1.1,0.5-2.2,1.8-3.1,3.1c-0.9,1.3,0.1,3,1.6,3h9.1
		c1.6,0,2.5-1.7,1.6-3C230.4,532.5,229.3,531.2,228.2,530.7z"/>
</g>
<g>
	<rect x="267" y="516.9" opacity="0" fill="#0B080D" width="24" height="24"/>
	<path d="M289,519.9h-19v5h2v-3h15v11h-15v-3h-2v5h7v2h-2v2h9v-2h-2v-2h7V519.9z"/>
	<g>
		<polygon fill="#0B080D" points="279,527.6 274,523.9 274,525.9 269,525.9 269,528.9 274,528.9 274,531.4 		"/>
	</g>
</g>
<g>
	<rect x="86.7" y="454.6" opacity="0" fill="#0B080D" width="24" height="24"/>
	<path fill="#0B080D" d="M109.6,466.1c-0.6-0.6-3.8-3.6-11-3.6s-10.4,3-11,3.6c-0.2,0.2-0.3,0.3-0.2,0.5c0.3,1,1.1,3.9,1.1,3.9
		c0.1,0.2,0.4,0.3,0.6,0.2l4.7-0.9c0.2-0.1,0.3-0.2,0.3-0.4c0-0.1,0-0.6,0-0.9c0-1,1.9-1.4,4.5-1.4c2.5,0,4.5,0.5,4.5,1.4
		c0,0.3,0,0.9,0,0.9c0,0.2,0.1,0.3,0.3,0.4l4.7,0.9c0.2,0.1,0.5,0,0.6-0.2c0,0,0.9-2.9,1.1-3.9C109.8,466.4,109.8,466.3,109.6,466.1
		z"/>
</g>
<g>
	<rect x="315" y="516.9" opacity="0" width="24" height="24"/>
	<path fill="#0B080D" d="M320.5,529.9c-3,0-5.5,2.5-5.5,5.5s2.5,5.5,5.5,5.5s5.5-2.5,5.5-5.5S323.5,529.9,320.5,529.9z M320.5,537.9
		c-1.4,0-2.5-1.1-2.5-2.5c0-1.4,1.1-2.5,2.5-2.5s2.5,1.1,2.5,2.5C323,536.8,321.9,537.9,320.5,537.9z"/>
	<path fill="#0B080D" d="M333.5,529.9c-3,0-5.5,2.5-5.5,5.5s2.5,5.5,5.5,5.5s5.5-2.5,5.5-5.5S336.5,529.9,333.5,529.9z M333.5,537.9
		c-1.4,0-2.5-1.1-2.5-2.5c0-1.4,1.1-2.5,2.5-2.5s2.5,1.1,2.5,2.5C336,536.8,334.9,537.9,333.5,537.9z"/>
	<rect x="320" y="537.9" fill="#0B080D" width="13" height="3"/>
</g>
<rect x="124" y="516.9" opacity="0" width="24" height="24"/>
<rect x="124" y="516.9" opacity="0" width="24" height="24"/>
<path d="M146,530.9v-4h-2.2c-0.2-0.7-0.5-1.4-0.9-2.1l1.5-1.5l-2.8-2.8l-1.5,1.5c-0.6-0.4-1.3-0.7-2.1-0.8v-2.3h-4v2.3
	c-0.7,0.2-1.4,0.5-2.1,0.8l-1.5-1.5l-2.8,2.8l1.5,1.5c-0.4,0.6-0.7,1.3-0.8,2.1H126v4h2.3c0.2,0.7,0.5,1.4,0.9,2l-1.5,1.5l2.8,2.8
	l1.5-1.5c0.6,0.4,1.3,0.7,2.1,0.9v2.3h4v-2.3c0.7-0.2,1.4-0.5,2-0.9l1.6,1.6l2.8-2.8l-1.6-1.6c0.4-0.6,0.7-1.3,0.9-2H146z
	 M136,532.8c-2.2,0-4-1.9-4-4c0-2.2,1.8-3.9,4-3.9c2.2,0,4,1.7,4,3.9C140,531,138.2,532.8,136,532.8z"/>
<g>
	<rect x="363" y="516.9" opacity="0" fill="#0B080D" width="24" height="24"/>
	<path fill="#0B080D" d="M379.7,530.7l-7.2,4.6c-1.5,1-3.5-0.1-3.5-1.9v-9.2c0-1.8,2-2.9,3.5-1.9l7.2,4.6
		C381.1,527.7,381.1,529.8,379.7,530.7z"/>
</g>
<g>
	<rect x="363" y="577.9" opacity="0" fill="#0B080D" width="24" height="24"/>
	<path fill="#0B080D" d="M379,595.9h-8c-1.1,0-2-0.9-2-2v-8c0-1.1,0.9-2,2-2h8c1.1,0,2,0.9,2,2v8C381,595,380.1,595.9,379,595.9z"/>
</g>
<g>
	<rect x="499.6" y="515.9" opacity="0" fill="#0B080D" width="24" height="24"/>
	<circle cx="506" cy="520.9" r="2"/>
	<circle cx="512" cy="520.9" r="2"/>
	<circle cx="518" cy="520.9" r="2"/>
	<circle cx="518" cy="525.9" r="2"/>
	<circle cx="518" cy="530.9" r="2"/>
	<circle cx="512" cy="530.9" r="2"/>
	<circle cx="512" cy="525.9" r="2"/>
	<circle cx="506" cy="525.9" r="2"/>
	<circle cx="506" cy="530.9" r="2"/>
	<circle cx="512" cy="535.9" r="2"/>
</g>
<g>
	<rect x="86" y="515.9" opacity="0" fill="#0B080D" width="24" height="24"/>
	<circle cx="98" cy="521.9" r="2"/>
	<circle cx="98" cy="533.9" r="2"/>
	<circle cx="98" cy="527.9" r="2"/>
</g>
<g>
	<rect x="317" y="577.9" opacity="0" fill="#0B080D" width="24" height="24"/>
	<g>
		<path fill="#0B080D" d="M327.1,593.3l-2.8-2.8c-0.4-0.4-0.4-1,0-1.4l0,0c0.4-0.4,1-0.4,1.4,0l2.8,2.8c0.4,0.4,0.4,1,0,1.4l0,0
			C328.1,593.6,327.5,593.6,327.1,593.3z"/>
		<path fill="#0B080D" d="M327.1,593.3L327.1,593.3c-0.4-0.4-0.4-1,0-1.4l5.7-5.7c0.4-0.4,1-0.4,1.4,0l0,0c0.4,0.4,0.4,1,0,1.4
			l-5.7,5.7C328.1,593.6,327.5,593.6,327.1,593.3z"/>
	</g>
</g>
<g>
	<rect x="268" y="577.9" opacity="0" fill="#0B080D" width="24" height="24"/>
	<path fill="#0B080D" d="M275.4,594.5L275.4,594.5c-0.4-0.4-0.4-1,0-1.4l7.8-7.8c0.4-0.4,1-0.4,1.4,0l0,0c0.4,0.4,0.4,1,0,1.4
		l-7.8,7.8C276.4,594.9,275.8,594.9,275.4,594.5z"/>
	<path fill="#0B080D" d="M275.4,585.3L275.4,585.3c0.4-0.4,1-0.4,1.4,0l7.8,7.8c0.4,0.4,0.4,1,0,1.4l0,0c-0.4,0.4-1,0.4-1.4,0
		l-7.8-7.8C275,586.3,275,585.7,275.4,585.3z"/>
</g>
</svg>
