<?xml version="1.0" encoding="utf-8"?>
<!-- Generator: Adobe Illustrator 18.1.0, SVG Export Plug-In . SVG Version: 6.00 Build 0)  -->
<!DOCTYPE svg PUBLIC "-//W3C//DTD SVG 1.1//EN" "http://www.w3.org/Graphics/SVG/1.1/DTD/svg11.dtd">
<svg version="1.1" id="Layer_1" xmlns="http://www.w3.org/2000/svg" xmlns:xlink="http://www.w3.org/1999/xlink" x="0px" y="0px"
	 viewBox="0 0 24 24" enable-background="new 0 0 24 24" xml:space="preserve">
<g>
	<rect x="88" y="-123.3" opacity="0" fill="#0B080D" width="24" height="24"/>
	<path fill="#0B080D" d="M107.3-120c-0.4-0.4-1-0.4-1.4,0l0,0l-1.7,1.7c-0.4-1.9-2-3.3-3.9-3.3c-1.1,0-2.1,0.5-2.8,1.2c0,0,0,0,0,0
		c-0.2,0.2-0.3,0.4-0.5,0.6c-0.1,0.1-0.2,0.3-0.2,0.4c0,0.1-0.1,0.2-0.1,0.2c-0.2,0.5-0.3,1-0.3,1.6v6c0,0.4,0.1,0.7,0.2,1l-0.8,0.8
		c-0.2-0.6-0.4-1.2-0.4-1.8h0c0-0.6-0.4-1-1-1c-0.6,0-1,0.4-1,1c0,0,0,0,0,0c0,1.2,0.3,2.3,0.8,3.3l-2.3,2.3l0,0
		c-0.3,0.4-0.3,1,0,1.4c0.4,0.4,1,0.4,1.4,0l0,0l0,0c0,0,0,0,0,0s0,0,0,0l2.1-2.1l0,0l1.4-1.4l0,0l1.4-1.4l0,0l5.1-5.1v0l4-4
		c0,0,0,0,0,0C107.7-119,107.7-119.6,107.3-120z"/>
	<path fill="#0B080D" d="M104.3-111.6v-0.2v-1l-1.6,1.6v0l-3.5,3.5c0.3,0.1,0.7,0.2,1,0.2C102.5-107.6,104.3-109.4,104.3-111.6z"/>
	<path fill="#0B080D" d="M107.3-111.6L107.3-111.6c0-0.6-0.4-1-1-1c-0.6,0-1,0.4-1,1l0,0c0,2.8-2.2,5-5,5c-0.6,0-1.3-0.1-1.8-0.4
		l-1.5,1.5c0.7,0.4,1.2,1,2.1,1.1v1h-2c-0.6,0-1,0.4-1,1c0,0.6,0.4,1,1,1h6c0.6,0,1-0.4,1-1c0-0.6-0.4-1-1-1h-2v-1
		C104.4-104.8,107.3-108.1,107.3-111.6z"/>
</g>
<g>
	<rect x="90.7" y="-62" opacity="0" fill="#0B080D" width="24" height="24"/>
	<g>
		<path d="M105.7-44h-10c-1.1,0-2-0.9-2-2v-8c0-1.1,0.9-2,2-2h10c1.1,0,2,0.9,2,2l0,8C107.7-44.9,106.8-44,105.7-44z"/>
	</g>
	<path d="M111.1-55l-2.5,2v6l2.5,2c0.8,0,1.5-1.3,1.5-2v-6C112.7-53.7,111.9-55,111.1-55z"/>
</g>
<g>
	<rect x="44.3" y="-123" opacity="0" fill="#0B080D" width="24" height="24"/>
	<path d="M53.8-119.2v1.8l0.9,7c0.1,0.8,0.8,1.5,1.6,1.5h0c0.8,0,1.6-0.6,1.6-1.5l0.9-7v-1.8c0-1.1-0.9-2-2-2h-1
		C54.7-121.2,53.8-120.4,53.8-119.2z"/>
	<circle cx="56.3" cy="-105" r="2"/>
</g>
<g>
	<rect x="-239" y="-123" opacity="0" fill="#0B080D" width="24" height="24"/>
	<path fill="#0B080D" d="M-235.1-118.3c0,0.8,0.2,5.2,5.3,10.3s9.5,5.2,10.3,5.3c0.3,0,0.4,0,0.5-0.2c0.5-0.9,1.9-3.5,1.9-3.5
		c0-0.2-0.1-0.4-0.3-0.5l-3.9-2.7c-0.2-0.1-0.4-0.1-0.5,0c0,0-0.4,0.4-0.7,0.7c-0.7,0.7-2.4-0.4-4.2-2.2c-1.8-1.8-2.8-3.5-2.2-4.2
		c0.2-0.2,0.6-0.6,0.7-0.7c0.1-0.1,0.1-0.3,0-0.5l-2.7-3.9c-0.1-0.2-0.3-0.3-0.5-0.3c0,0-2.7,1.4-3.5,1.9
		C-235-118.7-235.1-118.6-235.1-118.3z"/>
</g>
<g>
	<rect x="-192" y="-123" opacity="0" fill="#0B080D" width="24" height="24"/>
	<polygon points="-175,-120 -177,-118 -175,-116 -180,-116 -180,-113 -175,-113 -177,-111 -175,-109 -170.2,-114.5 	"/>
	<path fill="#0B080D" d="M-191.7-115.2c0,0.9,0.2,5.4,5.5,10.7c5.3,5.3,9.8,5.4,10.7,5.5c0.3,0,0.4,0,0.5-0.2c0.5-0.9,2-3.7,2-3.7
		c0-0.2-0.1-0.4-0.3-0.6l-4.1-2.8c-0.2-0.1-0.4-0.1-0.5,0c0,0-0.4,0.4-0.7,0.7c-0.7,0.7-2.5-0.4-4.4-2.2c-1.9-1.9-2.9-3.7-2.2-4.4
		c0.2-0.2,0.6-0.6,0.7-0.7c0.1-0.1,0.1-0.3,0-0.5l-2.8-4.1c-0.1-0.2-0.4-0.3-0.6-0.3c0,0-2.8,1.5-3.7,2
		C-191.7-115.6-191.7-115.5-191.7-115.2z"/>
</g>
<g>
	<rect x="48" y="-61" opacity="0" fill="#0B080D" width="24" height="24"/>
	<path fill="#0B080D" d="M56-41h-1c-1.1,0-2-0.9-2-2v-12c0-1.1,0.9-2,2-2h1c1.1,0,2,0.9,2,2v12C58-41.9,57.1-41,56-41z"/>
	<path fill="#0B080D" d="M64-41h-1c-1.1,0-2-0.9-2-2v-12c0-1.1,0.9-2,2-2h1c1.1,0,2,0.9,2,2v12C66-41.9,65.1-41,64-41z"/>
</g>
<rect x="0" y="-61" opacity="0" fill="#0B080D" width="24" height="24"/>
<g>
	<rect x="-144" y="-123" opacity="0" fill="#0B080D" width="24" height="24"/>
	<g>
		<rect x="-129" y="-120" fill="#0B080D" width="3" height="9"/>
		<rect x="-132" y="-117" fill="#0B080D" width="9" height="3"/>
	</g>
	<path fill="#0B080D" d="M-143.7-115.5c0,0.9,0.2,5.4,5.5,10.7c5.3,5.3,9.8,5.4,10.7,5.5c0.3,0,0.4,0,0.5-0.2c0.5-0.9,2-3.7,2-3.7
		c0-0.2-0.1-0.4-0.3-0.6l-4.1-2.8c-0.2-0.1-0.4-0.1-0.5,0c0,0-0.4,0.4-0.7,0.7c-0.7,0.7-2.5-0.4-4.4-2.2c-1.9-1.9-2.9-3.7-2.2-4.4
		c0.2-0.2,0.6-0.6,0.7-0.7c0.1-0.1,0.1-0.3,0-0.5l-2.8-4.1c-0.1-0.2-0.4-0.3-0.6-0.3c0,0-2.8,1.5-3.7,2
		C-143.7-115.9-143.7-115.8-143.7-115.5z"/>
</g>
<g>
	<rect x="1" y="-123" opacity="0" fill="#0B080D" width="24" height="24"/>
	
		<rect x="7.7" y="-112.6" transform="matrix(0.7071 -0.7071 0.7071 0.7071 79.738 -24.6922)" fill="#0B080D" width="4.7" height="8"/>
	
		<rect x="8.5" y="-112" transform="matrix(0.7071 -0.7071 0.7071 0.7071 82.3112 -21.005)" fill="#0B080D" width="14.6" height="4.3"/>
</g>
<g>
	<rect x="136" y="-123.3" opacity="0" fill="#0B080D" width="24" height="24"/>
	<path fill="#231F20" d="M148.6-118.6c2.5,0,4.5,2,4.5,4.5s-2,4.5-4.5,4.5s-4.5-2-4.5-4.5S146.1-118.6,148.6-118.6 M148.6-120.6
		c-3.6,0-6.5,2.9-6.5,6.5s2.9,6.5,6.5,6.5c3.6,0,6.5-2.9,6.5-6.5S152.2-120.6,148.6-120.6L148.6-120.6z"/>
	<path fill="#231F20" d="M151.9-108.9c-0.7-0.3-2.1-0.7-3.3-0.7c-1.2,0-2.4,0.3-3.3,0.7c-1.2,0.5-2.4,1.9-3.4,3.2
		c-0.9,1.3,0.1,3.1,1.8,3.1h9.8c1.7,0,2.7-1.8,1.8-3.1C154.2-107,153-108.4,151.9-108.9z"/>
</g>
<g>
	<rect x="-191.1" y="-61" opacity="0" width="24" height="24"/>
	<rect x="-191.1" y="-61" opacity="0" width="24" height="24"/>
	<path d="M-169.2-42c0.6,0.6,0.7,1.4,0.2,1.9l-1.1,1.1c-0.5,0.5-1.3,0.4-1.9-0.2l-3.7-3.7c-0.6-0.6-0.7-1.4-0.2-1.9l1.1-1.1
		c0.5-0.5,1.3-0.4,1.9,0.2L-169.2-42z"/>
	<path d="M-182.1-60c-4.4,0-8,3.6-8,8s3.6,8,8,8s8-3.6,8-8S-177.7-60-182.1-60z M-182-47c-2.8,0-5-2.2-5-5s2.2-5,5-5s5,2.2,5,5
		S-179.2-47-182-47z"/>
</g>
<g>
	<rect x="-96" y="-123" opacity="0" fill="#0B080D" width="24" height="24"/>
	<rect x="-85.7" y="-116.3" transform="matrix(-0.7071 -0.7071 0.7071 -0.7071 -65.3223 -248.7142)" width="3" height="11"/>
	<polygon points="-87,-117 -87,-114 -81,-114 -81,-108 -78,-108 -78,-114 -78,-117 	"/>
</g>
<g>
	<rect x="-48" y="-123" opacity="0" fill="#0B080D" width="24" height="24"/>
	<rect x="-43" y="-114" width="3" height="10"/>
	<rect x="-38.3" y="-115.7" transform="matrix(0.7071 0.7071 -0.7071 0.7071 -88.6899 -6.2269)" width="3" height="11"/>
	<rect x="-43" y="-107" width="10" height="3"/>
</g>
<g>
	<rect x="-145.3" y="-61" opacity="0" width="24" height="24"/>
	<g>
		<rect x="-128.3" y="-53" width="3" height="9"/>
		<rect x="-131.3" y="-50" width="9" height="3"/>
	</g>
	<path d="M-137.8-57c-2.5,0-4.5,2-4.5,4.5s2,4.5,4.5,4.5c2.5,0,4.5-2,4.5-4.5S-135.3-57-137.8-57L-137.8-57z"/>
	<path d="M-134.8-47.2c-0.7-0.3-1.9-0.7-3.1-0.7c-1.1,0-2.3,0.3-3.1,0.7c-1.1,0.5-2.2,1.8-3.1,3.1c-0.9,1.3,0.1,3,1.6,3h9.1
		c1.6,0,2.5-1.7,1.6-3C-132.6-45.4-133.7-46.7-134.8-47.2z"/>
</g>
<g>
	<rect x="-96" y="-61" opacity="0" fill="#0B080D" width="24" height="24"/>
	<path d="M-74-58h-19v5h2v-3h15v11h-15v-3h-2v5h7v2h-2v2h9v-2h-2v-2h7V-58z"/>
	<g>
		<polygon fill="#0B080D" points="-84,-50.3 -89,-54 -89,-52 -94,-52 -94,-49 -89,-49 -89,-46.5 		"/>
	</g>
</g>
<g>
	<rect x="-276.3" y="-123.3" opacity="0" fill="#0B080D" width="24" height="24"/>
	<path fill="#0B080D" d="M-253.4-111.8c-0.6-0.6-3.8-3.6-11-3.6c-7.2,0-10.4,3-11,3.6c-0.2,0.2-0.3,0.3-0.2,0.5
		c0.3,1,1.1,3.9,1.1,3.9c0.1,0.2,0.4,0.3,0.6,0.2l4.7-0.9c0.2-0.1,0.3-0.2,0.3-0.4c0-0.1,0-0.6,0-0.9c0-1,1.9-1.4,4.5-1.4
		c2.5,0,4.5,0.5,4.5,1.4c0,0.3,0,0.9,0,0.9c0,0.2,0.1,0.3,0.3,0.4l4.7,0.9c0.2,0.1,0.5,0,0.6-0.2c0,0,0.9-2.9,1.1-3.9
		C-253.2-111.5-253.2-111.6-253.4-111.8z"/>
</g>
<g>
	<rect x="-48" y="-61" opacity="0" width="24" height="24"/>
	<path fill="#0B080D" d="M-42.5-48c-3,0-5.5,2.5-5.5,5.5s2.5,5.5,5.5,5.5s5.5-2.5,5.5-5.5S-39.5-48-42.5-48z M-42.5-40
		c-1.4,0-2.5-1.1-2.5-2.5s1.1-2.5,2.5-2.5s2.5,1.1,2.5,2.5S-41.1-40-42.5-40z"/>
	<path fill="#0B080D" d="M-29.5-48c-3,0-5.5,2.5-5.5,5.5s2.5,5.5,5.5,5.5s5.5-2.5,5.5-5.5S-26.5-48-29.5-48z M-29.5-40
		c-1.4,0-2.5-1.1-2.5-2.5s1.1-2.5,2.5-2.5s2.5,1.1,2.5,2.5S-28.1-40-29.5-40z"/>
	<rect x="-43" y="-40" fill="#0B080D" width="13" height="3"/>
</g>
<rect x="-239" y="-61" opacity="0" width="24" height="24"/>
<rect x="-239" y="-61" opacity="0" width="24" height="24"/>
<path d="M-217-47v-4h-2.2c-0.2-0.7-0.5-1.4-0.9-2.1l1.5-1.5l-2.8-2.8l-1.5,1.5c-0.6-0.4-1.3-0.7-2.1-0.8V-59h-4v2.3
	c-0.7,0.2-1.4,0.5-2.1,0.8l-1.5-1.5l-2.8,2.8l1.5,1.5c-0.4,0.6-0.7,1.3-0.8,2.1h-2.2v4h2.3c0.2,0.7,0.5,1.4,0.9,2l-1.5,1.5l2.8,2.8
	l1.5-1.5c0.6,0.4,1.3,0.7,2.1,0.9v2.3h4v-2.3c0.7-0.2,1.4-0.5,2-0.9l1.6,1.6l2.8-2.8l-1.6-1.6c0.4-0.6,0.7-1.3,0.9-2H-217z
	 M-227-45.1c-2.2,0-4-1.9-4-4c0-2.2,1.8-3.9,4-3.9c2.2,0,4,1.7,4,3.9C-223-46.9-224.8-45.1-227-45.1z"/>
<g>
	<rect x="0" y="-61" opacity="0" fill="#0B080D" width="24" height="24"/>
	<path fill="#0B080D" d="M16.7-47.2l-7.2,4.6C8-41.6,6-42.7,6-44.5v-9.2c0-1.8,2-2.9,3.5-1.9l7.2,4.6C18.1-50.1,18.1-48.1,16.7-47.2
		z"/>
</g>
<g>
	<rect x="0" opacity="0" fill="#0B080D" width="24" height="24"/>
	<path fill="#0B080D" d="M16,18H8c-1.1,0-2-0.9-2-2V8c0-1.1,0.9-2,2-2h8c1.1,0,2,0.9,2,2v8C18,17.1,17.1,18,16,18z"/>
</g>
<g>
	<rect x="136.6" y="-62" opacity="0" fill="#0B080D" width="24" height="24"/>
	<circle cx="143" cy="-57" r="2"/>
	<circle cx="149" cy="-57" r="2"/>
	<circle cx="155" cy="-57" r="2"/>
	<circle cx="155" cy="-52" r="2"/>
	<circle cx="155" cy="-47" r="2"/>
	<circle cx="149" cy="-47" r="2"/>
	<circle cx="149" cy="-52" r="2"/>
	<circle cx="143" cy="-52" r="2"/>
	<circle cx="143" cy="-47" r="2"/>
	<circle cx="149" cy="-42" r="2"/>
</g>
</svg>
