<?xml version="1.0" encoding="utf-8"?>
<!-- Generator: Adobe Illustrator 18.1.0, SVG Export Plug-In . SVG Version: 6.00 Build 0)  -->
<!DOCTYPE svg PUBLIC "-//W3C//DTD SVG 1.1//EN" "http://www.w3.org/Graphics/SVG/1.1/DTD/svg11.dtd">
<svg version="1.1" id="Layer_1" xmlns="http://www.w3.org/2000/svg" xmlns:xlink="http://www.w3.org/1999/xlink" x="0px" y="0px"
	 viewBox="0 0 24 24" enable-background="new 0 0 24 24" xml:space="preserve">
<g>
	<rect x="136" y="-62.3" opacity="0" fill="#0B080D" width="24" height="24"/>
	<path fill="#0B080D" d="M155.3-59c-0.4-0.4-1-0.4-1.4,0l0,0l-1.7,1.7c-0.4-1.9-2-3.3-3.9-3.3c-1.1,0-2.1,0.5-2.8,1.2c0,0,0,0,0,0
		c-0.2,0.2-0.3,0.4-0.5,0.6c-0.1,0.1-0.2,0.3-0.2,0.4c0,0.1-0.1,0.2-0.1,0.2c-0.2,0.5-0.3,1-0.3,1.6v6c0,0.4,0.1,0.7,0.2,1l-0.8,0.8
		c-0.2-0.6-0.4-1.2-0.4-1.8h0c0-0.6-0.4-1-1-1c-0.6,0-1,0.4-1,1c0,0,0,0,0,0c0,1.2,0.3,2.3,0.8,3.3l-2.3,2.3l0,0
		c-0.3,0.4-0.3,1,0,1.4c0.4,0.4,1,0.4,1.4,0l0,0l0,0c0,0,0,0,0,0s0,0,0,0l2.1-2.1l0,0l1.4-1.4l0,0l1.4-1.4l0,0l5.1-5.1v0l4-4
		c0,0,0,0,0,0C155.7-58,155.7-58.6,155.3-59z"/>
	<path fill="#0B080D" d="M152.3-50.6v-0.2v-1l-1.6,1.6v0l-3.5,3.5c0.3,0.1,0.7,0.2,1,0.2C150.5-46.6,152.3-48.4,152.3-50.6z"/>
	<path fill="#0B080D" d="M155.3-50.6L155.3-50.6c0-0.6-0.4-1-1-1c-0.6,0-1,0.4-1,1l0,0c0,2.8-2.2,5-5,5c-0.6,0-1.3-0.1-1.8-0.4
		l-1.5,1.5c0.7,0.4,1.2,1,2.1,1.1v1h-2c-0.6,0-1,0.4-1,1c0,0.6,0.4,1,1,1h6c0.6,0,1-0.4,1-1c0-0.6-0.4-1-1-1h-2v-1
		C152.4-43.8,155.3-47.1,155.3-50.6z"/>
</g>
<g>
	<rect x="138.7" y="-1" opacity="0" fill="#0B080D" width="24" height="24"/>
	<g>
		<path d="M153.7,17h-10c-1.1,0-2-0.9-2-2V7c0-1.1,0.9-2,2-2h10c1.1,0,2,0.9,2,2l0,8C155.7,16.1,154.8,17,153.7,17z"/>
	</g>
	<path d="M159.1,6l-2.5,2v6l2.5,2c0.8,0,1.5-1.3,1.5-2V8C160.7,7.3,159.9,6,159.1,6z"/>
</g>
<g>
	<rect x="92.3" y="-62" opacity="0" fill="#0B080D" width="24" height="24"/>
	<path d="M101.8-58.2v1.8l0.9,7c0.1,0.8,0.8,1.5,1.6,1.5h0c0.8,0,1.6-0.6,1.6-1.5l0.9-7v-1.8c0-1.1-0.9-2-2-2h-1
		C102.7-60.2,101.8-59.4,101.8-58.2z"/>
	<circle cx="104.3" cy="-44" r="2"/>
</g>
<g>
	<rect x="-191" y="-62" opacity="0" fill="#0B080D" width="24" height="24"/>
	<path fill="#0B080D" d="M-187.1-57.3c0,0.8,0.2,5.2,5.3,10.3s9.5,5.2,10.3,5.3c0.3,0,0.4,0,0.5-0.2c0.5-0.9,1.9-3.5,1.9-3.5
		c0-0.2-0.1-0.4-0.3-0.5l-3.9-2.7c-0.2-0.1-0.4-0.1-0.5,0c0,0-0.4,0.4-0.7,0.7c-0.7,0.7-2.4-0.4-4.2-2.2c-1.8-1.8-2.8-3.5-2.2-4.2
		c0.2-0.2,0.6-0.6,0.7-0.7c0.1-0.1,0.1-0.3,0-0.5l-2.7-3.9c-0.1-0.2-0.3-0.3-0.5-0.3c0,0-2.7,1.4-3.5,1.9
		C-187-57.7-187.1-57.6-187.1-57.3z"/>
</g>
<g>
	<rect x="-144" y="-62" opacity="0" fill="#0B080D" width="24" height="24"/>
	<polygon points="-127,-59 -129,-57 -127,-55 -132,-55 -132,-52 -127,-52 -129,-50 -127,-48 -122.2,-53.5 	"/>
	<path fill="#0B080D" d="M-143.7-54.2c0,0.9,0.2,5.4,5.5,10.7c5.3,5.3,9.8,5.4,10.7,5.5c0.3,0,0.4,0,0.5-0.2c0.5-0.9,2-3.7,2-3.7
		c0-0.2-0.1-0.4-0.3-0.6l-4.1-2.8c-0.2-0.1-0.4-0.1-0.5,0c0,0-0.4,0.4-0.7,0.7c-0.7,0.7-2.5-0.4-4.4-2.2c-1.9-1.9-2.9-3.7-2.2-4.4
		c0.2-0.2,0.6-0.6,0.7-0.7c0.1-0.1,0.1-0.3,0-0.5l-2.8-4.1c-0.1-0.2-0.4-0.3-0.6-0.3c0,0-2.8,1.5-3.7,2
		C-143.7-54.6-143.7-54.5-143.7-54.2z"/>
</g>
<g>
	<rect x="96" opacity="0" fill="#0B080D" width="24" height="24"/>
	<path fill="#0B080D" d="M104,20h-1c-1.1,0-2-0.9-2-2V6c0-1.1,0.9-2,2-2h1c1.1,0,2,0.9,2,2v12C106,19.1,105.1,20,104,20z"/>
	<path fill="#0B080D" d="M112,20h-1c-1.1,0-2-0.9-2-2V6c0-1.1,0.9-2,2-2h1c1.1,0,2,0.9,2,2v12C114,19.1,113.1,20,112,20z"/>
</g>
<rect x="48" opacity="0" fill="#0B080D" width="24" height="24"/>
<g>
	<rect x="-96" y="-62" opacity="0" fill="#0B080D" width="24" height="24"/>
	<g>
		<rect x="-81" y="-59" fill="#0B080D" width="3" height="9"/>
		<rect x="-84" y="-56" fill="#0B080D" width="9" height="3"/>
	</g>
	<path fill="#0B080D" d="M-95.7-54.5c0,0.9,0.2,5.4,5.5,10.7c5.3,5.3,9.8,5.4,10.7,5.5c0.3,0,0.4,0,0.5-0.2c0.5-0.9,2-3.7,2-3.7
		c0-0.2-0.1-0.4-0.3-0.6l-4.1-2.8c-0.2-0.1-0.4-0.1-0.5,0c0,0-0.4,0.4-0.7,0.7c-0.7,0.7-2.5-0.4-4.4-2.2c-1.9-1.9-2.9-3.7-2.2-4.4
		c0.2-0.2,0.6-0.6,0.7-0.7c0.1-0.1,0.1-0.3,0-0.5l-2.8-4.1c-0.1-0.2-0.4-0.3-0.6-0.3c0,0-2.8,1.5-3.7,2
		C-95.7-54.9-95.7-54.8-95.7-54.5z"/>
</g>
<g>
	<rect x="49" y="-62" opacity="0" fill="#0B080D" width="24" height="24"/>
	
		<rect x="55.7" y="-51.6" transform="matrix(0.7071 -0.7071 0.7071 0.7071 50.6633 27.1154)" fill="#0B080D" width="4.7" height="8"/>
	
		<rect x="56.5" y="-51" transform="matrix(0.7071 -0.7071 0.7071 0.7071 53.2365 30.8026)" fill="#0B080D" width="14.6" height="4.3"/>
</g>
<g>
	<rect x="184" y="-62.3" opacity="0" fill="#0B080D" width="24" height="24"/>
	<path fill="#231F20" d="M196.6-57.6c2.5,0,4.5,2,4.5,4.5s-2,4.5-4.5,4.5s-4.5-2-4.5-4.5S194.1-57.6,196.6-57.6 M196.6-59.6
		c-3.6,0-6.5,2.9-6.5,6.5s2.9,6.5,6.5,6.5c3.6,0,6.5-2.9,6.5-6.5S200.2-59.6,196.6-59.6L196.6-59.6z"/>
	<path fill="#231F20" d="M199.9-47.9c-0.7-0.3-2.1-0.7-3.3-0.7c-1.2,0-2.4,0.3-3.3,0.7c-1.2,0.5-2.4,1.9-3.4,3.2
		c-0.9,1.3,0.1,3.1,1.8,3.1h9.8c1.7,0,2.7-1.8,1.8-3.1C202.2-46,201-47.4,199.9-47.9z"/>
</g>
<g>
	<rect x="-143.1" opacity="0" width="24" height="24"/>
	<rect x="-143.1" opacity="0" width="24" height="24"/>
	<path d="M-121.2,19c0.6,0.6,0.7,1.4,0.2,1.9l-1.1,1.1c-0.5,0.5-1.3,0.4-1.9-0.2l-3.7-3.7c-0.6-0.6-0.7-1.4-0.2-1.9l1.1-1.1
		c0.5-0.5,1.3-0.4,1.9,0.2L-121.2,19z"/>
	<path d="M-134.1,1c-4.4,0-8,3.6-8,8s3.6,8,8,8s8-3.6,8-8S-129.7,1-134.1,1z M-134,14c-2.8,0-5-2.2-5-5s2.2-5,5-5s5,2.2,5,5
		S-131.2,14-134,14z"/>
</g>
<g>
	<rect x="-48" y="-62" opacity="0" fill="#0B080D" width="24" height="24"/>
	<rect x="-37.7" y="-55.3" transform="matrix(-0.7071 -0.7071 0.7071 -0.7071 -26.5147 -110.6396)" width="3" height="11"/>
	<polygon points="-39,-56 -39,-53 -33,-53 -33,-47 -30,-47 -30,-53 -30,-56 	"/>
</g>
<g>
	<rect y="-62" opacity="0" fill="#0B080D" width="24" height="24"/>
	<rect x="5" y="-53" width="3" height="10"/>
	<rect x="9.7" y="-54.7" transform="matrix(0.7071 0.7071 -0.7071 0.7071 -31.4975 -22.3015)" width="3" height="11"/>
	<rect x="5" y="-46" width="10" height="3"/>
</g>
<g>
	<rect x="-97.3" opacity="0" width="24" height="24"/>
	<g>
		<rect x="-80.3" y="8" width="3" height="9"/>
		<rect x="-83.3" y="11" width="9" height="3"/>
	</g>
	<path d="M-89.8,4c-2.5,0-4.5,2-4.5,4.5s2,4.5,4.5,4.5c2.5,0,4.5-2,4.5-4.5S-87.3,4-89.8,4L-89.8,4z"/>
	<path d="M-86.8,13.8c-0.7-0.3-1.9-0.7-3.1-0.7c-1.1,0-2.3,0.3-3.1,0.7c-1.1,0.5-2.2,1.8-3.1,3.1c-0.9,1.3,0.1,3,1.6,3h9.1
		c1.6,0,2.5-1.7,1.6-3C-84.6,15.6-85.7,14.3-86.8,13.8z"/>
</g>
<g>
	<rect x="-48" opacity="0" fill="#0B080D" width="24" height="24"/>
	<path d="M-26,3h-19v5h2V5h15v11h-15v-3h-2v5h7v2h-2v2h9v-2h-2v-2h7V3z"/>
	<g>
		<polygon fill="#0B080D" points="-36,10.7 -41,7 -41,9 -46,9 -46,12 -41,12 -41,14.5 		"/>
	</g>
</g>
<g>
	<rect x="-228.3" y="-62.3" opacity="0" fill="#0B080D" width="24" height="24"/>
	<path fill="#0B080D" d="M-205.4-50.8c-0.6-0.6-3.8-3.6-11-3.6c-7.2,0-10.4,3-11,3.6c-0.2,0.2-0.3,0.3-0.2,0.5
		c0.3,1,1.1,3.9,1.1,3.9c0.1,0.2,0.4,0.3,0.6,0.2l4.7-0.9c0.2-0.1,0.3-0.2,0.3-0.4c0-0.1,0-0.6,0-0.9c0-1,1.9-1.4,4.5-1.4
		c2.5,0,4.5,0.5,4.5,1.4c0,0.3,0,0.9,0,0.9c0,0.2,0.1,0.3,0.3,0.4l4.7,0.9c0.2,0.1,0.5,0,0.6-0.2c0,0,0.9-2.9,1.1-3.9
		C-205.2-50.5-205.2-50.6-205.4-50.8z"/>
</g>
<g>
	<rect opacity="0" width="24" height="24"/>
	<path fill="#0B080D" d="M5.5,13c-3,0-5.5,2.5-5.5,5.5S2.5,24,5.5,24s5.5-2.5,5.5-5.5S8.5,13,5.5,13z M5.5,21C4.1,21,3,19.9,3,18.5
		S4.1,16,5.5,16S8,17.1,8,18.5S6.9,21,5.5,21z"/>
	<path fill="#0B080D" d="M18.5,13c-3,0-5.5,2.5-5.5,5.5s2.5,5.5,5.5,5.5s5.5-2.5,5.5-5.5S21.5,13,18.5,13z M18.5,21
		c-1.4,0-2.5-1.1-2.5-2.5s1.1-2.5,2.5-2.5s2.5,1.1,2.5,2.5S19.9,21,18.5,21z"/>
	<rect x="5" y="21" fill="#0B080D" width="13" height="3"/>
</g>
<rect x="-191" opacity="0" width="24" height="24"/>
<rect x="-191" opacity="0" width="24" height="24"/>
<path d="M-169,14v-4h-2.2c-0.2-0.7-0.5-1.4-0.9-2.1l1.5-1.5l-2.8-2.8l-1.5,1.5c-0.6-0.4-1.3-0.7-2.1-0.8V2h-4v2.3
	c-0.7,0.2-1.4,0.5-2.1,0.8l-1.5-1.5l-2.8,2.8l1.5,1.5c-0.4,0.6-0.7,1.3-0.8,2.1h-2.2v4h2.3c0.2,0.7,0.5,1.4,0.9,2l-1.5,1.5l2.8,2.8
	l1.5-1.5c0.6,0.4,1.3,0.7,2.1,0.9V22h4v-2.3c0.7-0.2,1.4-0.5,2-0.9l1.6,1.6l2.8-2.8l-1.6-1.6c0.4-0.6,0.7-1.3,0.9-2H-169z
	 M-179,15.9c-2.2,0-4-1.9-4-4c0-2.2,1.8-3.9,4-3.9c2.2,0,4,1.7,4,3.9C-175,14.1-176.8,15.9-179,15.9z"/>
<g>
	<path opacity="0" fill="#0B080D" d="M70,24H50c-1.1,0-2-0.9-2-2V2c0-1.1,0.9-2,2-2h20c1.1,0,2,0.9,2,2v20C72,23.1,71.1,24,70,24z"
		/>
	<path fill="#0B080D" d="M64.7,13.8l-7.2,4.6c-1.5,1-3.5-0.1-3.5-1.9V7.3c0-1.8,2-2.9,3.5-1.9l7.2,4.6
		C66.1,10.9,66.1,12.9,64.7,13.8z"/>
</g>
<g>
	<rect x="184.6" y="-1" opacity="0" fill="#0B080D" width="24" height="24"/>
	<circle cx="191" cy="4" r="2"/>
	<circle cx="197" cy="4" r="2"/>
	<circle cx="203" cy="4" r="2"/>
	<circle cx="203" cy="9" r="2"/>
	<circle cx="203" cy="14" r="2"/>
	<circle cx="197" cy="14" r="2"/>
	<circle cx="197" cy="9" r="2"/>
	<circle cx="191" cy="9" r="2"/>
	<circle cx="191" cy="14" r="2"/>
	<circle cx="197" cy="19" r="2"/>
</g>
</svg>
