<?xml version="1.0" encoding="utf-8"?>
<!-- Generator: Adobe Illustrator 18.1.0, SVG Export Plug-In . SVG Version: 6.00 Build 0)  -->
<!DOCTYPE svg PUBLIC "-//W3C//DTD SVG 1.1//EN" "http://www.w3.org/Graphics/SVG/1.1/DTD/svg11.dtd">
<svg version="1.1" id="Layer_1" xmlns="http://www.w3.org/2000/svg" xmlns:xlink="http://www.w3.org/1999/xlink" x="0px" y="0px"
	 viewBox="0 0 24 24" enable-background="new 0 0 24 24" xml:space="preserve">
<g>
	<rect x="364.3" y="0" opacity="0" fill="#0B080D" width="24" height="24"/>
	<path fill="#0B080D" d="M383.7,3.3c-0.4-0.4-1-0.4-1.4,0l0,0L380.5,5c-0.4-1.9-2-3.3-3.9-3.3c-1.1,0-2.1,0.5-2.8,1.2c0,0,0,0,0,0
		c-0.2,0.2-0.3,0.4-0.5,0.6c-0.1,0.1-0.2,0.3-0.2,0.4c0,0.1-0.1,0.2-0.1,0.2c-0.2,0.5-0.3,1-0.3,1.6v6c0,0.4,0.1,0.7,0.2,1l-0.8,0.8
		c-0.2-0.6-0.4-1.2-0.4-1.8h0c0-0.6-0.4-1-1-1c-0.6,0-1,0.4-1,1c0,0,0,0,0,0c0,1.2,0.3,2.3,0.8,3.3l-2.3,2.3l0,0
		c-0.3,0.4-0.3,1,0,1.4c0.4,0.4,1,0.4,1.4,0l0,0l0,0c0,0,0,0,0,0s0,0,0,0l2.1-2.1l0,0l1.4-1.4l0,0l1.4-1.4l0,0l5.1-5.1v0l4-4
		c0,0,0,0,0,0C384,4.3,384,3.7,383.7,3.3z"/>
	<path fill="#0B080D" d="M380.6,11.7v-0.2v-1l-1.6,1.6v0l-3.5,3.5c0.3,0.1,0.7,0.2,1,0.2C378.8,15.8,380.6,14,380.6,11.7z"/>
	<path fill="#0B080D" d="M383.6,11.8L383.6,11.8c0-0.6-0.4-1-1-1c-0.6,0-1,0.4-1,1l0,0c0,2.8-2.2,5-5,5c-0.6,0-1.3-0.1-1.8-0.4
		l-1.5,1.5c0.7,0.4,1.2,1,2.1,1.1v1h-2c-0.6,0-1,0.4-1,1c0,0.6,0.4,1,1,1h6c0.6,0,1-0.4,1-1c0-0.6-0.4-1-1-1h-2v-1
		C380.7,18.5,383.6,15.3,383.6,11.8z"/>
</g>
<g>
	<rect x="367" y="61.3" opacity="0" fill="#0B080D" width="24" height="24"/>
	<g>
		<path d="M382,79.3h-10c-1.1,0-2-0.9-2-2v-8c0-1.1,0.9-2,2-2h10c1.1,0,2,0.9,2,2l0,8C384,78.4,383.1,79.3,382,79.3z"/>
	</g>
	<path d="M387.5,68.3l-2.5,2v6l2.5,2c0.8,0,1.5-1.3,1.5-2v-6C389,69.6,388.3,68.3,387.5,68.3z"/>
</g>
<g>
	<rect x="320.7" y="0.3" opacity="0" fill="#0B080D" width="24" height="24"/>
	<path d="M330.2,4.1v1.8l0.9,7c0.1,0.8,0.8,1.5,1.6,1.5h0c0.8,0,1.6-0.6,1.6-1.5l0.9-7V4.1c0-1.1-0.9-2-2-2h-1
		C331.1,2.1,330.2,3,330.2,4.1z"/>
	<circle cx="332.7" cy="18.3" r="2"/>
</g>
<g>
	<rect x="37.3" y="0.3" opacity="0" fill="#0B080D" width="24" height="24"/>
	<path fill="#0B080D" d="M48.9,1.4c-0.6,0.6-3.6,3.8-3.6,11s3,10.4,3.6,11c0.2,0.2,0.3,0.3,0.5,0.2c1-0.3,3.9-1.1,3.9-1.1
		c0.2-0.1,0.3-0.4,0.2-0.6l-0.9-4.7c-0.1-0.2-0.2-0.3-0.4-0.3c-0.1,0-0.6,0-0.9,0c-1,0-1.4-1.9-1.4-4.5c0-2.5,0.5-4.5,1.4-4.5
		c0.3,0,0.9,0,0.9,0c0.2,0,0.3-0.1,0.4-0.3l0.9-4.7c0.1-0.2,0-0.5-0.2-0.6c0,0-2.9-0.9-3.9-1.1C49.2,1.2,49.1,1.2,48.9,1.4z"/>
</g>
<g>
	<rect x="84.3" y="0.3" opacity="0" fill="#0B080D" width="24" height="24"/>
	<polygon points="101.3,3.3 99.3,5.3 101.3,7.3 96.3,7.3 96.3,10.3 101.3,10.3 99.3,12.3 101.3,14.3 106.1,8.8 	"/>
	<path fill="#0B080D" d="M84.6,8.2c0,0.9,0.2,5.4,5.5,10.7c5.3,5.3,9.8,5.4,10.7,5.5c0.3,0,0.4,0,0.5-0.2c0.5-0.9,2-3.7,2-3.7
		c0-0.2-0.1-0.4-0.3-0.6L99,17.1c-0.2-0.1-0.4-0.1-0.5,0c0,0-0.4,0.4-0.7,0.7c-0.7,0.7-2.5-0.4-4.4-2.2c-1.9-1.9-2.9-3.7-2.2-4.4
		c0.2-0.2,0.6-0.6,0.7-0.7c0.1-0.1,0.1-0.3,0-0.5l-2.8-4.1c-0.1-0.2-0.4-0.3-0.6-0.3c0,0-2.8,1.5-3.7,2C84.7,7.8,84.6,7.8,84.6,8.2z
		"/>
</g>
<g>
	<rect x="324.3" y="62.3" opacity="0" fill="#0B080D" width="24" height="24"/>
	<path fill="#0B080D" d="M332.3,82.3h-1c-1.1,0-2-0.9-2-2v-12c0-1.1,0.9-2,2-2h1c1.1,0,2,0.9,2,2v12
		C334.3,81.4,333.4,82.3,332.3,82.3z"/>
	<path fill="#0B080D" d="M340.3,82.3h-1c-1.1,0-2-0.9-2-2v-12c0-1.1,0.9-2,2-2h1c1.1,0,2,0.9,2,2v12
		C342.3,81.4,341.4,82.3,340.3,82.3z"/>
</g>
<rect x="276.3" y="62.3" opacity="0" fill="#0B080D" width="24" height="24"/>
<g>
	<rect x="132.3" y="0.3" opacity="0" fill="#0B080D" width="24" height="24"/>
	<g>
		<rect x="147.3" y="3.3" fill="#0B080D" width="3" height="9"/>
		<rect x="144.3" y="6.3" fill="#0B080D" width="9" height="3"/>
	</g>
	<path fill="#0B080D" d="M132.6,7.9c0,0.9,0.2,5.4,5.5,10.7c5.3,5.3,9.8,5.4,10.7,5.5c0.3,0,0.4,0,0.5-0.2c0.5-0.9,2-3.7,2-3.7
		c0-0.2-0.1-0.4-0.3-0.6l-4.1-2.8c-0.2-0.1-0.4-0.1-0.5,0c0,0-0.4,0.4-0.7,0.7c-0.7,0.7-2.5-0.4-4.4-2.2c-1.9-1.9-2.9-3.7-2.2-4.4
		c0.2-0.2,0.6-0.6,0.7-0.7c0.1-0.1,0.1-0.3,0-0.5l-2.8-4.1c-0.1-0.2-0.4-0.3-0.6-0.3c0,0-2.8,1.5-3.7,2
		C132.7,7.5,132.6,7.5,132.6,7.9z"/>
</g>
<g>
	<rect x="277.3" y="0.3" opacity="0" fill="#0B080D" width="24" height="24"/>
	
		<rect x="284" y="10.7" transform="matrix(0.7071 -0.7071 0.7071 0.7071 73.4643 206.8284)" fill="#0B080D" width="4.7" height="8"/>
	
		<rect x="284.8" y="11.3" transform="matrix(0.7071 -0.7071 0.7071 0.7071 76.0375 210.5156)" fill="#0B080D" width="14.6" height="4.3"/>
</g>
<g>
	<rect x="412.3" y="0" opacity="0" fill="#0B080D" width="24" height="24"/>
	<path fill="#231F20" d="M424.9,4.7c2.5,0,4.5,2,4.5,4.5s-2,4.5-4.5,4.5s-4.5-2-4.5-4.5S422.4,4.7,424.9,4.7 M424.9,2.8
		c-3.6,0-6.5,2.9-6.5,6.5s2.9,6.5,6.5,6.5c3.6,0,6.5-2.9,6.5-6.5S428.5,2.8,424.9,2.8L424.9,2.8z"/>
	<path fill="#231F20" d="M428.2,14.4c-0.7-0.3-2.1-0.7-3.3-0.7c-1.2,0-2.4,0.3-3.3,0.7c-1.2,0.5-2.4,1.9-3.4,3.2
		c-0.9,1.3,0.1,3.1,1.8,3.1h9.8c1.7,0,2.7-1.8,1.8-3.1C430.6,16.3,429.4,14.9,428.2,14.4z"/>
</g>
<g>
	<rect x="85.3" y="62.3" opacity="0" width="24" height="24"/>
	<rect x="85.3" y="62.3" opacity="0" width="24" height="24"/>
	<path d="M107.1,81.3c0.6,0.6,0.7,1.4,0.2,1.9l-1.1,1.1c-0.5,0.5-1.3,0.4-1.9-0.2l-3.7-3.7c-0.6-0.6-0.7-1.4-0.2-1.9l1.1-1.1
		c0.5-0.5,1.3-0.4,1.9,0.2L107.1,81.3z"/>
	<path d="M94.3,63.3c-4.4,0-8,3.6-8,8s3.6,8,8,8s8-3.6,8-8S98.7,63.3,94.3,63.3z M94.3,76.3c-2.8,0-5-2.2-5-5s2.2-5,5-5s5,2.2,5,5
		S97.1,76.3,94.3,76.3z"/>
</g>
<g>
	<rect x="180.3" y="0.3" opacity="0" fill="#0B080D" width="24" height="24"/>
	<rect x="190.7" y="7" transform="matrix(-0.7071 -0.7071 0.7071 -0.7071 319.1983 157.2261)" width="3" height="11"/>
	<polygon points="189.3,6.3 189.3,9.3 195.3,9.3 195.3,15.3 198.3,15.3 198.3,9.3 198.3,6.3 	"/>
</g>
<g>
	<rect x="228.3" y="0.3" opacity="0" fill="#0B080D" width="24" height="24"/>
	<rect x="233.3" y="9.3" width="3" height="10"/>
	<rect x="238" y="7.7" transform="matrix(0.7071 0.7071 -0.7071 0.7071 79.4561 -165.5005)" width="3" height="11"/>
	<rect x="233.3" y="16.3" width="10" height="3"/>
</g>
<g>
	<rect x="131" y="62.3" opacity="0" width="24" height="24"/>
	<g>
		<rect x="148" y="70.3" width="3" height="9"/>
		<rect x="145" y="73.3" width="9" height="3"/>
	</g>
	<path d="M138.5,66.3c-2.5,0-4.5,2-4.5,4.5c0,2.5,2,4.5,4.5,4.5c2.5,0,4.5-2,4.5-4.5C143,68.3,141,66.3,138.5,66.3L138.5,66.3z"/>
	<path d="M141.6,76.1c-0.7-0.3-1.9-0.7-3.1-0.7c-1.1,0-2.3,0.3-3.1,0.7c-1.1,0.5-2.2,1.8-3.1,3.1c-0.9,1.3,0.1,3,1.6,3h9.1
		c1.6,0,2.5-1.7,1.6-3C143.8,78,142.7,76.6,141.6,76.1z"/>
</g>
<rect x="228.3" y="62.3" opacity="0" width="24" height="24"/>
<g>
	<rect x="180.3" y="62.7" opacity="0" fill="#0B080D" width="24" height="24"/>
	<path d="M202.3,65.7h-19v5h2v-3h15v11h-15v-3h-2v5h7v2h-2v2h9v-2h-2v-2h7V65.7z"/>
	<g>
		<polygon fill="#0B080D" points="192.3,73.4 187.3,69.7 187.3,71.7 182.3,71.7 182.3,74.7 187.3,74.7 187.3,77.2 		"/>
	</g>
</g>
<g>
	<rect x="0" y="0" opacity="0" fill="#0B080D" width="24" height="24"/>
	<path fill="#0B080D" d="M22.9,11.6C22.3,11,19.1,8,11.9,8s-10.4,3-11,3.6c-0.2,0.2-0.3,0.3-0.2,0.5c0.3,1,1.1,3.9,1.1,3.9
		c0.1,0.2,0.4,0.3,0.6,0.2l4.7-0.9c0.2-0.1,0.3-0.2,0.3-0.4c0-0.1,0-0.6,0-0.9c0-1,1.9-1.4,4.5-1.4c2.5,0,4.5,0.5,4.5,1.4
		c0,0.3,0,0.9,0,0.9c0,0.2,0.1,0.3,0.3,0.4l4.7,0.9c0.2,0.1,0.5,0,0.6-0.2c0,0,0.9-2.9,1.1-3.9C23.2,11.8,23.1,11.8,22.9,11.6z"/>
</g>
<path fill="#0B080D" d="M233.8,75.3c-3,0-5.5,2.5-5.5,5.5s2.5,5.5,5.5,5.5s5.5-2.5,5.5-5.5S236.9,75.3,233.8,75.3z M233.8,83.3
	c-1.4,0-2.5-1.1-2.5-2.5c0-1.4,1.1-2.5,2.5-2.5c1.4,0,2.5,1.1,2.5,2.5C236.3,82.2,235.2,83.3,233.8,83.3z"/>
<path fill="#0B080D" d="M246.8,75.3c-3,0-5.5,2.5-5.5,5.5s2.5,5.5,5.5,5.5s5.5-2.5,5.5-5.5S249.9,75.3,246.8,75.3z M246.8,83.3
	c-1.4,0-2.5-1.1-2.5-2.5c0-1.4,1.1-2.5,2.5-2.5c1.4,0,2.5,1.1,2.5,2.5C249.3,82.2,248.2,83.3,246.8,83.3z"/>
<rect x="233.3" y="83.3" fill="#0B080D" width="13" height="3"/>
<rect x="37.3" y="62.3" opacity="0" width="24" height="24"/>
<rect x="37.3" y="62.3" opacity="0" width="24" height="24"/>
<path d="M59.3,76.3v-4h-2.2c-0.2-0.7-0.5-1.4-0.9-2.1l1.5-1.5l-2.8-2.8l-1.5,1.5c-0.6-0.4-1.3-0.7-2.1-0.8v-2.3h-4v2.3
	c-0.7,0.2-1.4,0.5-2.1,0.8l-1.5-1.5l-2.8,2.8l1.5,1.5c-0.4,0.6-0.7,1.3-0.8,2.1h-2.2v4h2.3c0.2,0.7,0.5,1.4,0.9,2l-1.5,1.5l2.8,2.8
	l1.5-1.5c0.6,0.4,1.3,0.7,2.1,0.9v2.3h4v-2.3c0.7-0.2,1.4-0.5,2-0.9l1.6,1.6l2.8-2.8l-1.6-1.6c0.4-0.6,0.7-1.3,0.9-2H59.3z
	 M49.4,78.3c-2.2,0-4-1.9-4-4c0-2.2,1.8-3.9,4-3.9c2.2,0,4,1.7,4,3.9C53.3,76.4,51.5,78.3,49.4,78.3z"/>
<g>
	<path opacity="0" fill="#0B080D" d="M298.3,86.3h-20c-1.1,0-2-0.9-2-2v-20c0-1.1,0.9-2,2-2h20c1.1,0,2,0.9,2,2v20
		C300.3,85.4,299.4,86.3,298.3,86.3z"/>
	<path fill="#0B080D" d="M293.1,76.1l-7.2,4.6c-1.5,1-3.5-0.1-3.5-1.9v-9.2c0-1.8,2-2.9,3.5-1.9l7.2,4.6
		C294.5,73.2,294.5,75.2,293.1,76.1z"/>
</g>
</svg>
