<?xml version="1.0" encoding="utf-8"?>
<!-- Generator: Adobe Illustrator 18.1.0, SVG Export Plug-In . SVG Version: 6.00 Build 0)  -->
<!DOCTYPE svg PUBLIC "-//W3C//DTD SVG 1.1//EN" "http://www.w3.org/Graphics/SVG/1.1/DTD/svg11.dtd">
<svg version="1.1" id="Layer_1" xmlns="http://www.w3.org/2000/svg" xmlns:xlink="http://www.w3.org/1999/xlink" x="0px" y="0px"
	 viewBox="0 0 24 24" enable-background="new 0 0 24 24" xml:space="preserve">
<g>
	<rect x="232" y="-0.3" opacity="0" fill="#0B080D" width="24" height="24"/>
	<path fill="#0B080D" d="M251.3,3c-0.4-0.4-1-0.4-1.4,0l0,0l-1.7,1.7c-0.4-1.9-2-3.3-3.9-3.3c-1.1,0-2.1,0.5-2.8,1.2c0,0,0,0,0,0
		c-0.2,0.2-0.3,0.4-0.5,0.6c-0.1,0.1-0.2,0.3-0.2,0.4c0,0.1-0.1,0.2-0.1,0.2c-0.2,0.5-0.3,1-0.3,1.6v6c0,0.4,0.1,0.7,0.2,1l-0.8,0.8
		c-0.2-0.6-0.4-1.2-0.4-1.8h0c0-0.6-0.4-1-1-1c-0.6,0-1,0.4-1,1c0,0,0,0,0,0c0,1.2,0.3,2.3,0.8,3.3l-2.3,2.3l0,0
		c-0.3,0.4-0.3,1,0,1.4c0.4,0.4,1,0.4,1.4,0l0,0l0,0c0,0,0,0,0,0s0,0,0,0l2.1-2.1l0,0l1.4-1.4l0,0l1.4-1.4l0,0l5.1-5.1v0l4-4
		c0,0,0,0,0,0C251.7,4,251.7,3.4,251.3,3z"/>
	<path fill="#0B080D" d="M248.3,11.4v-0.2v-1l-1.6,1.6v0l-3.5,3.5c0.3,0.1,0.7,0.2,1,0.2C246.5,15.4,248.3,13.6,248.3,11.4z"/>
	<path fill="#0B080D" d="M251.3,11.4L251.3,11.4c0-0.6-0.4-1-1-1c-0.6,0-1,0.4-1,1l0,0c0,2.8-2.2,5-5,5c-0.6,0-1.3-0.1-1.8-0.4
		l-1.5,1.5c0.7,0.4,1.2,1,2.1,1.1v1h-2c-0.6,0-1,0.4-1,1c0,0.6,0.4,1,1,1h6c0.6,0,1-0.4,1-1c0-0.6-0.4-1-1-1h-2v-1
		C248.4,18.2,251.3,14.9,251.3,11.4z"/>
</g>
<g>
	<rect x="234.7" y="61" opacity="0" fill="#0B080D" width="24" height="24"/>
	<g>
		<path d="M249.7,79h-10c-1.1,0-2-0.9-2-2v-8c0-1.1,0.9-2,2-2h10c1.1,0,2,0.9,2,2l0,8C251.7,78.1,250.8,79,249.7,79z"/>
	</g>
	<path d="M255.1,68l-2.5,2v6l2.5,2c0.8,0,1.5-1.3,1.5-2v-6C256.7,69.3,255.9,68,255.1,68z"/>
</g>
<g>
	<rect x="188.3" opacity="0" fill="#0B080D" width="24" height="24"/>
	<path d="M197.8,3.8v1.8l0.9,7c0.1,0.8,0.8,1.5,1.6,1.5h0c0.8,0,1.6-0.6,1.6-1.5l0.9-7V3.8c0-1.1-0.9-2-2-2h-1
		C198.7,1.8,197.8,2.6,197.8,3.8z"/>
	<circle cx="200.3" cy="18" r="2"/>
</g>
<g>
	<rect x="-95" opacity="0" fill="#0B080D" width="24" height="24"/>
	<path fill="#0B080D" d="M-91.1,4.7c0,0.8,0.2,5.2,5.3,10.3s9.5,5.2,10.3,5.3c0.3,0,0.4,0,0.5-0.2c0.5-0.9,1.9-3.5,1.9-3.5
		c0-0.2-0.1-0.4-0.3-0.5l-3.9-2.7c-0.2-0.1-0.4-0.1-0.5,0c0,0-0.4,0.4-0.7,0.7c-0.7,0.7-2.4-0.4-4.2-2.2c-1.8-1.8-2.8-3.5-2.2-4.2
		c0.2-0.2,0.6-0.6,0.7-0.7c0.1-0.1,0.1-0.3,0-0.5l-2.7-3.9c-0.1-0.2-0.3-0.3-0.5-0.3c0,0-2.7,1.4-3.5,1.9C-91,4.3-91.1,4.4-91.1,4.7
		z"/>
</g>
<g>
	<rect x="-48" opacity="0" fill="#0B080D" width="24" height="24"/>
	<polygon points="-31,3 -33,5 -31,7 -36,7 -36,10 -31,10 -33,12 -31,14 -26.2,8.5 	"/>
	<path fill="#0B080D" d="M-47.7,7.8c0,0.9,0.2,5.4,5.5,10.7s9.8,5.4,10.7,5.5c0.3,0,0.4,0,0.5-0.2c0.5-0.9,2-3.7,2-3.7
		c0-0.2-0.1-0.4-0.3-0.6l-4.1-2.8c-0.2-0.1-0.4-0.1-0.5,0c0,0-0.4,0.4-0.7,0.7c-0.7,0.7-2.5-0.4-4.4-2.2c-1.9-1.9-2.9-3.7-2.2-4.4
		c0.2-0.2,0.6-0.6,0.7-0.7c0.1-0.1,0.1-0.3,0-0.5l-2.8-4.1c-0.1-0.2-0.4-0.3-0.6-0.3c0,0-2.8,1.5-3.7,2C-47.7,7.4-47.7,7.5-47.7,7.8
		z"/>
</g>
<g>
	<rect x="192" y="62" opacity="0" fill="#0B080D" width="24" height="24"/>
	<path fill="#0B080D" d="M200,82h-1c-1.1,0-2-0.9-2-2V68c0-1.1,0.9-2,2-2h1c1.1,0,2,0.9,2,2v12C202,81.1,201.1,82,200,82z"/>
	<path fill="#0B080D" d="M208,82h-1c-1.1,0-2-0.9-2-2V68c0-1.1,0.9-2,2-2h1c1.1,0,2,0.9,2,2v12C210,81.1,209.1,82,208,82z"/>
</g>
<rect x="144" y="62" opacity="0" fill="#0B080D" width="24" height="24"/>
<g>
	<rect x="0" opacity="0" fill="#0B080D" width="24" height="24"/>
	<g>
		<rect x="15" y="3" fill="#0B080D" width="3" height="9"/>
		<rect x="12" y="6" fill="#0B080D" width="9" height="3"/>
	</g>
	<path fill="#0B080D" d="M0.3,7.5c0,0.9,0.2,5.4,5.5,10.7s9.8,5.4,10.7,5.5c0.3,0,0.4,0,0.5-0.2c0.5-0.9,2-3.7,2-3.7
		c0-0.2-0.1-0.4-0.3-0.6l-4.1-2.8c-0.2-0.1-0.4-0.1-0.5,0c0,0-0.4,0.4-0.7,0.7c-0.7,0.7-2.5-0.4-4.4-2.2c-1.9-1.9-2.9-3.7-2.2-4.4
		c0.2-0.2,0.6-0.6,0.7-0.7c0.1-0.1,0.1-0.3,0-0.5L4.8,5.3C4.7,5.1,4.4,5,4.2,5c0,0-2.8,1.5-3.7,2C0.3,7.1,0.3,7.2,0.3,7.5z"/>
</g>
<g>
	<rect x="145" opacity="0" fill="#0B080D" width="24" height="24"/>
	
		<rect x="151.7" y="10.4" transform="matrix(0.7071 -0.7071 0.7071 0.7071 34.9405 113.157)" fill="#0B080D" width="4.7" height="8"/>
	
		<rect x="152.5" y="11" transform="matrix(0.7071 -0.7071 0.7071 0.7071 37.5137 116.8442)" fill="#0B080D" width="14.6" height="4.3"/>
</g>
<g>
	<rect x="280" y="-0.3" opacity="0" fill="#0B080D" width="24" height="24"/>
	<path fill="#231F20" d="M292.6,4.4c2.5,0,4.5,2,4.5,4.5s-2,4.5-4.5,4.5s-4.5-2-4.5-4.5S290.1,4.4,292.6,4.4 M292.6,2.4
		c-3.6,0-6.5,2.9-6.5,6.5s2.9,6.5,6.5,6.5c3.6,0,6.5-2.9,6.5-6.5S296.2,2.4,292.6,2.4L292.6,2.4z"/>
	<path fill="#231F20" d="M295.9,14.1c-0.7-0.3-2.1-0.7-3.3-0.7c-1.2,0-2.4,0.3-3.3,0.7c-1.2,0.5-2.4,1.9-3.4,3.2
		c-0.9,1.3,0.1,3.1,1.8,3.1h9.8c1.7,0,2.7-1.8,1.8-3.1C298.2,16,297,14.6,295.9,14.1z"/>
</g>
<g>
	<rect x="-47.1" y="62" opacity="0" width="24" height="24"/>
	<rect x="-47.1" y="62" opacity="0" width="24" height="24"/>
	<path d="M-25.2,81c0.6,0.6,0.7,1.4,0.2,1.9l-1.1,1.1c-0.5,0.5-1.3,0.4-1.9-0.2l-3.7-3.7c-0.6-0.6-0.7-1.4-0.2-1.9l1.1-1.1
		c0.5-0.5,1.3-0.4,1.9,0.2L-25.2,81z"/>
	<path d="M-38.1,63c-4.4,0-8,3.6-8,8s3.6,8,8,8s8-3.6,8-8S-33.7,63-38.1,63z M-38,76c-2.8,0-5-2.2-5-5s2.2-5,5-5s5,2.2,5,5
		S-35.2,76-38,76z"/>
</g>
<g>
	<rect x="48" opacity="0" fill="#0B080D" width="24" height="24"/>
	<rect x="58.3" y="6.7" transform="matrix(-0.7071 -0.7071 0.7071 -0.7071 93.5269 63.0833)" width="3" height="11"/>
	<polygon points="57,6 57,9 63,9 63,15 66,15 66,9 66,6 	"/>
</g>
<g>
	<rect x="96" opacity="0" fill="#0B080D" width="24" height="24"/>
	<rect x="101" y="9" width="3" height="10"/>
	<rect x="105.7" y="7.3" transform="matrix(0.7071 0.7071 -0.7071 0.7071 40.4609 -72.0244)" width="3" height="11"/>
	<rect x="101" y="16" width="10" height="3"/>
</g>
<g>
	<rect x="-1.3" y="62" opacity="0" width="24" height="24"/>
	<g>
		<rect x="15.7" y="70" width="3" height="9"/>
		<rect x="12.7" y="73" width="9" height="3"/>
	</g>
	<path d="M6.2,66c-2.5,0-4.5,2-4.5,4.5s2,4.5,4.5,4.5c2.5,0,4.5-2,4.5-4.5S8.7,66,6.2,66L6.2,66z"/>
	<path d="M9.2,75.8c-0.7-0.3-1.9-0.7-3.1-0.7c-1.1,0-2.3,0.3-3.1,0.7C2,76.3,0.9,77.6,0,79c-0.9,1.3,0.1,3,1.6,3h9.1
		c1.6,0,2.5-1.7,1.6-3C11.4,77.6,10.3,76.3,9.2,75.8z"/>
</g>
<rect x="96" y="62" opacity="0" width="24" height="24"/>
<g>
	<rect x="48" y="62.3" opacity="0" fill="#0B080D" width="24" height="24"/>
	<path d="M70,65.3H51v5h2v-3h15v11H53v-3h-2v5h7v2h-2v2h9v-2h-2v-2h7V65.3z"/>
	<g>
		<polygon fill="#0B080D" points="60,73 55,69.3 55,71.3 50,71.3 50,74.3 55,74.3 55,76.8 		"/>
	</g>
</g>
<g>
	<rect x="-132.3" y="-0.3" opacity="0" fill="#0B080D" width="24" height="24"/>
	<path fill="#0B080D" d="M-109.4,11.2c-0.6-0.6-3.8-3.6-11-3.6s-10.4,3-11,3.6c-0.2,0.2-0.3,0.3-0.2,0.5c0.3,1,1.1,3.9,1.1,3.9
		c0.1,0.2,0.4,0.3,0.6,0.2l4.7-0.9c0.2-0.1,0.3-0.2,0.3-0.4c0-0.1,0-0.6,0-0.9c0-1,1.9-1.4,4.5-1.4c2.5,0,4.5,0.5,4.5,1.4
		c0,0.3,0,0.9,0,0.9c0,0.2,0.1,0.3,0.3,0.4l4.7,0.9c0.2,0.1,0.5,0,0.6-0.2c0,0,0.9-2.9,1.1-3.9C-109.2,11.5-109.2,11.4-109.4,11.2z"
		/>
</g>
<path fill="#0B080D" d="M101.5,75c-3,0-5.5,2.5-5.5,5.5s2.5,5.5,5.5,5.5s5.5-2.5,5.5-5.5S104.5,75,101.5,75z M101.5,83
	c-1.4,0-2.5-1.1-2.5-2.5s1.1-2.5,2.5-2.5s2.5,1.1,2.5,2.5S102.9,83,101.5,83z"/>
<path fill="#0B080D" d="M114.5,75c-3,0-5.5,2.5-5.5,5.5s2.5,5.5,5.5,5.5s5.5-2.5,5.5-5.5S117.5,75,114.5,75z M114.5,83
	c-1.4,0-2.5-1.1-2.5-2.5s1.1-2.5,2.5-2.5s2.5,1.1,2.5,2.5S115.9,83,114.5,83z"/>
<rect x="101" y="83" fill="#0B080D" width="13" height="3"/>
<rect x="-95" y="62" opacity="0" width="24" height="24"/>
<rect x="-95" y="62" opacity="0" width="24" height="24"/>
<path d="M-73,76v-4h-2.2c-0.2-0.7-0.5-1.4-0.9-2.1l1.5-1.5l-2.8-2.8l-1.5,1.5c-0.6-0.4-1.3-0.7-2.1-0.8V64h-4v2.3
	c-0.7,0.2-1.4,0.5-2.1,0.8l-1.5-1.5l-2.8,2.8l1.5,1.5c-0.4,0.6-0.7,1.3-0.8,2.1H-93v4h2.3c0.2,0.7,0.5,1.4,0.9,2l-1.5,1.5l2.8,2.8
	l1.5-1.5c0.6,0.4,1.3,0.7,2.1,0.9V84h4v-2.3c0.7-0.2,1.4-0.5,2-0.9l1.6,1.6l2.8-2.8l-1.6-1.6c0.4-0.6,0.7-1.3,0.9-2H-73z M-83,77.9
	c-2.2,0-4-1.9-4-4c0-2.2,1.8-3.9,4-3.9c2.2,0,4,1.7,4,3.9C-79,76.1-80.8,77.9-83,77.9z"/>
<g>
	<path opacity="0" fill="#0B080D" d="M166,86h-20c-1.1,0-2-0.9-2-2V64c0-1.1,0.9-2,2-2h20c1.1,0,2,0.9,2,2v20
		C168,85.1,167.1,86,166,86z"/>
	<path fill="#0B080D" d="M160.7,75.8l-7.2,4.6c-1.5,1-3.5-0.1-3.5-1.9v-9.2c0-1.8,2-2.9,3.5-1.9l7.2,4.6
		C162.1,72.9,162.1,74.9,160.7,75.8z"/>
</g>
</svg>
