<?xml version="1.0" encoding="utf-8"?>
<!-- Generator: Adobe Illustrator 18.1.0, SVG Export Plug-In . SVG Version: 6.00 Build 0)  -->
<!DOCTYPE svg PUBLIC "-//W3C//DTD SVG 1.1//EN" "http://www.w3.org/Graphics/SVG/1.1/DTD/svg11.dtd">
<svg version="1.1" id="Layer_1" xmlns="http://www.w3.org/2000/svg" xmlns:xlink="http://www.w3.org/1999/xlink" x="0px" y="0px"
	 viewBox="0 0 24 24" enable-background="new 0 0 24 24" xml:space="preserve">
<g>
	<rect x="-2.7" y="-61.3" opacity="0" fill="#0B080D" width="24" height="24"/>
	<path fill="#0B080D" d="M16.7-58c-0.4-0.4-1-0.4-1.4,0l0,0l-1.7,1.7c-0.4-1.9-2-3.3-3.9-3.3c-1.1,0-2.1,0.5-2.8,1.2c0,0,0,0,0,0
		c-0.2,0.2-0.3,0.4-0.5,0.6c-0.1,0.1-0.2,0.3-0.2,0.4c0,0.1-0.1,0.2-0.1,0.2c-0.2,0.5-0.3,1-0.3,1.6v6c0,0.4,0.1,0.7,0.2,1l-0.8,0.8
		c-0.2-0.6-0.4-1.2-0.4-1.8h0c0-0.6-0.4-1-1-1c-0.6,0-1,0.4-1,1c0,0,0,0,0,0c0,1.2,0.3,2.3,0.8,3.3l-2.3,2.3l0,0
		c-0.3,0.4-0.3,1,0,1.4c0.4,0.4,1,0.4,1.4,0l0,0l0,0c0,0,0,0,0,0s0,0,0,0l2.1-2.1l0,0L6.1-46l0,0l1.4-1.4l0,0l5.1-5.1v0l4-4
		c0,0,0,0,0,0C17-57,17-57.6,16.7-58z"/>
	<path fill="#0B080D" d="M13.6-49.6v-0.2v-1L12-49.2v0l-3.5,3.5c0.3,0.1,0.7,0.2,1,0.2C11.8-45.6,13.6-47.4,13.6-49.6z"/>
	<path fill="#0B080D" d="M16.6-49.6L16.6-49.6c0-0.6-0.4-1-1-1c-0.6,0-1,0.4-1,1l0,0c0,2.8-2.2,5-5,5c-0.6,0-1.3-0.1-1.8-0.4
		l-1.5,1.5c0.7,0.4,1.2,1,2.1,1.1v1h-2c-0.6,0-1,0.4-1,1c0,0.6,0.4,1,1,1h6c0.6,0,1-0.4,1-1c0-0.6-0.4-1-1-1h-2v-1
		C13.7-42.8,16.6-46.1,16.6-49.6z"/>
</g>
<g>
	<rect x="0" opacity="0" fill="#0B080D" width="24" height="24"/>
	<g>
		<path d="M15,18H5c-1.1,0-2-0.9-2-2V8c0-1.1,0.9-2,2-2h10c1.1,0,2,0.9,2,2l0,8C17,17.1,16.1,18,15,18z"/>
	</g>
	<path d="M20.5,7L18,9v6l2.5,2c0.8,0,1.5-1.3,1.5-2V9C22,8.3,21.3,7,20.5,7z"/>
</g>
<g>
	<rect x="-46.3" y="-61" opacity="0" fill="#0B080D" width="24" height="24"/>
	<path d="M-36.8-57.2v1.8l0.9,7c0.1,0.8,0.8,1.5,1.6,1.5h0c0.8,0,1.6-0.6,1.6-1.5l0.9-7v-1.8c0-1.1-0.9-2-2-2h-1
		C-35.9-59.2-36.8-58.4-36.8-57.2z"/>
	<circle cx="-34.3" cy="-43" r="2"/>
</g>
<g>
	<rect x="-329.7" y="-61" opacity="0" fill="#0B080D" width="24" height="24"/>
	<path fill="#0B080D" d="M-325.7-56.3c0,0.8,0.2,5.2,5.3,10.3s9.5,5.2,10.3,5.3c0.3,0,0.4,0,0.5-0.2c0.5-0.9,1.9-3.5,1.9-3.5
		c0-0.2-0.1-0.4-0.3-0.5l-3.9-2.7c-0.2-0.1-0.4-0.1-0.5,0c0,0-0.4,0.4-0.7,0.7c-0.7,0.7-2.4-0.4-4.2-2.2c-1.8-1.8-2.8-3.5-2.2-4.2
		c0.2-0.2,0.6-0.6,0.7-0.7c0.1-0.1,0.1-0.3,0-0.5l-2.7-3.9c-0.1-0.2-0.3-0.3-0.5-0.3c0,0-2.7,1.4-3.5,1.9
		C-325.7-56.7-325.7-56.6-325.7-56.3z"/>
</g>
<g>
	<rect x="-282.7" y="-61" opacity="0" fill="#0B080D" width="24" height="24"/>
	<polygon points="-265.7,-58 -267.7,-56 -265.7,-54 -270.7,-54 -270.7,-51 -265.7,-51 -267.7,-49 -265.7,-47 -260.9,-52.5 	"/>
	<path fill="#0B080D" d="M-282.4-53.2c0,0.9,0.2,5.4,5.5,10.7c5.3,5.3,9.8,5.4,10.7,5.5c0.3,0,0.4,0,0.5-0.2c0.5-0.9,2-3.7,2-3.7
		c0-0.2-0.1-0.4-0.3-0.6l-4.1-2.8c-0.2-0.1-0.4-0.1-0.5,0c0,0-0.4,0.4-0.7,0.7c-0.7,0.7-2.5-0.4-4.4-2.2c-1.9-1.9-2.9-3.7-2.2-4.4
		c0.2-0.2,0.6-0.6,0.7-0.7c0.1-0.1,0.1-0.3,0-0.5l-2.8-4.1c-0.1-0.2-0.4-0.3-0.6-0.3c0,0-2.8,1.5-3.7,2
		C-282.3-53.6-282.4-53.5-282.4-53.2z"/>
</g>
<g>
	<rect x="-42.7" y="1" opacity="0" fill="#0B080D" width="24" height="24"/>
	<path fill="#0B080D" d="M-34.7,21h-1c-1.1,0-2-0.9-2-2V7c0-1.1,0.9-2,2-2h1c1.1,0,2,0.9,2,2v12C-32.7,20.1-33.6,21-34.7,21z"/>
	<path fill="#0B080D" d="M-26.7,21h-1c-1.1,0-2-0.9-2-2V7c0-1.1,0.9-2,2-2h1c1.1,0,2,0.9,2,2v12C-24.7,20.1-25.6,21-26.7,21z"/>
</g>
<rect x="-90.7" y="1" opacity="0" fill="#0B080D" width="24" height="24"/>
<g>
	<rect x="-234.7" y="-61" opacity="0" fill="#0B080D" width="24" height="24"/>
	<g>
		<rect x="-219.7" y="-58" fill="#0B080D" width="3" height="9"/>
		<rect x="-222.7" y="-55" fill="#0B080D" width="9" height="3"/>
	</g>
	<path fill="#0B080D" d="M-234.4-53.5c0,0.9,0.2,5.4,5.5,10.7c5.3,5.3,9.8,5.4,10.7,5.5c0.3,0,0.4,0,0.5-0.2c0.5-0.9,2-3.7,2-3.7
		c0-0.2-0.1-0.4-0.3-0.6l-4.1-2.8c-0.2-0.1-0.4-0.1-0.5,0c0,0-0.4,0.4-0.7,0.7c-0.7,0.7-2.5-0.4-4.4-2.2c-1.9-1.9-2.9-3.7-2.2-4.4
		c0.2-0.2,0.6-0.6,0.7-0.7c0.1-0.1,0.1-0.3,0-0.5l-2.8-4.1c-0.1-0.2-0.4-0.3-0.6-0.3c0,0-2.8,1.5-3.7,2
		C-234.3-53.9-234.4-53.8-234.4-53.5z"/>
</g>
<g>
	<rect x="-89.7" y="-61" opacity="0" fill="#0B080D" width="24" height="24"/>
	
		<rect x="-83" y="-50.6" transform="matrix(0.7071 -0.7071 0.7071 0.7071 9.3417 -70.6439)" fill="#0B080D" width="4.7" height="8"/>
	
		<rect x="-82.2" y="-50" transform="matrix(0.7071 -0.7071 0.7071 0.7071 11.9149 -66.9567)" fill="#0B080D" width="14.6" height="4.3"/>
</g>
<g>
	<rect x="45.3" y="-61.3" opacity="0" fill="#0B080D" width="24" height="24"/>
	<path fill="#231F20" d="M57.9-56.6c2.5,0,4.5,2,4.5,4.5s-2,4.5-4.5,4.5s-4.5-2-4.5-4.5S55.4-56.6,57.9-56.6 M57.9-58.6
		c-3.6,0-6.5,2.9-6.5,6.5s2.9,6.5,6.5,6.5c3.6,0,6.5-2.9,6.5-6.5S61.5-58.6,57.9-58.6L57.9-58.6z"/>
	<path fill="#231F20" d="M61.2-46.9c-0.7-0.3-2.1-0.7-3.3-0.7c-1.2,0-2.4,0.3-3.3,0.7c-1.2,0.5-2.4,1.9-3.4,3.2
		c-0.9,1.3,0.1,3.1,1.8,3.1h9.8c1.7,0,2.7-1.8,1.8-3.1C63.6-45,62.4-46.4,61.2-46.9z"/>
</g>
<g>
	<rect x="-281.7" y="1" opacity="0" width="24" height="24"/>
	<rect x="-281.7" y="1" opacity="0" width="24" height="24"/>
	<path d="M-259.9,20c0.6,0.6,0.7,1.4,0.2,1.9l-1.1,1.1c-0.5,0.5-1.3,0.4-1.9-0.2l-3.7-3.7c-0.6-0.6-0.7-1.4-0.2-1.9l1.1-1.1
		c0.5-0.5,1.3-0.4,1.9,0.2L-259.9,20z"/>
	<path d="M-272.8,2c-4.4,0-8,3.6-8,8s3.6,8,8,8s8-3.6,8-8S-268.3,2-272.8,2z M-272.7,15c-2.8,0-5-2.2-5-5s2.2-5,5-5c2.8,0,5,2.2,5,5
		S-269.9,15-272.7,15z"/>
</g>
<g>
	<rect x="-186.7" y="-61" opacity="0" fill="#0B080D" width="24" height="24"/>
	<rect x="-176.3" y="-54.3" transform="matrix(-0.7071 -0.7071 0.7071 -0.7071 -263.9406 -206.9846)" width="3" height="11"/>
	<polygon points="-177.7,-55 -177.7,-52 -171.7,-52 -171.7,-46 -168.7,-46 -168.7,-52 -168.7,-55 	"/>
</g>
<g>
	<rect x="-138.7" y="-61" opacity="0" fill="#0B080D" width="24" height="24"/>
	<rect x="-133.7" y="-52" width="3" height="10"/>
	<rect x="-129" y="-53.7" transform="matrix(0.7071 0.7071 -0.7071 0.7071 -71.4049 76.0435)" width="3" height="11"/>
	<rect x="-133.7" y="-45" width="10" height="3"/>
</g>
<g>
	<rect x="-236" y="1" opacity="0" width="24" height="24"/>
	<g>
		<rect x="-219" y="9" width="3" height="9"/>
		<rect x="-222" y="12" width="9" height="3"/>
	</g>
	<path d="M-228.5,5c-2.5,0-4.5,2-4.5,4.5s2,4.5,4.5,4.5c2.5,0,4.5-2,4.5-4.5S-226,5-228.5,5L-228.5,5z"/>
	<path d="M-225.4,14.8c-0.7-0.3-1.9-0.7-3.1-0.7c-1.1,0-2.3,0.3-3.1,0.7c-1.1,0.5-2.2,1.8-3.1,3.1c-0.9,1.3,0.1,3,1.6,3h9.1
		c1.6,0,2.5-1.7,1.6-3C-223.2,16.6-224.3,15.3-225.4,14.8z"/>
</g>
<rect x="-138.7" y="1" opacity="0" width="24" height="24"/>
<g>
	<rect x="-186.7" y="1.3" opacity="0" fill="#0B080D" width="24" height="24"/>
	<path d="M-164.7,4.3h-19v5h2v-3h15v11h-15v-3h-2v5h7v2h-2v2h9v-2h-2v-2h7V4.3z"/>
	<g>
		<polygon fill="#0B080D" points="-174.7,12 -179.7,8.3 -179.7,10.3 -184.7,10.3 -184.7,13.3 -179.7,13.3 -179.7,15.8 		"/>
	</g>
</g>
<g>
	<rect x="-367" y="-61.3" opacity="0" fill="#0B080D" width="24" height="24"/>
	<path fill="#0B080D" d="M-344.1-49.8c-0.6-0.6-3.8-3.6-11-3.6c-7.2,0-10.4,3-11,3.6c-0.2,0.2-0.3,0.3-0.2,0.5
		c0.3,1,1.1,3.9,1.1,3.9c0.1,0.2,0.4,0.3,0.6,0.2l4.7-0.9c0.2-0.1,0.3-0.2,0.3-0.4c0-0.1,0-0.6,0-0.9c0-1,1.9-1.4,4.5-1.4
		c2.5,0,4.5,0.5,4.5,1.4c0,0.3,0,0.9,0,0.9c0,0.2,0.1,0.3,0.3,0.4l4.7,0.9c0.2,0.1,0.5,0,0.6-0.2c0,0,0.9-2.9,1.1-3.9
		C-343.8-49.5-343.9-49.6-344.1-49.8z"/>
</g>
<path fill="#0B080D" d="M-133.2,14c-3,0-5.5,2.5-5.5,5.5s2.5,5.5,5.5,5.5s5.5-2.5,5.5-5.5S-130.1,14-133.2,14z M-133.2,22
	c-1.4,0-2.5-1.1-2.5-2.5s1.1-2.5,2.5-2.5s2.5,1.1,2.5,2.5S-131.8,22-133.2,22z"/>
<path fill="#0B080D" d="M-120.2,14c-3,0-5.5,2.5-5.5,5.5s2.5,5.5,5.5,5.5s5.5-2.5,5.5-5.5S-117.1,14-120.2,14z M-120.2,22
	c-1.4,0-2.5-1.1-2.5-2.5s1.1-2.5,2.5-2.5s2.5,1.1,2.5,2.5S-118.8,22-120.2,22z"/>
<rect x="-133.7" y="22" fill="#0B080D" width="13" height="3"/>
<rect x="-329.7" y="1" opacity="0" width="24" height="24"/>
<rect x="-329.7" y="1" opacity="0" width="24" height="24"/>
<path d="M-307.7,15v-4h-2.2c-0.2-0.7-0.5-1.4-0.9-2.1l1.5-1.5l-2.8-2.8l-1.5,1.5c-0.6-0.4-1.3-0.7-2.1-0.8V3h-4v2.3
	c-0.7,0.2-1.4,0.5-2.1,0.8l-1.5-1.5l-2.8,2.8l1.5,1.5c-0.4,0.6-0.7,1.3-0.8,2.1h-2.2v4h2.3c0.2,0.7,0.5,1.4,0.9,2l-1.5,1.5l2.8,2.8
	l1.5-1.5c0.6,0.4,1.3,0.7,2.1,0.9V23h4v-2.3c0.7-0.2,1.4-0.5,2-0.9l1.6,1.6l2.8-2.8l-1.6-1.6c0.4-0.6,0.7-1.3,0.9-2H-307.7z
	 M-317.6,16.9c-2.2,0-4-1.9-4-4c0-2.2,1.8-3.9,4-3.9c2.2,0,4,1.7,4,3.9C-313.7,15.1-315.5,16.9-317.6,16.9z"/>
<g>
	<path opacity="0" fill="#0B080D" d="M-68.7,25h-20c-1.1,0-2-0.9-2-2V3c0-1.1,0.9-2,2-2h20c1.1,0,2,0.9,2,2v20
		C-66.7,24.1-67.6,25-68.7,25z"/>
	<path fill="#0B080D" d="M-73.9,14.8l-7.2,4.6c-1.5,1-3.5-0.1-3.5-1.9V8.3c0-1.8,2-2.9,3.5-1.9l7.2,4.6
		C-72.5,11.9-72.5,13.9-73.9,14.8z"/>
</g>
</svg>
