<?xml version="1.0" encoding="utf-8"?>
<!-- Generator: Adobe Illustrator 18.1.0, SVG Export Plug-In . SVG Version: 6.00 Build 0)  -->
<!DOCTYPE svg PUBLIC "-//W3C//DTD SVG 1.1//EN" "http://www.w3.org/Graphics/SVG/1.1/DTD/svg11.dtd">
<svg version="1.1" id="Layer_1" xmlns="http://www.w3.org/2000/svg" xmlns:xlink="http://www.w3.org/1999/xlink" x="0px" y="0px"
	 viewBox="0 0 24 24" enable-background="new 0 0 24 24" xml:space="preserve">
<g>
	<rect x="184" y="-62.3" opacity="0" fill="#0B080D" width="24" height="24"/>
	<path fill="#0B080D" d="M203.3-59c-0.4-0.4-1-0.4-1.4,0l0,0l-1.7,1.7c-0.4-1.9-2-3.3-3.9-3.3c-1.1,0-2.1,0.5-2.8,1.2c0,0,0,0,0,0
		c-0.2,0.2-0.3,0.4-0.5,0.6c-0.1,0.1-0.2,0.3-0.2,0.4c0,0.1-0.1,0.2-0.1,0.2c-0.2,0.5-0.3,1-0.3,1.6v6c0,0.4,0.1,0.7,0.2,1l-0.8,0.8
		c-0.2-0.6-0.4-1.2-0.4-1.8h0c0-0.6-0.4-1-1-1c-0.6,0-1,0.4-1,1c0,0,0,0,0,0c0,1.2,0.3,2.3,0.8,3.3l-2.3,2.3l0,0
		c-0.3,0.4-0.3,1,0,1.4c0.4,0.4,1,0.4,1.4,0l0,0l0,0c0,0,0,0,0,0s0,0,0,0l2.1-2.1l0,0l1.4-1.4l0,0l1.4-1.4l0,0l5.1-5.1v0l4-4
		c0,0,0,0,0,0C203.7-58,203.7-58.6,203.3-59z"/>
	<path fill="#0B080D" d="M200.3-50.6v-0.2v-1l-1.6,1.6v0l-3.5,3.5c0.3,0.1,0.7,0.2,1,0.2C198.5-46.6,200.3-48.4,200.3-50.6z"/>
	<path fill="#0B080D" d="M203.3-50.6L203.3-50.6c0-0.6-0.4-1-1-1c-0.6,0-1,0.4-1,1l0,0c0,2.8-2.2,5-5,5c-0.6,0-1.3-0.1-1.8-0.4
		l-1.5,1.5c0.7,0.4,1.2,1,2.1,1.1v1h-2c-0.6,0-1,0.4-1,1c0,0.6,0.4,1,1,1h6c0.6,0,1-0.4,1-1c0-0.6-0.4-1-1-1h-2v-1
		C200.4-43.8,203.3-47.1,203.3-50.6z"/>
</g>
<g>
	<rect x="186.7" y="-1" opacity="0" fill="#0B080D" width="24" height="24"/>
	<g>
		<path d="M201.7,17h-10c-1.1,0-2-0.9-2-2V7c0-1.1,0.9-2,2-2h10c1.1,0,2,0.9,2,2l0,8C203.7,16.1,202.8,17,201.7,17z"/>
	</g>
	<path d="M207.1,6l-2.5,2v6l2.5,2c0.8,0,1.5-1.3,1.5-2V8C208.7,7.3,207.9,6,207.1,6z"/>
</g>
<g>
	<rect x="140.3" y="-62" opacity="0" fill="#0B080D" width="24" height="24"/>
	<path d="M149.8-58.2v1.8l0.9,7c0.1,0.8,0.8,1.5,1.6,1.5h0c0.8,0,1.6-0.6,1.6-1.5l0.9-7v-1.8c0-1.1-0.9-2-2-2h-1
		C150.7-60.2,149.8-59.4,149.8-58.2z"/>
	<circle cx="152.3" cy="-44" r="2"/>
</g>
<g>
	<rect x="-143" y="-62" opacity="0" fill="#0B080D" width="24" height="24"/>
	<path fill="#0B080D" d="M-139.1-57.3c0,0.8,0.2,5.2,5.3,10.3s9.5,5.2,10.3,5.3c0.3,0,0.4,0,0.5-0.2c0.5-0.9,1.9-3.5,1.9-3.5
		c0-0.2-0.1-0.4-0.3-0.5l-3.9-2.7c-0.2-0.1-0.4-0.1-0.5,0c0,0-0.4,0.4-0.7,0.7c-0.7,0.7-2.4-0.4-4.2-2.2c-1.8-1.8-2.8-3.5-2.2-4.2
		c0.2-0.2,0.6-0.6,0.7-0.7c0.1-0.1,0.1-0.3,0-0.5l-2.7-3.9c-0.1-0.2-0.3-0.3-0.5-0.3c0,0-2.7,1.4-3.5,1.9
		C-139-57.7-139.1-57.6-139.1-57.3z"/>
</g>
<g>
	<rect x="-96" y="-62" opacity="0" fill="#0B080D" width="24" height="24"/>
	<polygon points="-79,-59 -81,-57 -79,-55 -84,-55 -84,-52 -79,-52 -81,-50 -79,-48 -74.2,-53.5 	"/>
	<path fill="#0B080D" d="M-95.7-54.2c0,0.9,0.2,5.4,5.5,10.7c5.3,5.3,9.8,5.4,10.7,5.5c0.3,0,0.4,0,0.5-0.2c0.5-0.9,2-3.7,2-3.7
		c0-0.2-0.1-0.4-0.3-0.6l-4.1-2.8c-0.2-0.1-0.4-0.1-0.5,0c0,0-0.4,0.4-0.7,0.7c-0.7,0.7-2.5-0.4-4.4-2.2c-1.9-1.9-2.9-3.7-2.2-4.4
		c0.2-0.2,0.6-0.6,0.7-0.7c0.1-0.1,0.1-0.3,0-0.5l-2.8-4.1c-0.1-0.2-0.4-0.3-0.6-0.3c0,0-2.8,1.5-3.7,2
		C-95.7-54.6-95.7-54.5-95.7-54.2z"/>
</g>
<g>
	<rect x="144" opacity="0" fill="#0B080D" width="24" height="24"/>
	<path fill="#0B080D" d="M152,20h-1c-1.1,0-2-0.9-2-2V6c0-1.1,0.9-2,2-2h1c1.1,0,2,0.9,2,2v12C154,19.1,153.1,20,152,20z"/>
	<path fill="#0B080D" d="M160,20h-1c-1.1,0-2-0.9-2-2V6c0-1.1,0.9-2,2-2h1c1.1,0,2,0.9,2,2v12C162,19.1,161.1,20,160,20z"/>
</g>
<rect x="96" opacity="0" fill="#0B080D" width="24" height="24"/>
<g>
	<rect x="-48" y="-62" opacity="0" fill="#0B080D" width="24" height="24"/>
	<g>
		<rect x="-33" y="-59" fill="#0B080D" width="3" height="9"/>
		<rect x="-36" y="-56" fill="#0B080D" width="9" height="3"/>
	</g>
	<path fill="#0B080D" d="M-47.7-54.5c0,0.9,0.2,5.4,5.5,10.7s9.8,5.4,10.7,5.5c0.3,0,0.4,0,0.5-0.2c0.5-0.9,2-3.7,2-3.7
		c0-0.2-0.1-0.4-0.3-0.6l-4.1-2.8c-0.2-0.1-0.4-0.1-0.5,0c0,0-0.4,0.4-0.7,0.7c-0.7,0.7-2.5-0.4-4.4-2.2c-1.9-1.9-2.9-3.7-2.2-4.4
		c0.2-0.2,0.6-0.6,0.7-0.7c0.1-0.1,0.1-0.3,0-0.5l-2.8-4.1c-0.1-0.2-0.4-0.3-0.6-0.3c0,0-2.8,1.5-3.7,2
		C-47.7-54.9-47.7-54.8-47.7-54.5z"/>
</g>
<g>
	<rect x="97" y="-62" opacity="0" fill="#0B080D" width="24" height="24"/>
	
		<rect x="103.7" y="-51.6" transform="matrix(0.7071 -0.7071 0.7071 0.7071 64.7222 61.0565)" fill="#0B080D" width="4.7" height="8"/>
	
		<rect x="104.5" y="-51" transform="matrix(0.7071 -0.7071 0.7071 0.7071 67.2954 64.7437)" fill="#0B080D" width="14.6" height="4.3"/>
</g>
<g>
	<rect x="232" y="-62.3" opacity="0" fill="#0B080D" width="24" height="24"/>
	<path fill="#231F20" d="M244.6-57.6c2.5,0,4.5,2,4.5,4.5s-2,4.5-4.5,4.5s-4.5-2-4.5-4.5S242.1-57.6,244.6-57.6 M244.6-59.6
		c-3.6,0-6.5,2.9-6.5,6.5s2.9,6.5,6.5,6.5c3.6,0,6.5-2.9,6.5-6.5S248.2-59.6,244.6-59.6L244.6-59.6z"/>
	<path fill="#231F20" d="M247.9-47.9c-0.7-0.3-2.1-0.7-3.3-0.7c-1.2,0-2.4,0.3-3.3,0.7c-1.2,0.5-2.4,1.9-3.4,3.2
		c-0.9,1.3,0.1,3.1,1.8,3.1h9.8c1.7,0,2.7-1.8,1.8-3.1C250.2-46,249-47.4,247.9-47.9z"/>
</g>
<g>
	<rect x="-95.1" opacity="0" width="24" height="24"/>
	<rect x="-95.1" opacity="0" width="24" height="24"/>
	<path d="M-73.2,19c0.6,0.6,0.7,1.4,0.2,1.9l-1.1,1.1c-0.5,0.5-1.3,0.4-1.9-0.2l-3.7-3.7c-0.6-0.6-0.7-1.4-0.2-1.9l1.1-1.1
		c0.5-0.5,1.3-0.4,1.9,0.2L-73.2,19z"/>
	<path d="M-86.1,1c-4.4,0-8,3.6-8,8s3.6,8,8,8s8-3.6,8-8S-81.7,1-86.1,1z M-86,14c-2.8,0-5-2.2-5-5s2.2-5,5-5s5,2.2,5,5
		S-83.2,14-86,14z"/>
</g>
<g>
	<rect y="-62" opacity="0" fill="#0B080D" width="24" height="24"/>
	<rect x="10.3" y="-55.3" transform="matrix(-0.7071 -0.7071 0.7071 -0.7071 55.4264 -76.6985)" width="3" height="11"/>
	<polygon points="9,-56 9,-53 15,-53 15,-47 18,-47 18,-53 18,-56 	"/>
</g>
<g>
	<rect x="48" y="-62" opacity="0" fill="#0B080D" width="24" height="24"/>
	<rect x="53" y="-53" width="3" height="10"/>
	<rect x="57.7" y="-54.7" transform="matrix(0.7071 0.7071 -0.7071 0.7071 -17.4386 -56.2426)" width="3" height="11"/>
	<rect x="53" y="-46" width="10" height="3"/>
</g>
<g>
	<rect x="-49.3" opacity="0" width="24" height="24"/>
	<g>
		<rect x="-32.3" y="8" width="3" height="9"/>
		<rect x="-35.3" y="11" width="9" height="3"/>
	</g>
	<path d="M-41.8,4c-2.5,0-4.5,2-4.5,4.5s2,4.5,4.5,4.5c2.5,0,4.5-2,4.5-4.5S-39.3,4-41.8,4L-41.8,4z"/>
	<path d="M-38.8,13.8c-0.7-0.3-1.9-0.7-3.1-0.7c-1.1,0-2.3,0.3-3.1,0.7c-1.1,0.5-2.2,1.8-3.1,3.1c-0.9,1.3,0.1,3,1.6,3h9.1
		c1.6,0,2.5-1.7,1.6-3C-36.6,15.6-37.7,14.3-38.8,13.8z"/>
</g>
<rect x="48" opacity="0" width="24" height="24"/>
<g>
	<rect opacity="0" fill="#0B080D" width="24" height="24"/>
	<path d="M22,3H3v5h2V5h15v11H5v-3H3v5h7v2H8v2h9v-2h-2v-2h7V3z"/>
	<g>
		<polygon fill="#0B080D" points="12,10.7 7,7 7,9 2,9 2,12 7,12 7,14.5 		"/>
	</g>
</g>
<g>
	<rect x="-180.3" y="-62.3" opacity="0" fill="#0B080D" width="24" height="24"/>
	<path fill="#0B080D" d="M-157.4-50.8c-0.6-0.6-3.8-3.6-11-3.6c-7.2,0-10.4,3-11,3.6c-0.2,0.2-0.3,0.3-0.2,0.5
		c0.3,1,1.1,3.9,1.1,3.9c0.1,0.2,0.4,0.3,0.6,0.2l4.7-0.9c0.2-0.1,0.3-0.2,0.3-0.4c0-0.1,0-0.6,0-0.9c0-1,1.9-1.4,4.5-1.4
		c2.5,0,4.5,0.5,4.5,1.4c0,0.3,0,0.9,0,0.9c0,0.2,0.1,0.3,0.3,0.4l4.7,0.9c0.2,0.1,0.5,0,0.6-0.2c0,0,0.9-2.9,1.1-3.9
		C-157.2-50.5-157.2-50.6-157.4-50.8z"/>
</g>
<path fill="#0B080D" d="M53.5,13c-3,0-5.5,2.5-5.5,5.5s2.5,5.5,5.5,5.5s5.5-2.5,5.5-5.5S56.5,13,53.5,13z M53.5,21
	c-1.4,0-2.5-1.1-2.5-2.5s1.1-2.5,2.5-2.5s2.5,1.1,2.5,2.5S54.9,21,53.5,21z"/>
<path fill="#0B080D" d="M66.5,13c-3,0-5.5,2.5-5.5,5.5s2.5,5.5,5.5,5.5s5.5-2.5,5.5-5.5S69.5,13,66.5,13z M66.5,21
	c-1.4,0-2.5-1.1-2.5-2.5s1.1-2.5,2.5-2.5s2.5,1.1,2.5,2.5S67.9,21,66.5,21z"/>
<rect x="53" y="21" fill="#0B080D" width="13" height="3"/>
<rect x="-143" opacity="0" width="24" height="24"/>
<rect x="-143" opacity="0" width="24" height="24"/>
<path d="M-121,14v-4h-2.2c-0.2-0.7-0.5-1.4-0.9-2.1l1.5-1.5l-2.8-2.8l-1.5,1.5c-0.6-0.4-1.3-0.7-2.1-0.8V2h-4v2.3
	c-0.7,0.2-1.4,0.5-2.1,0.8l-1.5-1.5l-2.8,2.8l1.5,1.5c-0.4,0.6-0.7,1.3-0.8,2.1h-2.2v4h2.3c0.2,0.7,0.5,1.4,0.9,2l-1.5,1.5l2.8,2.8
	l1.5-1.5c0.6,0.4,1.3,0.7,2.1,0.9V22h4v-2.3c0.7-0.2,1.4-0.5,2-0.9l1.6,1.6l2.8-2.8l-1.6-1.6c0.4-0.6,0.7-1.3,0.9-2H-121z
	 M-131,15.9c-2.2,0-4-1.9-4-4c0-2.2,1.8-3.9,4-3.9c2.2,0,4,1.7,4,3.9C-127,14.1-128.8,15.9-131,15.9z"/>
<g>
	<path opacity="0" fill="#0B080D" d="M118,24H98c-1.1,0-2-0.9-2-2V2c0-1.1,0.9-2,2-2h20c1.1,0,2,0.9,2,2v20
		C120,23.1,119.1,24,118,24z"/>
	<path fill="#0B080D" d="M112.7,13.8l-7.2,4.6c-1.5,1-3.5-0.1-3.5-1.9V7.3c0-1.8,2-2.9,3.5-1.9l7.2,4.6
		C114.1,10.9,114.1,12.9,112.7,13.8z"/>
</g>
<g>
	<rect x="232.6" y="-1" opacity="0" fill="#0B080D" width="24" height="24"/>
	<circle cx="239" cy="4" r="2"/>
	<circle cx="245" cy="4" r="2"/>
	<circle cx="251" cy="4" r="2"/>
	<circle cx="251" cy="9" r="2"/>
	<circle cx="251" cy="14" r="2"/>
	<circle cx="245" cy="14" r="2"/>
	<circle cx="245" cy="9" r="2"/>
	<circle cx="239" cy="9" r="2"/>
	<circle cx="239" cy="14" r="2"/>
	<circle cx="245" cy="19" r="2"/>
</g>
</svg>
