<svg xmlns="http://www.w3.org/2000/svg" xmlns:xlink="http://www.w3.org/1999/xlink" preserveAspectRatio="xMidYMid" width="12" height="16" viewBox="0 0 12 16">
  <defs>
    <style>

      .cls-2 {
        fill: #000000;
      }
    </style>
  </defs>
  <path d="M11.000,4.000 C11.000,4.000 1.000,4.000 1.000,4.000 C0.448,4.000 -0.000,3.552 -0.000,3.000 C-0.000,2.448 0.448,2.000 1.000,2.000 C1.000,2.000 3.000,2.000 3.000,2.000 C3.000,2.000 3.000,1.000 3.000,1.000 C3.000,0.448 3.448,-0.000 4.000,-0.000 C4.000,-0.000 8.000,-0.000 8.000,-0.000 C8.552,-0.000 9.000,0.448 9.000,1.000 C9.000,1.000 9.000,2.000 9.000,2.000 C9.000,2.000 11.000,2.000 11.000,2.000 C11.552,2.000 12.000,2.448 12.000,3.000 C12.000,3.552 11.552,4.000 11.000,4.000 ZM6.000,1.000 C5.448,1.000 4.000,1.448 4.000,2.000 C4.456,2.000 7.583,2.000 8.000,2.000 C8.000,1.448 6.552,1.000 6.000,1.000 ZM1.000,5.000 C1.000,5.000 3.000,5.000 3.000,5.000 C3.000,5.000 9.000,5.000 9.000,5.000 C9.000,5.000 11.000,5.000 11.000,5.000 C11.000,5.000 11.000,12.000 11.000,12.000 C11.000,12.000 11.000,12.000 11.000,12.000 C11.000,12.000 11.000,14.000 11.000,14.000 C11.000,15.100 10.100,16.000 9.000,16.000 C9.000,16.000 3.000,16.000 3.000,16.000 C1.895,16.000 1.000,15.105 1.000,14.000 C1.000,14.000 1.000,7.000 1.000,7.000 C1.000,6.999 1.000,6.999 1.000,6.998 C1.000,6.998 1.000,5.000 1.000,5.000 Z" id="path-1" class="cls-2" fill-rule="evenodd"/>
</svg>
