<?xml version="1.0" encoding="utf-8"?>
<!-- Generator: Adobe Illustrator 18.1.1, SVG Export Plug-In . SVG Version: 6.00 Build 0)  -->
<svg version="1.1" id="Layer_1" xmlns="http://www.w3.org/2000/svg" xmlns:xlink="http://www.w3.org/1999/xlink" x="0px" y="0px"
	 viewBox="-297 387 16 19" enable-background="new -297 387 16 19" xml:space="preserve">
<path id="path-1" fill="#FFFFFF" d="M-283,396c-1.1,0-2-0.9-2-2c0-1.1,0.9-2,2-2s2,0.9,2,2C-281,395.1-281.9,396-283,396z M-283,391
	c-1.1,0-2-0.9-2-2c0-1.1,0.9-2,2-2s2,0.9,2,2C-281,390.1-281.9,391-283,391z M-289,406c-1.1,0-2-0.9-2-2c0-1.1,0.9-2,2-2
	c1.1,0,2,0.9,2,2C-287,405.1-287.9,406-289,406z M-289,401c-1.1,0-2-0.9-2-2s0.9-2,2-2c1.1,0,2,0.9,2,2S-287.9,401-289,401z
	 M-289,396c-1.1,0-2-0.9-2-2c0-1.1,0.9-2,2-2c1.1,0,2,0.9,2,2C-287,395.1-287.9,396-289,396z M-289,391c-1.1,0-2-0.9-2-2
	c0-1.1,0.9-2,2-2c1.1,0,2,0.9,2,2C-287,390.1-287.9,391-289,391z M-295,401c-1.1,0-2-0.9-2-2s0.9-2,2-2c1.1,0,2,0.9,2,2
	S-293.9,401-295,401z M-295,396c-1.1,0-2-0.9-2-2c0-1.1,0.9-2,2-2c1.1,0,2,0.9,2,2C-293,395.1-293.9,396-295,396z M-295,391
	c-1.1,0-2-0.9-2-2c0-1.1,0.9-2,2-2c1.1,0,2,0.9,2,2C-293,390.1-293.9,391-295,391z M-283,397c1.1,0,2,0.9,2,2s-0.9,2-2,2s-2-0.9-2-2
	S-284.1,397-283,397z"/>
</svg>
