<?xml version="1.0" encoding="utf-8"?>
<!-- Generator: Adobe Illustrator 18.1.1, SVG Export Plug-In . SVG Version: 6.00 Build 0)  -->
<svg version="1.1" id="Layer_1" xmlns="http://www.w3.org/2000/svg" xmlns:xlink="http://www.w3.org/1999/xlink" x="0px" y="0px"
	 viewBox="0 90 612 613" enable-background="new 0 90 612 613" xml:space="preserve">
<g>
	<rect x="12393" y="1138.1" fill="#CC0000" fill-opacity="0" width="1836" height="1836"/>
	<path fill="#CC0000" d="M13869.5,1390.5c-30.6-30.6-76.5-30.6-107.1,0l0,0l-130,130.1c-30.6-145.3-153-252.4-298.3-252.4
		c-84.2,0-160.7,38.2-214.2,91.8l0,0c-15.3,15.3-23,30.6-38.2,45.9c-7.7,7.7-15.3,22.9-15.3,30.6s-7.7,15.3-7.7,15.3
		c-15.3,38.2-23,76.5-23,122.4v459c0,30.6,7.7,53.6,15.3,76.5l-61.2,61.2c-15.3-45.9-30.6-91.8-30.6-137.7l0,0
		c0-45.9-30.6-76.5-76.5-76.5s-76.5,30.6-76.5,76.5l0,0c0,91.8,23,175.9,61.2,252.4l-176,175.9l0,0c-23,30.6-23,76.5,0,107.1
		c30.6,30.6,76.5,30.6,107.1,0l0,0l0,0l0,0l0,0l160.7-160.6l0,0l107.1-107.1l0,0l107.1-107.1l0,0l390.2-390.2l0,0l306-306l0,0
		C13900,1467,13900,1421.1,13869.5,1390.5z"/>
	<path fill="#CC0000" d="M13640,2033.1v-15.3v-76.5l-122.4,122.4l0,0l-267.8,267.8c23,7.6,53.5,15.3,76.5,15.3
		C13502.2,2339.1,13640,2201.4,13640,2033.1z"/>
	<path fill="#CC0000" d="M13869.5,2033.1L13869.5,2033.1c0-45.9-30.6-76.5-76.5-76.5s-76.5,30.6-76.5,76.5l0,0
		c0,214.2-168.3,382.5-382.5,382.5c-45.9,0-99.5-7.6-137.7-30.6l-114.8,114.8c53.5,30.6,91.8,76.5,160.7,84.1v76.5h-153
		c-45.9,0-76.5,30.6-76.5,76.5s30.6,76.5,76.5,76.5h459c45.9,0,76.5-30.6,76.5-76.5s-30.6-76.5-76.5-76.5h-153v-76.5
		C13647.6,2553.3,13869.5,2300.8,13869.5,2033.1z"/>
</g>
<g>
	<rect x="12599.5" y="5827.5" fill="#CC0000" fill-opacity="0" width="1836" height="1836"/>
	<g>
		<path d="M13747,7204.5h-765c-84.2,0-153-68.9-153-153v-612c0-84.1,68.8-153,153-153h765c84.2,0,153,68.9,153,153v612
			C13900,7135.6,13831.2,7204.5,13747,7204.5z"/>
	</g>
	<path d="M14160.2,6363l-191.2,153v459l191.2,153c61.2,0,114.8-99.5,114.8-153v-459C14282.5,6462.5,14221.3,6363,14160.2,6363z"/>
</g>
<g>
	<rect x="9050" y="1161" fill="#CC0000" fill-opacity="0" width="1836" height="1836"/>
	<path d="M9776.7,1451.7v137.7l68.8,535.5c7.7,61.2,61.2,114.8,122.4,114.8l0,0c61.2,0,122.4-45.9,122.4-114.8l68.8-535.5v-137.7
		c0-84.2-68.8-153-153-153h-76.5C9845.5,1298.7,9776.7,1359.9,9776.7,1451.7z"/>
	<circle cx="9968" cy="2538" r="153"/>
</g>
<g>
	<rect x="-12622.5" y="1161" fill="#CC0000" fill-opacity="0" width="1836" height="1836"/>
	<path fill="#CC0000" d="M-12324.2,1520.6c0,61.2,15.3,397.8,405.5,787.9s726.8,397.8,788,405.4c23,0,30.6,0,38.2-15.3
		c38.2-68.9,145.3-267.8,145.3-267.8c0-15.3-7.7-30.6-23-38.2l-298.3-206.6c-15.3-7.7-30.6-7.7-38.2,0c0,0-30.6,30.6-53.5,53.6
		c-53.5,53.6-183.6-30.6-321.3-168.3s-214.2-267.8-168.3-321.3c15.3-15.3,45.9-45.9,53.5-53.6c7.7-7.7,7.7-22.9,0-38.2l-206.5-298.3
		c-7.7-15.3-23-22.9-38.2-22.9c0,0-206.5,107.1-267.8,145.3C-12316.5,1489.9-12324.2,1497.6-12324.2,1520.6z"/>
</g>
<g>
	<rect x="-9027" y="1161" fill="#CC0000" fill-opacity="0" width="1836" height="1836"/>
	<polygon points="-7726.5,1390.5 -7879.5,1543.5 -7726.5,1696.5 -8109,1696.5 -8109,1926 -7726.5,1926 -7879.5,2079 -7726.5,2232 
		-7359.3,1811.2 	"/>
	<path fill="#CC0000" d="M-9004,1757.7c0,68.8,15.3,413.1,420.8,818.6s749.7,413.1,818.5,420.8c23,0,30.6,0,38.2-15.3
		c38.2-68.9,153-283.1,153-283.1c0-15.3-7.6-30.6-23-45.9l-313.6-214.2c-15.3-7.6-30.6-7.6-38.2,0c0,0-30.6,30.6-53.5,53.6
		c-53.5,53.6-191.2-30.6-336.6-168.3c-145.4-145.3-221.9-283.1-168.3-336.6c15.3-15.3,45.9-45.9,53.5-53.6s7.6-22.9,0-38.2
		l-214.2-313.7c-7.7-15.3-30.6-22.9-45.9-22.9c0,0-214.2,114.8-283,153C-9004,1727.1-9004,1734.8-9004,1757.7z"/>
</g>
<g>
	<rect x="9333" y="5904" fill="#CC0000" fill-opacity="0" width="1836" height="1836"/>
	<path fill="#CC0000" d="M9945,7434h-76.5c-84.1,0-153-68.9-153-153v-918c0-84.1,68.9-153,153-153h76.5c84.2,0,153,68.9,153,153v918
		C10098,7365.1,10029.2,7434,9945,7434z"/>
	<path fill="#CC0000" d="M10557,7434h-76.5c-84.2,0-153-68.9-153-153v-918c0-84.1,68.8-153,153-153h76.5c84.2,0,153,68.9,153,153
		v918C10710,7365.1,10641.2,7434,10557,7434z"/>
</g>
<rect x="5661" y="5904" fill="#CC0000" fill-opacity="0" width="1836" height="1836"/>
<g>
	<rect x="-5355" y="1161" fill="#CC0000" fill-opacity="0" width="1836" height="1836"/>
	<g>
		<rect x="-4207.5" y="1390.5" fill="#CC0000" width="229.5" height="688.5"/>
		<rect x="-4437" y="1620" fill="#CC0000" width="688.5" height="229.5"/>
	</g>
	<path fill="#CC0000" d="M-5332,1734.8c0,68.8,15.3,413.1,420.8,818.6s749.7,413.1,818.6,420.8c22.9,0,30.6,0,38.2-15.3
		c38.2-68.9,153-283.1,153-283.1c0-15.3-7.6-30.6-22.9-45.9l-313.6-214.2c-15.3-7.6-30.6-7.6-38.2,0c0,0-30.6,30.6-53.5,53.6
		c-53.6,53.6-191.2-30.6-336.6-168.3c-145.4-145.3-221.9-283.1-168.3-336.6c15.3-15.3,45.9-45.9,53.6-53.6c7.6-7.7,7.6-22.9,0-38.2
		l-214.2-313.7c-7.6-15.3-30.6-22.9-45.9-22.9c0,0-214.2,114.8-283,153C-5332,1704.2-5332,1711.8-5332,1734.8z"/>
</g>
<g>
	<rect x="5737.5" y="1161" fill="#CC0000" fill-opacity="0" width="1836" height="1836"/>
	
		<rect x="6250.2" y="1957.4" transform="matrix(-0.7071 0.7071 -0.7071 -0.7071 12577.0664 -682.8779)" fill="#CC0000" width="359.5" height="612"/>
	
		<rect x="6311.8" y="2002.3" transform="matrix(-0.7071 0.7071 -0.7071 -0.7071 13260.3594 -1159.0707)" fill="#CC0000" width="1116.9" height="328.9"/>
</g>
<g>
	<rect x="16065" y="1138.1" fill="#CC0000" fill-opacity="0" width="1836" height="1836"/>
	<path fill="#CC0000" d="M17028.9,1497.6c191.2,0,344.2,153,344.2,344.2s-153,344.2-344.2,344.2s-344.2-153-344.2-344.2
		S16837.7,1497.6,17028.9,1497.6 M17028.9,1344.6c-275.4,0-497.2,221.8-497.2,497.2s221.8,497.2,497.2,497.2
		s497.2-221.8,497.2-497.2S17304.3,1344.6,17028.9,1344.6L17028.9,1344.6z"/>
	<path fill="#CC0000" d="M17281.3,2239.7c-53.6-22.9-160.7-53.6-252.5-53.6c-91.8,0-183.6,22.9-252.4,53.6
		c-91.8,38.2-183.6,145.3-260.1,244.8c-68.8,99.4,7.7,237.1,137.7,237.1h749.7c130,0,206.5-137.7,137.7-237.1
		C17457.3,2385,17365.5,2277.9,17281.3,2239.7z"/>
</g>
<g>
	<rect x="-8958.2" y="5904" fill-opacity="0" width="1836" height="1836"/>
	<rect x="-8958.2" y="5904" fill-opacity="0" width="1836" height="1836"/>
	<path d="M-7282.8,7357.5c45.9,45.9,53.5,107.1,15.3,145.4l-84.1,84.1c-38.2,38.2-99.5,30.6-145.4-15.3l-283-283
		c-45.9-45.9-53.5-107.1-15.3-145.4l84.1-84.1c38.2-38.2,99.5-30.6,145.4,15.3L-7282.8,7357.5z"/>
	<path d="M-8269.6,5980.5c-336.6,0-612,275.4-612,612s275.4,612,612,612c336.6,0,612-275.4,612-612S-7933,5980.5-8269.6,5980.5z
		 M-8262,6975c-214.2,0-382.5-168.3-382.5-382.5S-8476.2,6210-8262,6210s382.5,168.3,382.5,382.5S-8047.8,6975-8262,6975z"/>
</g>
<g>
	<rect x="-1224" y="1620" fill="#CC0000" fill-opacity="0" width="918" height="918"/>
	<rect x="-889.8" y="1671.4" transform="matrix(0.7071 0.7071 -0.7071 0.7071 1252.3517 1160.8253)" width="229.5" height="841.5"/>
	<polygon points="-994.5,1620 -994.5,1849.5 -535.5,1849.5 -535.5,2308.5 -306,2308.5 -306,1849.5 -306,1620 	"/>
</g>
<g>
	<rect x="2371.5" y="1773" fill="#CC0000" fill-opacity="0" width="841.5" height="841.5"/>
	<rect x="2371.5" y="1849.5" width="229.5" height="765"/>
	
		<rect x="2731.9" y="1721.6" transform="matrix(-0.7071 -0.7071 0.7071 -0.7071 3344.7534 5670.126)" width="229.5" height="841.5"/>
	<rect x="2371.5" y="2385" width="765" height="229.5"/>
</g>
<g>
	<rect y="90" fill="#B02B2A" fill-opacity="0" width="612" height="612"/>
	
		<rect x="197.6" y="113.5" transform="matrix(0.7071 0.7071 -0.7071 0.7071 382.3147 -68.6722)" fill="#B02B2A" width="153" height="627.3"/>
	<polygon fill="#B02B2A" points="76.5,90 76.5,243 459,243 459,625.5 612,625.5 612,243 612,90 	"/>
</g>
<g>
	<rect x="2142" y="21.2" fill="#CC0000" fill-opacity="0" width="604.4" height="604.3"/>
	<rect x="2142" y="90" width="153" height="535.5"/>
	
		<rect x="2401.3" y="-13.6" transform="matrix(-0.7071 -0.7071 0.7071 -0.7071 4038.8809 2250.0942)" width="168.3" height="604.3"/>
	<rect x="2142" y="472.5" width="535.5" height="153"/>
</g>
<g>
	<rect x="-5454.5" y="5904" fill-opacity="0" width="1836" height="1836"/>
	<g>
		<rect x="-4154" y="6516" width="229.5" height="688.5"/>
		<rect x="-4383.5" y="6745.5" width="688.5" height="229.5"/>
	</g>
	<path d="M-4880.7,6210c-191.3,0-344.3,153-344.3,344.2s153,344.2,344.2,344.2s344.2-153,344.2-344.2S-4689.4,6210-4880.7,6210
		L-4880.7,6210z"/>
	<path d="M-4651.2,6959.7c-53.6-23-145.4-53.5-237.1-53.5c-84.2,0-176,23-237.2,53.5c-84.1,38.2-168.3,137.7-237.1,237.1
		c-68.9,99.5,7.6,229.5,122.4,229.5h696.1c122.4,0,191.2-130,122.4-229.5C-4482.9,7097.4-4567.1,6998-4651.2,6959.7z"/>
</g>
<g>
	<rect x="-1683" y="5904" fill="#CC0000" fill-opacity="0" width="1836" height="1836"/>
	<path d="M0,6133.5h-1453.5V6516h153v-229.5H-153V7128h-1147.5v-229.5h-153V7281H-918v153h-153v153h688.5v-153h-153v-153H0V6133.5z"
		/>
	<g>
		<polygon fill="#CC0000" points="-765,6722.5 -1147.5,6439.5 -1147.5,6592.5 -1530,6592.5 -1530,6822 -1147.5,6822 -1147.5,7013.2 
					"/>
	</g>
</g>
<g>
	<rect x="-15476" y="1138.1" fill="#CC0000" fill-opacity="0" width="1836" height="1836"/>
	<path fill="#CC0000" d="M-13724.1,2017.8c-45.9-45.9-290.7-275.4-841.5-275.4s-795.6,229.5-841.5,275.4
		c-15.3,15.3-23,22.9-15.3,38.2c23,76.5,84.2,298.4,84.2,298.4c7.7,15.3,30.6,22.9,45.9,15.3l359.5-68.9c15.3-7.6,23-15.3,23-30.6
		c0-7.7,0-45.9,0-68.9c0-76.5,145.3-107.1,344.2-107.1c191.2,0,344.2,38.2,344.2,107.1c0,22.9,0,68.9,0,68.9
		c0,15.3,7.7,22.9,23,30.6l359.5,68.9c15.3,7.6,38.2,0,45.9-15.3c0,0,68.8-221.9,84.2-298.4
		C-13708.8,2040.8-13708.8,2033.1-13724.1,2017.8z"/>
</g>
<g>
	<rect x="1989" y="5904" fill-opacity="0" width="1836" height="1836"/>
	<path fill="#CC0000" d="M2409.8,6898.5c-229.5,0-420.8,191.2-420.8,420.8s191.2,420.8,420.8,420.8s420.8-191.2,420.8-420.8
		S2639.2,6898.5,2409.8,6898.5z M2409.8,7510.5c-107.1,0-191.2-84.1-191.2-191.2s84.2-191.2,191.2-191.2
		c107.1,0,191.2,84.1,191.2,191.2S2516.9,7510.5,2409.8,7510.5z"/>
	<path fill="#CC0000" d="M3404.2,6898.5c-229.5,0-420.8,191.2-420.8,420.8s191.2,420.8,420.8,420.8s420.8-191.2,420.8-420.8
		S3633.8,6898.5,3404.2,6898.5z M3404.2,7510.5c-107.1,0-191.2-84.1-191.2-191.2s84.1-191.2,191.2-191.2s191.2,84.1,191.2,191.2
		S3511.4,7510.5,3404.2,7510.5z"/>
	<rect x="2371.5" y="7510.5" fill="#CC0000" width="994.5" height="229.5"/>
</g>
<rect x="-12622.5" y="5904" fill-opacity="0" width="1836" height="1836"/>
<rect x="-12622.5" y="5904" fill-opacity="0" width="1836" height="1836"/>
<path d="M-10939.5,6975v-306h-168.3c-15.3-53.5-38.2-107.1-68.8-160.6l114.8-114.8l-214.2-214.2l-114.8,114.8
	c-45.9-30.6-99.5-53.5-160.7-61.2V6057h-306v176c-53.5,15.3-107.1,38.2-160.7,61.2l-114.8-114.8l-214.2,214.2l114.8,114.8
	c-30.6,45.9-53.5,99.5-61.2,160.6h-168.3v306h176c15.3,53.5,38.2,107.1,68.8,153l-114.8,114.8l214.2,214.2l114.8-114.8
	c45.9,30.6,99.5,53.5,160.7,68.9V7587h306v-176c53.5-15.3,107.1-38.2,153-68.9l122.4,122.4l214.2-214.2L-11169,7128
	c30.6-45.9,53.5-99.5,68.8-153L-10939.5,6975L-10939.5,6975z M-11704.5,7120.4c-168.3,0-306-145.4-306-306
	c0-168.3,137.7-298.4,306-298.4s306,130,306,298.4C-11398.5,6982.6-11536.2,7120.4-11704.5,7120.4z"/>
<g>
	<rect x="5661" y="5904" fill="#CC0000" fill-opacity="0" width="1836" height="1836"/>
	<path fill="#CC0000" d="M6938.5,6959.7l-550.8,351.9c-114.8,76.5-267.8-7.6-267.8-145.4v-703.8c0-137.7,153-221.9,267.8-145.4
		l550.8,351.9C7045.6,6737.9,7045.6,6890.9,6938.5,6959.7z"/>
</g>
<g>
	<rect x="5661" y="10570.5" fill="#CC0000" fill-opacity="0" width="1836" height="1836"/>
	<path fill="#CC0000" d="M6885,11947.5h-612c-84.1,0-153-68.8-153-153v-612c0-84.2,68.9-153,153-153h612c84.1,0,153,68.8,153,153
		v612C7038,11878.7,6969.1,11947.5,6885,11947.5z"/>
</g>
<g>
	<rect x="16110.9" y="5827.5" fill="#CC0000" fill-opacity="0" width="1836" height="1836"/>
	<circle cx="16600.5" cy="6210" r="153"/>
	<circle cx="17059.5" cy="6210" r="153"/>
	<circle cx="17518.5" cy="6210" r="153"/>
	<circle cx="17518.5" cy="6592.5" r="153"/>
	<circle cx="17518.5" cy="6975" r="153"/>
	<circle cx="17059.5" cy="6975" r="153"/>
	<circle cx="17059.5" cy="6592.5" r="153"/>
	<circle cx="16600.5" cy="6592.5" r="153"/>
	<circle cx="16600.5" cy="6975" r="153"/>
	<circle cx="17059.5" cy="7357.5" r="153"/>
</g>
<g>
	<rect x="-15529.5" y="5827.5" fill="#CC0000" fill-opacity="0" width="1836" height="1836"/>
	<circle cx="-14611.5" cy="6286.5" r="153"/>
	<circle cx="-14611.5" cy="7204.5" r="153"/>
	<circle cx="-14611.5" cy="6745.5" r="153"/>
</g>
<g>
	<rect x="2142" y="10570.5" fill="#CC0000" fill-opacity="0" width="1836" height="1836"/>
	<g>
		<path fill="#CC0000" d="M2914.6,11748.6l-214.2-214.2c-30.6-30.6-30.6-76.5,0-107.1l0,0c30.6-30.6,76.5-30.6,107.1,0l214.2,214.2
			c30.6,30.6,30.6,76.5,0,107.1l0,0C2991.1,11779.2,2945.2,11779.2,2914.6,11748.6z"/>
		<path fill="#CC0000" d="M2914.6,11748.6L2914.6,11748.6c-30.6-30.6-30.6-76.5,0-107.1l436.1-436c30.6-30.6,76.5-30.6,107.1,0l0,0
			c30.6,30.6,30.6,76.5,0,107.1l-436.1,436C2991.1,11779.2,2945.2,11779.2,2914.6,11748.6z"/>
	</g>
</g>
<g>
	<rect x="-1606.5" y="10570.5" fill="#CC0000" fill-opacity="0" width="1836" height="1836"/>
	<path fill="#CC0000" d="M-1040.4,11840.4L-1040.4,11840.4c-30.6-30.6-30.6-76.5,0-107.1l596.7-596.7c30.6-30.6,76.5-30.6,107.1,0
		l0,0c30.6,30.6,30.6,76.5,0,107.1l-596.7,596.7C-963.9,11871-1009.8,11871-1040.4,11840.4z"/>
	<path fill="#CC0000" d="M-1040.4,11136.6L-1040.4,11136.6c30.6-30.6,76.5-30.6,107.1,0l596.7,596.7c30.6,30.6,30.6,76.5,0,107.1
		l0,0c-30.6,30.6-76.5,30.6-107.1,0l-596.7-596.7C-1071,11213.1-1071,11167.2-1040.4,11136.6z"/>
</g>
</svg>
