<?xml version="1.0" encoding="utf-8"?>
<!-- Generator: Adobe Illustrator 18.1.1, SVG Export Plug-In . SVG Version: 6.00 Build 0)  -->
<svg version="1.1" id="Layer_1" xmlns="http://www.w3.org/2000/svg" xmlns:xlink="http://www.w3.org/1999/xlink" x="0px" y="0px"
	 viewBox="12.2 208 591.8 208" enable-background="new 12.2 208 591.8 208" xml:space="preserve">
<path id="path-1" fill="#FFFFFF" d="M591.6,300.2C576.3,284.9,492.1,211,306,211c-186.1,0-270.3,73.9-285.6,89.2
	c-5.1,5.1-7.6,7.6-5.1,12.8c7.6,25.5,30.6,96.9,30.6,96.9c2.6,5.1,10.2,7.6,15.3,5.1l122.4-22.9c5.1-2.6,7.6-5.1,7.6-10.2
	c0-2.6,0-15.3,0-22.9c0-22.9,51-35.7,117.3-35.7s117.3,12.8,117.3,35.7c0,7.6,0,20.4,0,22.9c0,5.1,2.6,7.6,7.6,10.2L555.8,415
	c5.1,2.6,12.8,0,15.3-5.1c0,0,22.9-71.4,30.6-96.9C599.2,307.9,599.2,305.4,591.6,300.2z"/>
</svg>
