<?xml version="1.0" encoding="utf-8"?>
<!-- Generator: Adobe Illustrator 18.1.0, SVG Export Plug-In . SVG Version: 6.00 Build 0)  -->
<!DOCTYPE svg PUBLIC "-//W3C//DTD SVG 1.1//EN" "http://www.w3.org/Graphics/SVG/1.1/DTD/svg11.dtd">
<svg version="1.1" id="Layer_1" xmlns="http://www.w3.org/2000/svg" xmlns:xlink="http://www.w3.org/1999/xlink" x="0px" y="0px"
	 viewBox="0 0 24 24" enable-background="new 0 0 24 24" xml:space="preserve">
<g>
	<rect x="0" y="0" opacity="0" fill="#0B080D" width="24" height="24"/>
	<path fill="#0B080D" d="M19.3,3.3c-0.4-0.4-1-0.4-1.4,0l0,0L16.2,5c-0.4-1.9-2-3.3-3.9-3.3c-1.1,0-2.1,0.5-2.8,1.2c0,0,0,0,0,0
		C9.2,3.2,9.1,3.3,8.9,3.5C8.8,3.7,8.8,3.8,8.7,4c0,0.1-0.1,0.2-0.1,0.2c-0.2,0.5-0.3,1-0.3,1.6v6c0,0.4,0.1,0.7,0.2,1l-0.8,0.8
		c-0.2-0.6-0.4-1.2-0.4-1.8h0c0-0.6-0.4-1-1-1c-0.6,0-1,0.4-1,1c0,0,0,0,0,0c0,1.2,0.3,2.3,0.8,3.3l-2.3,2.3l0,0
		c-0.3,0.4-0.3,1,0,1.4c0.4,0.4,1,0.4,1.4,0l0,0l0,0c0,0,0,0,0,0s0,0,0,0l2.1-2.1l0,0l1.4-1.4l0,0l1.4-1.4l0,0l5.1-5.1v0l4-4
		c0,0,0,0,0,0C19.7,4.3,19.7,3.7,19.3,3.3z"/>
	<path fill="#0B080D" d="M16.3,11.7v-0.2v-1l-1.6,1.6v0l-3.5,3.5c0.3,0.1,0.7,0.2,1,0.2C14.5,15.8,16.3,14,16.3,11.7z"/>
	<path fill="#0B080D" d="M19.3,11.8L19.3,11.8c0-0.6-0.4-1-1-1c-0.6,0-1,0.4-1,1l0,0c0,2.8-2.2,5-5,5c-0.6,0-1.3-0.1-1.8-0.4
		l-1.5,1.5c0.7,0.4,1.2,1,2.1,1.1v1H9c-0.6,0-1,0.4-1,1c0,0.6,0.4,1,1,1h6c0.6,0,1-0.4,1-1c0-0.6-0.4-1-1-1h-2v-1
		C16.4,18.5,19.3,15.3,19.3,11.8z"/>
</g>
<g>
	<rect x="2.7" y="61.3" opacity="0" fill="#0B080D" width="24" height="24"/>
	<g>
		<path d="M17.7,79.3h-10c-1.1,0-2-0.9-2-2v-8c0-1.1,0.9-2,2-2h10c1.1,0,2,0.9,2,2l0,8C19.7,78.4,18.8,79.3,17.7,79.3z"/>
	</g>
	<path d="M23.1,68.3l-2.5,2v6l2.5,2c0.8,0,1.5-1.3,1.5-2v-6C24.7,69.6,23.9,68.3,23.1,68.3z"/>
</g>
<g>
	<rect x="-43.7" y="0.3" opacity="0" fill="#0B080D" width="24" height="24"/>
	<path d="M-34.2,4.1v1.8l0.9,7c0.1,0.8,0.8,1.5,1.6,1.5h0c0.8,0,1.6-0.6,1.6-1.5l0.9-7V4.1c0-1.1-0.9-2-2-2h-1
		C-33.3,2.1-34.2,3-34.2,4.1z"/>
	<circle cx="-31.7" cy="18.3" r="2"/>
</g>
<g>
	<rect x="-327" y="0.3" opacity="0" fill="#0B080D" width="24" height="24"/>
	<path fill="#0B080D" d="M-323.1,5c0,0.8,0.2,5.2,5.3,10.3s9.5,5.2,10.3,5.3c0.3,0,0.4,0,0.5-0.2c0.5-0.9,1.9-3.5,1.9-3.5
		c0-0.2-0.1-0.4-0.3-0.5l-3.9-2.7c-0.2-0.1-0.4-0.1-0.5,0c0,0-0.4,0.4-0.7,0.7c-0.7,0.7-2.4-0.4-4.2-2.2c-1.8-1.8-2.8-3.5-2.2-4.2
		c0.2-0.2,0.6-0.6,0.7-0.7c0.1-0.1,0.1-0.3,0-0.5l-2.7-3.9c-0.1-0.2-0.3-0.3-0.5-0.3c0,0-2.7,1.4-3.5,1.9
		C-323,4.6-323.1,4.7-323.1,5z"/>
</g>
<g>
	<rect x="-280" y="0.3" opacity="0" fill="#0B080D" width="24" height="24"/>
	<polygon points="-263,3.3 -265,5.3 -263,7.3 -268,7.3 -268,10.3 -263,10.3 -265,12.3 -263,14.3 -258.2,8.8 	"/>
	<path fill="#0B080D" d="M-279.7,8.2c0,0.9,0.2,5.4,5.5,10.7c5.3,5.3,9.8,5.4,10.7,5.5c0.3,0,0.4,0,0.5-0.2c0.5-0.9,2-3.7,2-3.7
		c0-0.2-0.1-0.4-0.3-0.6l-4.1-2.8c-0.2-0.1-0.4-0.1-0.5,0c0,0-0.4,0.4-0.7,0.7c-0.7,0.7-2.5-0.4-4.4-2.2c-1.9-1.9-2.9-3.7-2.2-4.4
		c0.2-0.2,0.6-0.6,0.7-0.7c0.1-0.1,0.1-0.3,0-0.5l-2.8-4.1c-0.1-0.2-0.4-0.3-0.6-0.3c0,0-2.8,1.5-3.7,2
		C-279.7,7.8-279.7,7.8-279.7,8.2z"/>
</g>
<g>
	<rect x="-40" y="62.3" opacity="0" fill="#0B080D" width="24" height="24"/>
	<path fill="#0B080D" d="M-32,82.3h-1c-1.1,0-2-0.9-2-2v-12c0-1.1,0.9-2,2-2h1c1.1,0,2,0.9,2,2v12C-30,81.4-30.9,82.3-32,82.3z"/>
	<path fill="#0B080D" d="M-24,82.3h-1c-1.1,0-2-0.9-2-2v-12c0-1.1,0.9-2,2-2h1c1.1,0,2,0.9,2,2v12C-22,81.4-22.9,82.3-24,82.3z"/>
</g>
<rect x="-88" y="62.3" opacity="0" fill="#0B080D" width="24" height="24"/>
<g>
	<rect x="-232" y="0.3" opacity="0" fill="#0B080D" width="24" height="24"/>
	<g>
		<rect x="-217" y="3.3" fill="#0B080D" width="3" height="9"/>
		<rect x="-220" y="6.3" fill="#0B080D" width="9" height="3"/>
	</g>
	<path fill="#0B080D" d="M-231.7,7.9c0,0.9,0.2,5.4,5.5,10.7c5.3,5.3,9.8,5.4,10.7,5.5c0.3,0,0.4,0,0.5-0.2c0.5-0.9,2-3.7,2-3.7
		c0-0.2-0.1-0.4-0.3-0.6l-4.1-2.8c-0.2-0.1-0.4-0.1-0.5,0c0,0-0.4,0.4-0.7,0.7c-0.7,0.7-2.5-0.4-4.4-2.2c-1.9-1.9-2.9-3.7-2.2-4.4
		c0.2-0.2,0.6-0.6,0.7-0.7c0.1-0.1,0.1-0.3,0-0.5l-2.8-4.1c-0.1-0.2-0.4-0.3-0.6-0.3c0,0-2.8,1.5-3.7,2
		C-231.7,7.5-231.7,7.5-231.7,7.9z"/>
</g>
<g>
	<rect x="-87" y="0.3" opacity="0" fill="#0B080D" width="24" height="24"/>
	
		<rect x="-80.3" y="10.7" transform="matrix(0.7071 -0.7071 0.7071 0.7071 -33.2465 -50.7941)" fill="#0B080D" width="4.7" height="8"/>
	
		<rect x="-79.5" y="11.3" transform="matrix(0.7071 -0.7071 0.7071 0.7071 -30.6733 -47.1069)" fill="#0B080D" width="14.6" height="4.3"/>
</g>
<g>
	<rect x="48" y="0" opacity="0" fill="#0B080D" width="24" height="24"/>
	<path fill="#231F20" d="M60.6,4.7c2.5,0,4.5,2,4.5,4.5s-2,4.5-4.5,4.5s-4.5-2-4.5-4.5S58.1,4.7,60.6,4.7 M60.6,2.8
		c-3.6,0-6.5,2.9-6.5,6.5s2.9,6.5,6.5,6.5c3.6,0,6.5-2.9,6.5-6.5S64.2,2.8,60.6,2.8L60.6,2.8z"/>
	<path fill="#231F20" d="M63.9,14.4c-0.7-0.3-2.1-0.7-3.3-0.7c-1.2,0-2.4,0.3-3.3,0.7c-1.2,0.5-2.4,1.9-3.4,3.2
		C53,19,54,20.8,55.7,20.8h9.8c1.7,0,2.7-1.8,1.8-3.1C66.2,16.3,65,14.9,63.9,14.4z"/>
</g>
<g>
	<rect x="-279.1" y="62.3" opacity="0" width="24" height="24"/>
	<rect x="-279.1" y="62.3" opacity="0" width="24" height="24"/>
	<path d="M-257.2,81.3c0.6,0.6,0.7,1.4,0.2,1.9l-1.1,1.1c-0.5,0.5-1.3,0.4-1.9-0.2l-3.7-3.7c-0.6-0.6-0.7-1.4-0.2-1.9l1.1-1.1
		c0.5-0.5,1.3-0.4,1.9,0.2L-257.2,81.3z"/>
	<path d="M-270.1,63.3c-4.4,0-8,3.6-8,8s3.6,8,8,8s8-3.6,8-8S-265.7,63.3-270.1,63.3z M-270,76.3c-2.8,0-5-2.2-5-5c0-2.8,2.2-5,5-5
		c2.8,0,5,2.2,5,5C-265,74.1-267.2,76.3-270,76.3z"/>
</g>
<g>
	<rect x="-184" y="0.3" opacity="0" fill="#0B080D" width="24" height="24"/>
	<rect x="-173.7" y="7" transform="matrix(-0.7071 -0.7071 0.7071 -0.7071 -302.7576 -100.3965)" width="3" height="11"/>
	<polygon points="-175,6.3 -175,9.3 -169,9.3 -169,15.3 -166,15.3 -166,9.3 -166,6.3 	"/>
</g>
<g>
	<rect x="-136" y="0.3" opacity="0" fill="#0B080D" width="24" height="24"/>
	<rect x="-131" y="9.3" width="3" height="10"/>
	<rect x="-126.3" y="7.7" transform="matrix(0.7071 0.7071 -0.7071 0.7071 -27.2546 92.122)" width="3" height="11"/>
	<rect x="-131" y="16.3" width="10" height="3"/>
</g>
<g>
	<rect x="-233.3" y="62.3" opacity="0" width="24" height="24"/>
	<g>
		<rect x="-216.3" y="70.3" width="3" height="9"/>
		<rect x="-219.3" y="73.3" width="9" height="3"/>
	</g>
	<path d="M-225.8,66.3c-2.5,0-4.5,2-4.5,4.5c0,2.5,2,4.5,4.5,4.5c2.5,0,4.5-2,4.5-4.5C-221.3,68.3-223.3,66.3-225.8,66.3
		L-225.8,66.3z"/>
	<path d="M-222.8,76.1c-0.7-0.3-1.9-0.7-3.1-0.7c-1.1,0-2.3,0.3-3.1,0.7c-1.1,0.5-2.2,1.8-3.1,3.1c-0.9,1.3,0.1,3,1.6,3h9.1
		c1.6,0,2.5-1.7,1.6-3C-220.6,78-221.7,76.6-222.8,76.1z"/>
</g>
<rect x="-136" y="62.3" opacity="0" width="24" height="24"/>
<g>
	<rect x="-184" y="62.7" opacity="0" fill="#0B080D" width="24" height="24"/>
	<path d="M-162,65.7h-19v5h2v-3h15v11h-15v-3h-2v5h7v2h-2v2h9v-2h-2v-2h7V65.7z"/>
	<g>
		<polygon fill="#0B080D" points="-172,73.4 -177,69.7 -177,71.7 -182,71.7 -182,74.7 -177,74.7 -177,77.2 		"/>
	</g>
</g>
<g>
	<rect x="-364.3" y="0" opacity="0" fill="#0B080D" width="24" height="24"/>
	<path fill="#0B080D" d="M-341.4,11.6c-0.6-0.6-3.8-3.6-11-3.6c-7.2,0-10.4,3-11,3.6c-0.2,0.2-0.3,0.3-0.2,0.5
		c0.3,1,1.1,3.9,1.1,3.9c0.1,0.2,0.4,0.3,0.6,0.2l4.7-0.9c0.2-0.1,0.3-0.2,0.3-0.4c0-0.1,0-0.6,0-0.9c0-1,1.9-1.4,4.5-1.4
		c2.5,0,4.5,0.5,4.5,1.4c0,0.3,0,0.9,0,0.9c0,0.2,0.1,0.3,0.3,0.4l4.7,0.9c0.2,0.1,0.5,0,0.6-0.2c0,0,0.9-2.9,1.1-3.9
		C-341.2,11.8-341.2,11.8-341.4,11.6z"/>
</g>
<path fill="#0B080D" d="M-130.5,75.3c-3,0-5.5,2.5-5.5,5.5s2.5,5.5,5.5,5.5s5.5-2.5,5.5-5.5S-127.5,75.3-130.5,75.3z M-130.5,83.3
	c-1.4,0-2.5-1.1-2.5-2.5c0-1.4,1.1-2.5,2.5-2.5s2.5,1.1,2.5,2.5C-128,82.2-129.1,83.3-130.5,83.3z"/>
<path fill="#0B080D" d="M-117.5,75.3c-3,0-5.5,2.5-5.5,5.5s2.5,5.5,5.5,5.5s5.5-2.5,5.5-5.5S-114.5,75.3-117.5,75.3z M-117.5,83.3
	c-1.4,0-2.5-1.1-2.5-2.5c0-1.4,1.1-2.5,2.5-2.5s2.5,1.1,2.5,2.5C-115,82.2-116.1,83.3-117.5,83.3z"/>
<rect x="-131" y="83.3" fill="#0B080D" width="13" height="3"/>
<rect x="-327" y="62.3" opacity="0" width="24" height="24"/>
<rect x="-327" y="62.3" opacity="0" width="24" height="24"/>
<path d="M-305,76.3v-4h-2.2c-0.2-0.7-0.5-1.4-0.9-2.1l1.5-1.5l-2.8-2.8l-1.5,1.5c-0.6-0.4-1.3-0.7-2.1-0.8v-2.3h-4v2.3
	c-0.7,0.2-1.4,0.5-2.1,0.8l-1.5-1.5l-2.8,2.8l1.5,1.5c-0.4,0.6-0.7,1.3-0.8,2.1h-2.2v4h2.3c0.2,0.7,0.5,1.4,0.9,2l-1.5,1.5l2.8,2.8
	l1.5-1.5c0.6,0.4,1.3,0.7,2.1,0.9v2.3h4v-2.3c0.7-0.2,1.4-0.5,2-0.9l1.6,1.6l2.8-2.8l-1.6-1.6c0.4-0.6,0.7-1.3,0.9-2H-305z
	 M-315,78.3c-2.2,0-4-1.9-4-4c0-2.2,1.8-3.9,4-3.9c2.2,0,4,1.7,4,3.9C-311,76.4-312.8,78.3-315,78.3z"/>
<g>
	<path opacity="0" fill="#0B080D" d="M-66,86.3h-20c-1.1,0-2-0.9-2-2v-20c0-1.1,0.9-2,2-2h20c1.1,0,2,0.9,2,2v20
		C-64,85.4-64.9,86.3-66,86.3z"/>
	<path fill="#0B080D" d="M-71.3,76.1l-7.2,4.6c-1.5,1-3.5-0.1-3.5-1.9v-9.2c0-1.8,2-2.9,3.5-1.9l7.2,4.6
		C-69.9,73.2-69.9,75.2-71.3,76.1z"/>
</g>
</svg>
