<?xml version="1.0" encoding="utf-8"?>
<!-- Generator: Adobe Illustrator 18.1.1, SVG Export Plug-In . SVG Version: 6.00 Build 0)  -->
<svg version="1.1" id="Layer_1" xmlns="http://www.w3.org/2000/svg" xmlns:xlink="http://www.w3.org/1999/xlink" x="0px" y="0px"
	 viewBox="0 0 26.8 12.4" enable-background="new 0 0 26.8 12.4" xml:space="preserve">
<path fill="#1BB24B" stroke="#19B24B" stroke-miterlimit="10" d="M6.3,0.8c-3,0-5.5,2.5-5.5,5.5s2.5,5.5,5.5,5.5
	c3,0,5.5-2.5,5.5-5.5S9.3,0.8,6.3,0.8z M6.3,8.8c-1.4,0-2.5-1.1-2.5-2.5c0-1.4,1.1-2.5,2.5-2.5c1.4,0,2.5,1.1,2.5,2.5
	C8.8,7.7,7.7,8.8,6.3,8.8z"/>
<path fill="#1BB24B" stroke="#19B24B" stroke-miterlimit="10" d="M19.3,0.8c-3,0-5.5,2.5-5.5,5.5s2.5,5.5,5.5,5.5
	c3,0,5.5-2.5,5.5-5.5S22.3,0.8,19.3,0.8z M19.3,8.8c-1.4,0-2.5-1.1-2.5-2.5c0-1.4,1.1-2.5,2.5-2.5c1.4,0,2.5,1.1,2.5,2.5
	C21.8,7.7,20.7,8.8,19.3,8.8z"/>
<path fill="#1BB24B" stroke="#19B24B" stroke-miterlimit="10" d="M18.8,11.8H6.4l-0.6-3h13V11.8z"/>
</svg>
