<?xml version="1.0" encoding="utf-8"?>
<!-- Generator: Adobe Illustrator 18.1.1, SVG Export Plug-In . SVG Version: 6.00 Build 0)  -->
<svg version="1.1" id="Layer_1" xmlns="http://www.w3.org/2000/svg" xmlns:xlink="http://www.w3.org/1999/xlink" x="0px" y="0px"
	 viewBox="0 0 23.6 22.1" enable-background="new 0 0 23.6 22.1" xml:space="preserve">
<path id="path-1" fill="#FFFFFF" d="M19.9,6.8v3h-3v-3h-3v-3h3v-3h3v3h3v3H19.9z M14.2,15c0.2-0.2,0.6-0.6,0.7-0.7
	c0.1-0.1,0.3-0.1,0.5,0l4.1,2.8c0.2,0.1,0.3,0.4,0.3,0.6c0,0-1.5,2.8-2,3.7c-0.1,0.2-0.2,0.2-0.5,0.2c-0.9,0-5.5-0.2-10.9-5.5
	C1,10.8,0.8,6.3,0.8,5.4c0-0.3,0-0.4,0.2-0.5c0.9-0.5,3.8-2,3.8-2c0.2,0,0.5,0.1,0.6,0.3l2.8,4.1c0.1,0.2,0.1,0.4,0,0.5
	c0,0-0.4,0.4-0.7,0.7c-0.7,0.7,0.4,2.5,2.3,4.4C11.7,14.6,13.5,15.7,14.2,15z"/>
</svg>
