<?xml version="1.0" encoding="utf-8"?>
<!-- Generator: Adobe Illustrator 18.1.0, SVG Export Plug-In . SVG Version: 6.00 Build 0)  -->
<!DOCTYPE svg PUBLIC "-//W3C//DTD SVG 1.1//EN" "http://www.w3.org/Graphics/SVG/1.1/DTD/svg11.dtd">
<svg version="1.1" id="Layer_1" xmlns="http://www.w3.org/2000/svg" xmlns:xlink="http://www.w3.org/1999/xlink" x="0px" y="0px"
	 viewBox="0 0 24 24" enable-background="new 0 0 24 24" xml:space="preserve">
<g>
	<rect x="327" y="-0.3" opacity="0" fill="#0B080D" width="24" height="24"/>
	<path fill="#0B080D" d="M346.3,3c-0.4-0.4-1-0.4-1.4,0l0,0l-1.7,1.7c-0.4-1.9-2-3.3-3.9-3.3c-1.1,0-2.1,0.5-2.8,1.2c0,0,0,0,0,0
		c-0.2,0.2-0.3,0.4-0.5,0.6c-0.1,0.1-0.2,0.3-0.2,0.4c0,0.1-0.1,0.2-0.1,0.2c-0.2,0.5-0.3,1-0.3,1.6v6c0,0.4,0.1,0.7,0.2,1l-0.8,0.8
		c-0.2-0.6-0.4-1.2-0.4-1.8h0c0-0.6-0.4-1-1-1c-0.6,0-1,0.4-1,1c0,0,0,0,0,0c0,1.2,0.3,2.3,0.8,3.3l-2.3,2.3l0,0
		c-0.3,0.4-0.3,1,0,1.4c0.4,0.4,1,0.4,1.4,0l0,0l0,0c0,0,0,0,0,0s0,0,0,0l2.1-2.1l0,0l1.4-1.4l0,0l1.4-1.4l0,0l5.1-5.1v0l4-4
		c0,0,0,0,0,0C346.7,4,346.7,3.4,346.3,3z"/>
	<path fill="#0B080D" d="M343.3,11.4v-0.2v-1l-1.6,1.6v0l-3.5,3.5c0.3,0.1,0.7,0.2,1,0.2C341.5,15.4,343.3,13.6,343.3,11.4z"/>
	<path fill="#0B080D" d="M346.3,11.4L346.3,11.4c0-0.6-0.4-1-1-1c-0.6,0-1,0.4-1,1l0,0c0,2.8-2.2,5-5,5c-0.6,0-1.3-0.1-1.8-0.4
		l-1.5,1.5c0.7,0.4,1.2,1,2.1,1.1v1h-2c-0.6,0-1,0.4-1,1c0,0.6,0.4,1,1,1h6c0.6,0,1-0.4,1-1c0-0.6-0.4-1-1-1h-2v-1
		C343.4,18.2,346.3,14.9,346.3,11.4z"/>
</g>
<g>
	<rect x="329.7" y="61" opacity="0" fill="#0B080D" width="24" height="24"/>
	<g>
		<path d="M344.7,79h-10c-1.1,0-2-0.9-2-2v-8c0-1.1,0.9-2,2-2h10c1.1,0,2,0.9,2,2l0,8C346.7,78.1,345.8,79,344.7,79z"/>
	</g>
	<path d="M350.1,68l-2.5,2v6l2.5,2c0.8,0,1.5-1.3,1.5-2v-6C351.7,69.3,350.9,68,350.1,68z"/>
</g>
<g>
	<rect x="283.3" y="0" opacity="0" fill="#0B080D" width="24" height="24"/>
	<path d="M292.8,3.8v1.8l0.9,7c0.1,0.8,0.8,1.5,1.6,1.5h0c0.8,0,1.6-0.6,1.6-1.5l0.9-7V3.8c0-1.1-0.9-2-2-2h-1
		C293.7,1.8,292.8,2.6,292.8,3.8z"/>
	<circle cx="295.3" cy="18" r="2"/>
</g>
<g>
	<rect y="0" opacity="0" fill="#0B080D" width="24" height="24"/>
	<path fill="#0B080D" d="M3.9,4.7C4,5.5,4.1,9.9,9.2,15s9.5,5.2,10.3,5.3c0.3,0,0.4,0,0.5-0.2c0.5-0.9,1.9-3.5,1.9-3.5
		c0-0.2-0.1-0.4-0.3-0.5l-3.9-2.7c-0.2-0.1-0.4-0.1-0.5,0c0,0-0.4,0.4-0.7,0.7c-0.7,0.7-2.4-0.4-4.2-2.2c-1.8-1.8-2.8-3.5-2.2-4.2
		c0.2-0.2,0.6-0.6,0.7-0.7c0.1-0.1,0.1-0.3,0-0.5L8.2,2.5C8.1,2.3,7.9,2.2,7.7,2.2c0,0-2.7,1.4-3.5,1.9C4,4.3,3.9,4.4,3.9,4.7z"/>
</g>
<g>
	<rect x="47" y="0" opacity="0" fill="#0B080D" width="24" height="24"/>
	<polygon points="64,3 62,5 64,7 59,7 59,10 64,10 62,12 64,14 68.8,8.5 	"/>
	<path fill="#0B080D" d="M47.3,7.8c0,0.9,0.2,5.4,5.5,10.7S62.6,24,63.5,24c0.3,0,0.4,0,0.5-0.2c0.5-0.9,2-3.7,2-3.7
		c0-0.2-0.1-0.4-0.3-0.6l-4.1-2.8c-0.2-0.1-0.4-0.1-0.5,0c0,0-0.4,0.4-0.7,0.7c-0.7,0.7-2.5-0.4-4.4-2.2c-1.9-1.9-2.9-3.7-2.2-4.4
		c0.2-0.2,0.6-0.6,0.7-0.7c0.1-0.1,0.1-0.3,0-0.5l-2.8-4.1c-0.1-0.2-0.4-0.3-0.6-0.3c0,0-2.8,1.5-3.7,2C47.3,7.4,47.3,7.5,47.3,7.8z
		"/>
</g>
<g>
	<rect x="287" y="62" opacity="0" fill="#0B080D" width="24" height="24"/>
	<path fill="#0B080D" d="M295,82h-1c-1.1,0-2-0.9-2-2V68c0-1.1,0.9-2,2-2h1c1.1,0,2,0.9,2,2v12C297,81.1,296.1,82,295,82z"/>
	<path fill="#0B080D" d="M303,82h-1c-1.1,0-2-0.9-2-2V68c0-1.1,0.9-2,2-2h1c1.1,0,2,0.9,2,2v12C305,81.1,304.1,82,303,82z"/>
</g>
<rect x="239" y="62" opacity="0" fill="#0B080D" width="24" height="24"/>
<g>
	<rect x="95" y="0" opacity="0" fill="#0B080D" width="24" height="24"/>
	<g>
		<rect x="110" y="3" fill="#0B080D" width="3" height="9"/>
		<rect x="107" y="6" fill="#0B080D" width="9" height="3"/>
	</g>
	<path fill="#0B080D" d="M95.3,7.5c0,0.9,0.2,5.4,5.5,10.7c5.3,5.3,9.8,5.4,10.7,5.5c0.3,0,0.4,0,0.5-0.2c0.5-0.9,2-3.7,2-3.7
		c0-0.2-0.1-0.4-0.3-0.6l-4.1-2.8c-0.2-0.1-0.4-0.1-0.5,0c0,0-0.4,0.4-0.7,0.7c-0.7,0.7-2.5-0.4-4.4-2.2c-1.9-1.9-2.9-3.7-2.2-4.4
		c0.2-0.2,0.6-0.6,0.7-0.7c0.1-0.1,0.1-0.3,0-0.5l-2.8-4.1C99.7,5.1,99.4,5,99.2,5c0,0-2.8,1.5-3.7,2C95.3,7.1,95.3,7.2,95.3,7.5z"
		/>
</g>
<g>
	<rect x="240" y="0" opacity="0" fill="#0B080D" width="24" height="24"/>
	
		<rect x="246.7" y="10.4" transform="matrix(0.7071 -0.7071 0.7071 0.7071 62.7653 180.3322)" fill="#0B080D" width="4.7" height="8"/>
	
		<rect x="247.5" y="11" transform="matrix(0.7071 -0.7071 0.7071 0.7071 65.3385 184.0193)" fill="#0B080D" width="14.6" height="4.3"/>
</g>
<g>
	<rect x="375" y="-0.3" opacity="0" fill="#0B080D" width="24" height="24"/>
	<path fill="#231F20" d="M387.6,4.4c2.5,0,4.5,2,4.5,4.5s-2,4.5-4.5,4.5s-4.5-2-4.5-4.5S385.1,4.4,387.6,4.4 M387.6,2.4
		c-3.6,0-6.5,2.9-6.5,6.5s2.9,6.5,6.5,6.5c3.6,0,6.5-2.9,6.5-6.5S391.2,2.4,387.6,2.4L387.6,2.4z"/>
	<path fill="#231F20" d="M390.9,14.1c-0.7-0.3-2.1-0.7-3.3-0.7c-1.2,0-2.4,0.3-3.3,0.7c-1.2,0.5-2.4,1.9-3.4,3.2
		c-0.9,1.3,0.1,3.1,1.8,3.1h9.8c1.7,0,2.7-1.8,1.8-3.1C393.2,16,392,14.6,390.9,14.1z"/>
</g>
<g>
	<rect x="47.9" y="62" opacity="0" width="24" height="24"/>
	<rect x="47.9" y="62" opacity="0" width="24" height="24"/>
	<path d="M69.8,81c0.6,0.6,0.7,1.4,0.2,1.9L68.9,84c-0.5,0.5-1.3,0.4-1.9-0.2l-3.7-3.7c-0.6-0.6-0.7-1.4-0.2-1.9l1.1-1.1
		c0.5-0.5,1.3-0.4,1.9,0.2L69.8,81z"/>
	<path d="M56.9,63c-4.4,0-8,3.6-8,8s3.6,8,8,8s8-3.6,8-8S61.3,63,56.9,63z M57,76c-2.8,0-5-2.2-5-5s2.2-5,5-5s5,2.2,5,5
		S59.8,76,57,76z"/>
</g>
<g>
	<rect x="143" y="0" opacity="0" fill="#0B080D" width="24" height="24"/>
	<rect x="153.3" y="6.7" transform="matrix(-0.7071 -0.7071 0.7071 -0.7071 255.7021 130.2584)" width="3" height="11"/>
	<polygon points="152,6 152,9 158,9 158,15 161,15 161,9 161,6 	"/>
</g>
<g>
	<rect x="191" y="0" opacity="0" fill="#0B080D" width="24" height="24"/>
	<rect x="196" y="9" width="3" height="10"/>
	<rect x="200.7" y="7.3" transform="matrix(0.7071 0.7071 -0.7071 0.7071 68.2858 -139.1995)" width="3" height="11"/>
	<rect x="196" y="16" width="10" height="3"/>
</g>
<g>
	<rect x="93.7" y="62" opacity="0" width="24" height="24"/>
	<g>
		<rect x="110.7" y="70" width="3" height="9"/>
		<rect x="107.7" y="73" width="9" height="3"/>
	</g>
	<path d="M101.2,66c-2.5,0-4.5,2-4.5,4.5s2,4.5,4.5,4.5c2.5,0,4.5-2,4.5-4.5S103.7,66,101.2,66L101.2,66z"/>
	<path d="M104.2,75.8c-0.7-0.3-1.9-0.7-3.1-0.7c-1.1,0-2.3,0.3-3.1,0.7C97,76.3,95.9,77.6,95,79c-0.9,1.3,0.1,3,1.6,3h9.1
		c1.6,0,2.5-1.7,1.6-3C106.4,77.6,105.3,76.3,104.2,75.8z"/>
</g>
<rect x="191" y="62" opacity="0" width="24" height="24"/>
<g>
	<rect x="143" y="62.3" opacity="0" fill="#0B080D" width="24" height="24"/>
	<path d="M165,65.3h-19v5h2v-3h15v11h-15v-3h-2v5h7v2h-2v2h9v-2h-2v-2h7V65.3z"/>
	<g>
		<polygon fill="#0B080D" points="155,73 150,69.3 150,71.3 145,71.3 145,74.3 150,74.3 150,76.8 		"/>
	</g>
</g>
<g>
	<rect x="-37.3" y="-0.3" opacity="0" fill="#0B080D" width="24" height="24"/>
	<path fill="#0B080D" d="M-14.4,11.2c-0.6-0.6-3.8-3.6-11-3.6s-10.4,3-11,3.6c-0.2,0.2-0.3,0.3-0.2,0.5c0.3,1,1.1,3.9,1.1,3.9
		c0.1,0.2,0.4,0.3,0.6,0.2l4.7-0.9c0.2-0.1,0.3-0.2,0.3-0.4c0-0.1,0-0.6,0-0.9c0-1,1.9-1.4,4.5-1.4c2.5,0,4.5,0.5,4.5,1.4
		c0,0.3,0,0.9,0,0.9c0,0.2,0.1,0.3,0.3,0.4l4.7,0.9c0.2,0.1,0.5,0,0.6-0.2c0,0,0.9-2.9,1.1-3.9C-14.2,11.5-14.2,11.4-14.4,11.2z"/>
</g>
<path fill="#0B080D" d="M196.5,75c-3,0-5.5,2.5-5.5,5.5s2.5,5.5,5.5,5.5s5.5-2.5,5.5-5.5S199.5,75,196.5,75z M196.5,83
	c-1.4,0-2.5-1.1-2.5-2.5s1.1-2.5,2.5-2.5s2.5,1.1,2.5,2.5S197.9,83,196.5,83z"/>
<path fill="#0B080D" d="M209.5,75c-3,0-5.5,2.5-5.5,5.5s2.5,5.5,5.5,5.5s5.5-2.5,5.5-5.5S212.5,75,209.5,75z M209.5,83
	c-1.4,0-2.5-1.1-2.5-2.5s1.1-2.5,2.5-2.5s2.5,1.1,2.5,2.5S210.9,83,209.5,83z"/>
<rect x="196" y="83" fill="#0B080D" width="13" height="3"/>
<rect y="62" opacity="0" width="24" height="24"/>
<rect y="62" opacity="0" width="24" height="24"/>
<path d="M22,76v-4h-2.2c-0.2-0.7-0.5-1.4-0.9-2.1l1.5-1.5l-2.8-2.8l-1.5,1.5c-0.6-0.4-1.3-0.7-2.1-0.8V64h-4v2.3
	c-0.7,0.2-1.4,0.5-2.1,0.8l-1.5-1.5l-2.8,2.8l1.5,1.5c-0.4,0.6-0.7,1.3-0.8,2.1H2v4h2.3c0.2,0.7,0.5,1.4,0.9,2l-1.5,1.5l2.8,2.8
	l1.5-1.5c0.6,0.4,1.3,0.7,2.1,0.9V84h4v-2.3c0.7-0.2,1.4-0.5,2-0.9l1.6,1.6l2.8-2.8L18.9,78c0.4-0.6,0.7-1.3,0.9-2H22z M12,77.9
	c-2.2,0-4-1.9-4-4c0-2.2,1.8-3.9,4-3.9c2.2,0,4,1.7,4,3.9C16,76.1,14.2,77.9,12,77.9z"/>
<g>
	<path opacity="0" fill="#0B080D" d="M261,86h-20c-1.1,0-2-0.9-2-2V64c0-1.1,0.9-2,2-2h20c1.1,0,2,0.9,2,2v20
		C263,85.1,262.1,86,261,86z"/>
	<path fill="#0B080D" d="M255.7,75.8l-7.2,4.6c-1.5,1-3.5-0.1-3.5-1.9v-9.2c0-1.8,2-2.9,3.5-1.9l7.2,4.6
		C257.1,72.9,257.1,74.9,255.7,75.8z"/>
</g>
</svg>
