<?xml version="1.0" encoding="utf-8"?>
<!-- Generator: Adobe Illustrator 18.1.0, SVG Export Plug-In . SVG Version: 6.00 Build 0)  -->
<!DOCTYPE svg PUBLIC "-//W3C//DTD SVG 1.1//EN" "http://www.w3.org/Graphics/SVG/1.1/DTD/svg11.dtd">
<svg version="1.1" id="Layer_1" xmlns="http://www.w3.org/2000/svg" xmlns:xlink="http://www.w3.org/1999/xlink" x="0px" y="0px"
	 viewBox="0 0 24 24" enable-background="new 0 0 24 24" xml:space="preserve">
<g>
	<rect x="88" y="-62.3" opacity="0" fill="#0B080D" width="24" height="24"/>
	<path fill="#0B080D" d="M107.3-59c-0.4-0.4-1-0.4-1.4,0l0,0l-1.7,1.7c-0.4-1.9-2-3.3-3.9-3.3c-1.1,0-2.1,0.5-2.8,1.2c0,0,0,0,0,0
		c-0.2,0.2-0.3,0.4-0.5,0.6c-0.1,0.1-0.2,0.3-0.2,0.4c0,0.1-0.1,0.2-0.1,0.2c-0.2,0.5-0.3,1-0.3,1.6v6c0,0.4,0.1,0.7,0.2,1l-0.8,0.8
		c-0.2-0.6-0.4-1.2-0.4-1.8h0c0-0.6-0.4-1-1-1c-0.6,0-1,0.4-1,1c0,0,0,0,0,0c0,1.2,0.3,2.3,0.8,3.3l-2.3,2.3l0,0
		c-0.3,0.4-0.3,1,0,1.4c0.4,0.4,1,0.4,1.4,0l0,0l0,0c0,0,0,0,0,0s0,0,0,0l2.1-2.1l0,0l1.4-1.4l0,0l1.4-1.4l0,0l5.1-5.1v0l4-4
		c0,0,0,0,0,0C107.7-58,107.7-58.6,107.3-59z"/>
	<path fill="#0B080D" d="M104.3-50.6v-0.2v-1l-1.6,1.6v0l-3.5,3.5c0.3,0.1,0.7,0.2,1,0.2C102.5-46.6,104.3-48.4,104.3-50.6z"/>
	<path fill="#0B080D" d="M107.3-50.6L107.3-50.6c0-0.6-0.4-1-1-1c-0.6,0-1,0.4-1,1l0,0c0,2.8-2.2,5-5,5c-0.6,0-1.3-0.1-1.8-0.4
		l-1.5,1.5c0.7,0.4,1.2,1,2.1,1.1v1h-2c-0.6,0-1,0.4-1,1c0,0.6,0.4,1,1,1h6c0.6,0,1-0.4,1-1c0-0.6-0.4-1-1-1h-2v-1
		C104.4-43.8,107.3-47.1,107.3-50.6z"/>
</g>
<g>
	<rect x="90.7" y="-1" opacity="0" fill="#0B080D" width="24" height="24"/>
	<g>
		<path d="M105.7,17h-10c-1.1,0-2-0.9-2-2V7c0-1.1,0.9-2,2-2h10c1.1,0,2,0.9,2,2l0,8C107.7,16.1,106.8,17,105.7,17z"/>
	</g>
	<path d="M111.1,6l-2.5,2v6l2.5,2c0.8,0,1.5-1.3,1.5-2V8C112.7,7.3,111.9,6,111.1,6z"/>
</g>
<g>
	<rect x="44.3" y="-62" opacity="0" fill="#0B080D" width="24" height="24"/>
	<path d="M53.8-58.2v1.8l0.9,7c0.1,0.8,0.8,1.5,1.6,1.5h0c0.8,0,1.6-0.6,1.6-1.5l0.9-7v-1.8c0-1.1-0.9-2-2-2h-1
		C54.7-60.2,53.8-59.4,53.8-58.2z"/>
	<circle cx="56.3" cy="-44" r="2"/>
</g>
<g>
	<rect x="-239" y="-62" opacity="0" fill="#0B080D" width="24" height="24"/>
	<path fill="#0B080D" d="M-235.1-57.3c0,0.8,0.2,5.2,5.3,10.3s9.5,5.2,10.3,5.3c0.3,0,0.4,0,0.5-0.2c0.5-0.9,1.9-3.5,1.9-3.5
		c0-0.2-0.1-0.4-0.3-0.5l-3.9-2.7c-0.2-0.1-0.4-0.1-0.5,0c0,0-0.4,0.4-0.7,0.7c-0.7,0.7-2.4-0.4-4.2-2.2c-1.8-1.8-2.8-3.5-2.2-4.2
		c0.2-0.2,0.6-0.6,0.7-0.7c0.1-0.1,0.1-0.3,0-0.5l-2.7-3.9c-0.1-0.2-0.3-0.3-0.5-0.3c0,0-2.7,1.4-3.5,1.9
		C-235-57.7-235.1-57.6-235.1-57.3z"/>
</g>
<g>
	<rect x="-192" y="-62" opacity="0" fill="#0B080D" width="24" height="24"/>
	<polygon points="-175,-59 -177,-57 -175,-55 -180,-55 -180,-52 -175,-52 -177,-50 -175,-48 -170.2,-53.5 	"/>
	<path fill="#0B080D" d="M-191.7-54.2c0,0.9,0.2,5.4,5.5,10.7c5.3,5.3,9.8,5.4,10.7,5.5c0.3,0,0.4,0,0.5-0.2c0.5-0.9,2-3.7,2-3.7
		c0-0.2-0.1-0.4-0.3-0.6l-4.1-2.8c-0.2-0.1-0.4-0.1-0.5,0c0,0-0.4,0.4-0.7,0.7c-0.7,0.7-2.5-0.4-4.4-2.2c-1.9-1.9-2.9-3.7-2.2-4.4
		c0.2-0.2,0.6-0.6,0.7-0.7c0.1-0.1,0.1-0.3,0-0.5l-2.8-4.1c-0.1-0.2-0.4-0.3-0.6-0.3c0,0-2.8,1.5-3.7,2
		C-191.7-54.6-191.7-54.5-191.7-54.2z"/>
</g>
<g>
	<rect x="48" opacity="0" fill="#0B080D" width="24" height="24"/>
	<path fill="#0B080D" d="M56,20h-1c-1.1,0-2-0.9-2-2V6c0-1.1,0.9-2,2-2h1c1.1,0,2,0.9,2,2v12C58,19.1,57.1,20,56,20z"/>
	<path fill="#0B080D" d="M64,20h-1c-1.1,0-2-0.9-2-2V6c0-1.1,0.9-2,2-2h1c1.1,0,2,0.9,2,2v12C66,19.1,65.1,20,64,20z"/>
</g>
<rect x="0" opacity="0" fill="#0B080D" width="24" height="24"/>
<g>
	<rect x="-144" y="-62" opacity="0" fill="#0B080D" width="24" height="24"/>
	<g>
		<rect x="-129" y="-59" fill="#0B080D" width="3" height="9"/>
		<rect x="-132" y="-56" fill="#0B080D" width="9" height="3"/>
	</g>
	<path fill="#0B080D" d="M-143.7-54.5c0,0.9,0.2,5.4,5.5,10.7c5.3,5.3,9.8,5.4,10.7,5.5c0.3,0,0.4,0,0.5-0.2c0.5-0.9,2-3.7,2-3.7
		c0-0.2-0.1-0.4-0.3-0.6l-4.1-2.8c-0.2-0.1-0.4-0.1-0.5,0c0,0-0.4,0.4-0.7,0.7c-0.7,0.7-2.5-0.4-4.4-2.2c-1.9-1.9-2.9-3.7-2.2-4.4
		c0.2-0.2,0.6-0.6,0.7-0.7c0.1-0.1,0.1-0.3,0-0.5l-2.8-4.1c-0.1-0.2-0.4-0.3-0.6-0.3c0,0-2.8,1.5-3.7,2
		C-143.7-54.9-143.7-54.8-143.7-54.5z"/>
</g>
<g>
	<rect x="1" y="-62" opacity="0" fill="#0B080D" width="24" height="24"/>
	
		<rect x="7.7" y="-51.6" transform="matrix(0.7071 -0.7071 0.7071 0.7071 36.6045 -6.8258)" fill="#0B080D" width="4.7" height="8"/>
	
		<rect x="8.5" y="-51" transform="matrix(0.7071 -0.7071 0.7071 0.7071 39.1777 -3.1386)" fill="#0B080D" width="14.6" height="4.3"/>
</g>
<g>
	<rect x="136" y="-62.3" opacity="0" fill="#0B080D" width="24" height="24"/>
	<path fill="#231F20" d="M148.6-57.6c2.5,0,4.5,2,4.5,4.5s-2,4.5-4.5,4.5s-4.5-2-4.5-4.5S146.1-57.6,148.6-57.6 M148.6-59.6
		c-3.6,0-6.5,2.9-6.5,6.5s2.9,6.5,6.5,6.5c3.6,0,6.5-2.9,6.5-6.5S152.2-59.6,148.6-59.6L148.6-59.6z"/>
	<path fill="#231F20" d="M151.9-47.9c-0.7-0.3-2.1-0.7-3.3-0.7c-1.2,0-2.4,0.3-3.3,0.7c-1.2,0.5-2.4,1.9-3.4,3.2
		c-0.9,1.3,0.1,3.1,1.8,3.1h9.8c1.7,0,2.7-1.8,1.8-3.1C154.2-46,153-47.4,151.9-47.9z"/>
</g>
<g>
	<rect x="-191.1" opacity="0" width="24" height="24"/>
	<rect x="-191.1" opacity="0" width="24" height="24"/>
	<path d="M-169.2,19c0.6,0.6,0.7,1.4,0.2,1.9l-1.1,1.1c-0.5,0.5-1.3,0.4-1.9-0.2l-3.7-3.7c-0.6-0.6-0.7-1.4-0.2-1.9l1.1-1.1
		c0.5-0.5,1.3-0.4,1.9,0.2L-169.2,19z"/>
	<path d="M-182.1,1c-4.4,0-8,3.6-8,8s3.6,8,8,8s8-3.6,8-8S-177.7,1-182.1,1z M-182,14c-2.8,0-5-2.2-5-5s2.2-5,5-5s5,2.2,5,5
		S-179.2,14-182,14z"/>
</g>
<g>
	<rect x="-96" y="-62" opacity="0" fill="#0B080D" width="24" height="24"/>
	<rect x="-85.7" y="-55.3" transform="matrix(-0.7071 -0.7071 0.7071 -0.7071 -108.4558 -144.5807)" width="3" height="11"/>
	<polygon points="-87,-56 -87,-53 -81,-53 -81,-47 -78,-47 -78,-53 -78,-56 	"/>
</g>
<g>
	<rect x="-48" y="-62" opacity="0" fill="#0B080D" width="24" height="24"/>
	<rect x="-43" y="-53" width="3" height="10"/>
	<rect x="-38.3" y="-54.7" transform="matrix(0.7071 0.7071 -0.7071 0.7071 -45.5564 11.6396)" width="3" height="11"/>
	<rect x="-43" y="-46" width="10" height="3"/>
</g>
<g>
	<rect x="-145.3" opacity="0" width="24" height="24"/>
	<g>
		<rect x="-128.3" y="8" width="3" height="9"/>
		<rect x="-131.3" y="11" width="9" height="3"/>
	</g>
	<path d="M-137.8,4c-2.5,0-4.5,2-4.5,4.5s2,4.5,4.5,4.5c2.5,0,4.5-2,4.5-4.5S-135.3,4-137.8,4L-137.8,4z"/>
	<path d="M-134.8,13.8c-0.7-0.3-1.9-0.7-3.1-0.7c-1.1,0-2.3,0.3-3.1,0.7c-1.1,0.5-2.2,1.8-3.1,3.1c-0.9,1.3,0.1,3,1.6,3h9.1
		c1.6,0,2.5-1.7,1.6-3C-132.6,15.6-133.7,14.3-134.8,13.8z"/>
</g>
<g>
	<rect x="-96" opacity="0" fill="#0B080D" width="24" height="24"/>
	<path d="M-74,3h-19v5h2V5h15v11h-15v-3h-2v5h7v2h-2v2h9v-2h-2v-2h7V3z"/>
	<g>
		<polygon fill="#0B080D" points="-84,10.7 -89,7 -89,9 -94,9 -94,12 -89,12 -89,14.5 		"/>
	</g>
</g>
<g>
	<rect x="-276.3" y="-62.3" opacity="0" fill="#0B080D" width="24" height="24"/>
	<path fill="#0B080D" d="M-253.4-50.8c-0.6-0.6-3.8-3.6-11-3.6c-7.2,0-10.4,3-11,3.6c-0.2,0.2-0.3,0.3-0.2,0.5
		c0.3,1,1.1,3.9,1.1,3.9c0.1,0.2,0.4,0.3,0.6,0.2l4.7-0.9c0.2-0.1,0.3-0.2,0.3-0.4c0-0.1,0-0.6,0-0.9c0-1,1.9-1.4,4.5-1.4
		c2.5,0,4.5,0.5,4.5,1.4c0,0.3,0,0.9,0,0.9c0,0.2,0.1,0.3,0.3,0.4l4.7,0.9c0.2,0.1,0.5,0,0.6-0.2c0,0,0.9-2.9,1.1-3.9
		C-253.2-50.5-253.2-50.6-253.4-50.8z"/>
</g>
<g>
	<rect x="-48" opacity="0" width="24" height="24"/>
	<path fill="#0B080D" d="M-42.5,13c-3,0-5.5,2.5-5.5,5.5s2.5,5.5,5.5,5.5s5.5-2.5,5.5-5.5S-39.5,13-42.5,13z M-42.5,21
		c-1.4,0-2.5-1.1-2.5-2.5s1.1-2.5,2.5-2.5s2.5,1.1,2.5,2.5S-41.1,21-42.5,21z"/>
	<path fill="#0B080D" d="M-29.5,13c-3,0-5.5,2.5-5.5,5.5s2.5,5.5,5.5,5.5s5.5-2.5,5.5-5.5S-26.5,13-29.5,13z M-29.5,21
		c-1.4,0-2.5-1.1-2.5-2.5s1.1-2.5,2.5-2.5s2.5,1.1,2.5,2.5S-28.1,21-29.5,21z"/>
	<rect x="-43" y="21" fill="#0B080D" width="13" height="3"/>
</g>
<rect x="-239" opacity="0" width="24" height="24"/>
<rect x="-239" opacity="0" width="24" height="24"/>
<path d="M-217,14v-4h-2.2c-0.2-0.7-0.5-1.4-0.9-2.1l1.5-1.5l-2.8-2.8l-1.5,1.5c-0.6-0.4-1.3-0.7-2.1-0.8V2h-4v2.3
	c-0.7,0.2-1.4,0.5-2.1,0.8l-1.5-1.5l-2.8,2.8l1.5,1.5c-0.4,0.6-0.7,1.3-0.8,2.1h-2.2v4h2.3c0.2,0.7,0.5,1.4,0.9,2l-1.5,1.5l2.8,2.8
	l1.5-1.5c0.6,0.4,1.3,0.7,2.1,0.9V22h4v-2.3c0.7-0.2,1.4-0.5,2-0.9l1.6,1.6l2.8-2.8l-1.6-1.6c0.4-0.6,0.7-1.3,0.9-2H-217z
	 M-227,15.9c-2.2,0-4-1.9-4-4c0-2.2,1.8-3.9,4-3.9c2.2,0,4,1.7,4,3.9C-223,14.1-224.8,15.9-227,15.9z"/>
<g>
	<rect x="0" opacity="0" fill="#0B080D" width="24" height="24"/>
	<path fill="#0B080D" d="M16.7,13.8l-7.2,4.6C8,19.4,6,18.3,6,16.5V7.3c0-1.8,2-2.9,3.5-1.9l7.2,4.6C18.1,10.9,18.1,12.9,16.7,13.8z
		"/>
</g>
<g>
	<rect x="136.6" y="-1" opacity="0" fill="#0B080D" width="24" height="24"/>
	<circle cx="143" cy="4" r="2"/>
	<circle cx="149" cy="4" r="2"/>
	<circle cx="155" cy="4" r="2"/>
	<circle cx="155" cy="9" r="2"/>
	<circle cx="155" cy="14" r="2"/>
	<circle cx="149" cy="14" r="2"/>
	<circle cx="149" cy="9" r="2"/>
	<circle cx="143" cy="9" r="2"/>
	<circle cx="143" cy="14" r="2"/>
	<circle cx="149" cy="19" r="2"/>
</g>
</svg>
