<?xml version="1.0" encoding="utf-8"?>
<!-- Generator: Adobe Illustrator 18.1.0, SVG Export Plug-In . SVG Version: 6.00 Build 0)  -->
<!DOCTYPE svg PUBLIC "-//W3C//DTD SVG 1.1//EN" "http://www.w3.org/Graphics/SVG/1.1/DTD/svg11.dtd">
<svg version="1.1" id="Layer_1" xmlns="http://www.w3.org/2000/svg" xmlns:xlink="http://www.w3.org/1999/xlink" x="0px" y="0px"
	 viewBox="0 0 24 24" enable-background="new 0 0 24 24" xml:space="preserve">
<g>
	<rect x="183" y="-123.3" opacity="0" fill="#0B080D" width="24" height="24"/>
	<path fill="#0B080D" d="M202.3-120c-0.4-0.4-1-0.4-1.4,0l0,0l-1.7,1.7c-0.4-1.9-2-3.3-3.9-3.3c-1.1,0-2.1,0.5-2.8,1.2c0,0,0,0,0,0
		c-0.2,0.2-0.3,0.4-0.5,0.6c-0.1,0.1-0.2,0.3-0.2,0.4c0,0.1-0.1,0.2-0.1,0.2c-0.2,0.5-0.3,1-0.3,1.6v6c0,0.4,0.1,0.7,0.2,1l-0.8,0.8
		c-0.2-0.6-0.4-1.2-0.4-1.8h0c0-0.6-0.4-1-1-1c-0.6,0-1,0.4-1,1c0,0,0,0,0,0c0,1.2,0.3,2.3,0.8,3.3l-2.3,2.3l0,0
		c-0.3,0.4-0.3,1,0,1.4c0.4,0.4,1,0.4,1.4,0l0,0l0,0c0,0,0,0,0,0s0,0,0,0l2.1-2.1l0,0l1.4-1.4l0,0l1.4-1.4l0,0l5.1-5.1v0l4-4
		c0,0,0,0,0,0C202.7-119,202.7-119.6,202.3-120z"/>
	<path fill="#0B080D" d="M199.3-111.6v-0.2v-1l-1.6,1.6v0l-3.5,3.5c0.3,0.1,0.7,0.2,1,0.2C197.5-107.6,199.3-109.4,199.3-111.6z"/>
	<path fill="#0B080D" d="M202.3-111.6L202.3-111.6c0-0.6-0.4-1-1-1c-0.6,0-1,0.4-1,1l0,0c0,2.8-2.2,5-5,5c-0.6,0-1.3-0.1-1.8-0.4
		l-1.5,1.5c0.7,0.4,1.2,1,2.1,1.1v1h-2c-0.6,0-1,0.4-1,1c0,0.6,0.4,1,1,1h6c0.6,0,1-0.4,1-1c0-0.6-0.4-1-1-1h-2v-1
		C199.4-104.8,202.3-108.1,202.3-111.6z"/>
</g>
<g>
	<rect x="185.7" y="-62" opacity="0" fill="#0B080D" width="24" height="24"/>
	<g>
		<path d="M200.7-44h-10c-1.1,0-2-0.9-2-2v-8c0-1.1,0.9-2,2-2h10c1.1,0,2,0.9,2,2l0,8C202.7-44.9,201.8-44,200.7-44z"/>
	</g>
	<path d="M206.1-55l-2.5,2v6l2.5,2c0.8,0,1.5-1.3,1.5-2v-6C207.7-53.7,206.9-55,206.1-55z"/>
</g>
<g>
	<rect x="139.3" y="-123" opacity="0" fill="#0B080D" width="24" height="24"/>
	<path d="M148.8-119.2v1.8l0.9,7c0.1,0.8,0.8,1.5,1.6,1.5h0c0.8,0,1.6-0.6,1.6-1.5l0.9-7v-1.8c0-1.1-0.9-2-2-2h-1
		C149.7-121.2,148.8-120.4,148.8-119.2z"/>
	<circle cx="151.3" cy="-105" r="2"/>
</g>
<g>
	<rect x="-144" y="-123" opacity="0" fill="#0B080D" width="24" height="24"/>
	<path fill="#0B080D" d="M-140.1-118.3c0,0.8,0.2,5.2,5.3,10.3s9.5,5.2,10.3,5.3c0.3,0,0.4,0,0.5-0.2c0.5-0.9,1.9-3.5,1.9-3.5
		c0-0.2-0.1-0.4-0.3-0.5l-3.9-2.7c-0.2-0.1-0.4-0.1-0.5,0c0,0-0.4,0.4-0.7,0.7c-0.7,0.7-2.4-0.4-4.2-2.2c-1.8-1.8-2.8-3.5-2.2-4.2
		c0.2-0.2,0.6-0.6,0.7-0.7c0.1-0.1,0.1-0.3,0-0.5l-2.7-3.9c-0.1-0.2-0.3-0.3-0.5-0.3c0,0-2.7,1.4-3.5,1.9
		C-140-118.7-140.1-118.6-140.1-118.3z"/>
</g>
<g>
	<rect x="-97" y="-123" opacity="0" fill="#0B080D" width="24" height="24"/>
	<polygon points="-80,-120 -82,-118 -80,-116 -85,-116 -85,-113 -80,-113 -82,-111 -80,-109 -75.2,-114.5 	"/>
	<path fill="#0B080D" d="M-96.7-115.2c0,0.9,0.2,5.4,5.5,10.7c5.3,5.3,9.8,5.4,10.7,5.5c0.3,0,0.4,0,0.5-0.2c0.5-0.9,2-3.7,2-3.7
		c0-0.2-0.1-0.4-0.3-0.6l-4.1-2.8c-0.2-0.1-0.4-0.1-0.5,0c0,0-0.4,0.4-0.7,0.7c-0.7,0.7-2.5-0.4-4.4-2.2c-1.9-1.9-2.9-3.7-2.2-4.4
		c0.2-0.2,0.6-0.6,0.7-0.7c0.1-0.1,0.1-0.3,0-0.5l-2.8-4.1c-0.1-0.2-0.4-0.3-0.6-0.3c0,0-2.8,1.5-3.7,2
		C-96.7-115.6-96.7-115.5-96.7-115.2z"/>
</g>
<g>
	<rect x="143" y="-61" opacity="0" fill="#0B080D" width="24" height="24"/>
	<path fill="#0B080D" d="M151-41h-1c-1.1,0-2-0.9-2-2v-12c0-1.1,0.9-2,2-2h1c1.1,0,2,0.9,2,2v12C153-41.9,152.1-41,151-41z"/>
	<path fill="#0B080D" d="M159-41h-1c-1.1,0-2-0.9-2-2v-12c0-1.1,0.9-2,2-2h1c1.1,0,2,0.9,2,2v12C161-41.9,160.1-41,159-41z"/>
</g>
<rect x="95" y="-61" opacity="0" fill="#0B080D" width="24" height="24"/>
<g>
	<rect x="-49" y="-123" opacity="0" fill="#0B080D" width="24" height="24"/>
	<g>
		<rect x="-34" y="-120" fill="#0B080D" width="3" height="9"/>
		<rect x="-37" y="-117" fill="#0B080D" width="9" height="3"/>
	</g>
	<path fill="#0B080D" d="M-48.7-115.5c0,0.9,0.2,5.4,5.5,10.7c5.3,5.3,9.8,5.4,10.7,5.5c0.3,0,0.4,0,0.5-0.2c0.5-0.9,2-3.7,2-3.7
		c0-0.2-0.1-0.4-0.3-0.6l-4.1-2.8c-0.2-0.1-0.4-0.1-0.5,0c0,0-0.4,0.4-0.7,0.7c-0.7,0.7-2.5-0.4-4.4-2.2c-1.9-1.9-2.9-3.7-2.2-4.4
		c0.2-0.2,0.6-0.6,0.7-0.7c0.1-0.1,0.1-0.3,0-0.5l-2.8-4.1c-0.1-0.2-0.4-0.3-0.6-0.3c0,0-2.8,1.5-3.7,2
		C-48.7-115.9-48.7-115.8-48.7-115.5z"/>
</g>
<g>
	<rect x="96" y="-123" opacity="0" fill="#0B080D" width="24" height="24"/>
	
		<rect x="102.7" y="-112.6" transform="matrix(0.7071 -0.7071 0.7071 0.7071 107.5628 42.4829)" fill="#0B080D" width="4.7" height="8"/>
	
		<rect x="103.5" y="-112" transform="matrix(0.7071 -0.7071 0.7071 0.7071 110.136 46.1701)" fill="#0B080D" width="14.6" height="4.3"/>
</g>
<g>
	<rect x="231" y="-123.3" opacity="0" fill="#0B080D" width="24" height="24"/>
	<path fill="#231F20" d="M243.6-118.6c2.5,0,4.5,2,4.5,4.5s-2,4.5-4.5,4.5s-4.5-2-4.5-4.5S241.1-118.6,243.6-118.6 M243.6-120.6
		c-3.6,0-6.5,2.9-6.5,6.5s2.9,6.5,6.5,6.5c3.6,0,6.5-2.9,6.5-6.5S247.2-120.6,243.6-120.6L243.6-120.6z"/>
	<path fill="#231F20" d="M246.9-108.9c-0.7-0.3-2.1-0.7-3.3-0.7c-1.2,0-2.4,0.3-3.3,0.7c-1.2,0.5-2.4,1.9-3.4,3.2
		c-0.9,1.3,0.1,3.1,1.8,3.1h9.8c1.7,0,2.7-1.8,1.8-3.1C249.2-107,248-108.4,246.9-108.9z"/>
</g>
<g>
	<rect x="-96.1" y="-61" opacity="0" width="24" height="24"/>
	<rect x="-96.1" y="-61" opacity="0" width="24" height="24"/>
	<path d="M-74.2-42c0.6,0.6,0.7,1.4,0.2,1.9l-1.1,1.1c-0.5,0.5-1.3,0.4-1.9-0.2l-3.7-3.7c-0.6-0.6-0.7-1.4-0.2-1.9l1.1-1.1
		c0.5-0.5,1.3-0.4,1.9,0.2L-74.2-42z"/>
	<path d="M-87.1-60c-4.4,0-8,3.6-8,8s3.6,8,8,8s8-3.6,8-8S-82.7-60-87.1-60z M-87-47c-2.8,0-5-2.2-5-5s2.2-5,5-5s5,2.2,5,5
		S-84.2-47-87-47z"/>
</g>
<g>
	<rect x="-1" y="-123" opacity="0" fill="#0B080D" width="24" height="24"/>
	<rect x="9.3" y="-116.3" transform="matrix(-0.7071 -0.7071 0.7071 -0.7071 96.8528 -181.5391)" width="3" height="11"/>
	<polygon points="8,-117 8,-114 14,-114 14,-108 17,-108 17,-114 17,-117 	"/>
</g>
<g>
	<rect x="47" y="-123" opacity="0" fill="#0B080D" width="24" height="24"/>
	<rect x="52" y="-114" width="3" height="10"/>
	<rect x="56.7" y="-115.7" transform="matrix(0.7071 0.7071 -0.7071 0.7071 -60.865 -73.402)" width="3" height="11"/>
	<rect x="52" y="-107" width="10" height="3"/>
</g>
<g>
	<rect x="-50.3" y="-61" opacity="0" width="24" height="24"/>
	<g>
		<rect x="-33.3" y="-53" width="3" height="9"/>
		<rect x="-36.3" y="-50" width="9" height="3"/>
	</g>
	<path d="M-42.8-57c-2.5,0-4.5,2-4.5,4.5s2,4.5,4.5,4.5c2.5,0,4.5-2,4.5-4.5S-40.3-57-42.8-57L-42.8-57z"/>
	<path d="M-39.8-47.2c-0.7-0.3-1.9-0.7-3.1-0.7c-1.1,0-2.3,0.3-3.1,0.7c-1.1,0.5-2.2,1.8-3.1,3.1c-0.9,1.3,0.1,3,1.6,3h9.1
		c1.6,0,2.5-1.7,1.6-3C-37.6-45.4-38.7-46.7-39.8-47.2z"/>
</g>
<g>
	<rect x="-1" y="-61" opacity="0" fill="#0B080D" width="24" height="24"/>
	<path d="M21-58H2v5h2v-3h15v11H4v-3H2v5h7v2H7v2h9v-2h-2v-2h7V-58z"/>
	<g>
		<polygon fill="#0B080D" points="11,-50.3 6,-54 6,-52 1,-52 1,-49 6,-49 6,-46.5 		"/>
	</g>
</g>
<g>
	<rect x="-181.3" y="-123.3" opacity="0" fill="#0B080D" width="24" height="24"/>
	<path fill="#0B080D" d="M-158.4-111.8c-0.6-0.6-3.8-3.6-11-3.6c-7.2,0-10.4,3-11,3.6c-0.2,0.2-0.3,0.3-0.2,0.5
		c0.3,1,1.1,3.9,1.1,3.9c0.1,0.2,0.4,0.3,0.6,0.2l4.7-0.9c0.2-0.1,0.3-0.2,0.3-0.4c0-0.1,0-0.6,0-0.9c0-1,1.9-1.4,4.5-1.4
		c2.5,0,4.5,0.5,4.5,1.4c0,0.3,0,0.9,0,0.9c0,0.2,0.1,0.3,0.3,0.4l4.7,0.9c0.2,0.1,0.5,0,0.6-0.2c0,0,0.9-2.9,1.1-3.9
		C-158.2-111.5-158.2-111.6-158.4-111.8z"/>
</g>
<g>
	<rect x="47" y="-61" opacity="0" width="24" height="24"/>
	<path fill="#0B080D" d="M52.5-48c-3,0-5.5,2.5-5.5,5.5s2.5,5.5,5.5,5.5s5.5-2.5,5.5-5.5S55.5-48,52.5-48z M52.5-40
		c-1.4,0-2.5-1.1-2.5-2.5s1.1-2.5,2.5-2.5s2.5,1.1,2.5,2.5S53.9-40,52.5-40z"/>
	<path fill="#0B080D" d="M65.5-48c-3,0-5.5,2.5-5.5,5.5s2.5,5.5,5.5,5.5s5.5-2.5,5.5-5.5S68.5-48,65.5-48z M65.5-40
		c-1.4,0-2.5-1.1-2.5-2.5s1.1-2.5,2.5-2.5s2.5,1.1,2.5,2.5S66.9-40,65.5-40z"/>
	<rect x="52" y="-40" fill="#0B080D" width="13" height="3"/>
</g>
<rect x="-144" y="-61" opacity="0" width="24" height="24"/>
<rect x="-144" y="-61" opacity="0" width="24" height="24"/>
<path d="M-122-47v-4h-2.2c-0.2-0.7-0.5-1.4-0.9-2.1l1.5-1.5l-2.8-2.8l-1.5,1.5c-0.6-0.4-1.3-0.7-2.1-0.8V-59h-4v2.3
	c-0.7,0.2-1.4,0.5-2.1,0.8l-1.5-1.5l-2.8,2.8l1.5,1.5c-0.4,0.6-0.7,1.3-0.8,2.1h-2.2v4h2.3c0.2,0.7,0.5,1.4,0.9,2l-1.5,1.5l2.8,2.8
	l1.5-1.5c0.6,0.4,1.3,0.7,2.1,0.9v2.3h4v-2.3c0.7-0.2,1.4-0.5,2-0.9l1.6,1.6l2.8-2.8l-1.6-1.6c0.4-0.6,0.7-1.3,0.9-2H-122z
	 M-132-45.1c-2.2,0-4-1.9-4-4c0-2.2,1.8-3.9,4-3.9c2.2,0,4,1.7,4,3.9C-128-46.9-129.8-45.1-132-45.1z"/>
<g>
	<rect x="95" y="-61" opacity="0" fill="#0B080D" width="24" height="24"/>
	<path fill="#0B080D" d="M111.7-47.2l-7.2,4.6c-1.5,1-3.5-0.1-3.5-1.9v-9.2c0-1.8,2-2.9,3.5-1.9l7.2,4.6
		C113.1-50.1,113.1-48.1,111.7-47.2z"/>
</g>
<g>
	<rect x="95" y="0" opacity="0" fill="#0B080D" width="24" height="24"/>
	<path fill="#0B080D" d="M111,18h-8c-1.1,0-2-0.9-2-2V8c0-1.1,0.9-2,2-2h8c1.1,0,2,0.9,2,2v8C113,17.1,112.1,18,111,18z"/>
</g>
<g>
	<rect x="231.6" y="-62" opacity="0" fill="#0B080D" width="24" height="24"/>
	<circle cx="238" cy="-57" r="2"/>
	<circle cx="244" cy="-57" r="2"/>
	<circle cx="250" cy="-57" r="2"/>
	<circle cx="250" cy="-52" r="2"/>
	<circle cx="250" cy="-47" r="2"/>
	<circle cx="244" cy="-47" r="2"/>
	<circle cx="244" cy="-52" r="2"/>
	<circle cx="238" cy="-52" r="2"/>
	<circle cx="238" cy="-47" r="2"/>
	<circle cx="244" cy="-42" r="2"/>
</g>
<g>
	<rect x="-182" y="-62" opacity="0" fill="#0B080D" width="24" height="24"/>
	<circle cx="-170" cy="-56" r="2"/>
	<circle cx="-170" cy="-44" r="2"/>
	<circle cx="-170" cy="-50" r="2"/>
</g>
<g>
	<rect x="49" y="0" opacity="0" fill="#0B080D" width="24" height="24"/>
	<g>
		<path fill="#0B080D" d="M59.1,15.4l-2.8-2.8c-0.4-0.4-0.4-1,0-1.4v0c0.4-0.4,1-0.4,1.4,0l2.8,2.8c0.4,0.4,0.4,1,0,1.4v0
			C60.1,15.8,59.5,15.8,59.1,15.4z"/>
		<path fill="#0B080D" d="M59.1,15.4L59.1,15.4c-0.4-0.4-0.4-1,0-1.4l5.7-5.7c0.4-0.4,1-0.4,1.4,0v0c0.4,0.4,0.4,1,0,1.4l-5.7,5.7
			C60.1,15.8,59.5,15.8,59.1,15.4z"/>
	</g>
</g>
<g>
	<rect x="0" y="0" opacity="0" fill="#0B080D" width="24" height="24"/>
	<path fill="#0B080D" d="M7.4,16.6L7.4,16.6c-0.4-0.4-0.4-1,0-1.4l7.8-7.8c0.4-0.4,1-0.4,1.4,0v0c0.4,0.4,0.4,1,0,1.4l-7.8,7.8
		C8.4,17,7.8,17,7.4,16.6z"/>
	<path fill="#0B080D" d="M7.4,7.4L7.4,7.4c0.4-0.4,1-0.4,1.4,0l7.8,7.8c0.4,0.4,0.4,1,0,1.4l0,0c-0.4,0.4-1,0.4-1.4,0L7.4,8.8
		C7,8.4,7,7.8,7.4,7.4z"/>
</g>
</svg>
