<?xml version="1.0" encoding="utf-8"?>
<!-- Generator: Adobe Illustrator 18.1.1, SVG Export Plug-In . SVG Version: 6.00 Build 0)  -->
<svg version="1.1" id="Layer_1" xmlns="http://www.w3.org/2000/svg" xmlns:xlink="http://www.w3.org/1999/xlink" x="0px" y="0px"
	 viewBox="0 0 612 792" enable-background="new 0 0 612 792" xml:space="preserve">
<path id="path-1" fill="#7F0000" d="M593.7,121.4C593.7,125.2,593.7,125.2,593.7,121.4l-153,156.8l0,0L249.5,473.3l0,0l-53.5,53.5
	l0,0l-53.5,53.5l0,0l-76.5,80.3l0,0l0,0l0,0l0,0c-15.3,11.5-38.2,11.5-49.7,0c-15.3-15.3-15.3-38.2,0-53.5l0,0l88-88
	C85,481,73.5,438.9,73.5,393l0,0c0-23,15.3-38.2,38.2-38.2c19.1,0,38.2,15.3,38.2,38.2l0,0c0,23,3.8,49.7,15.3,68.8l30.6-30.6
	c-3.8-11.5-3.8-26.8-3.8-38.2V163.5c0-23,3.8-42.1,11.5-61.2c0-3.8,3.8-7.7,3.8-7.7c3.8-7.7,3.8-11.5,7.7-15.3
	c3.8-7.7,11.5-15.3,15.3-23l0,0c26.8-26.8,65-45.9,107.1-45.9c72.7,0,133.9,53.5,149.2,126.2l65-65l0,0c15.3-15.3,38.2-15.3,53.5,0
	C609,83.2,609,110,593.7,121.4z M479,347.1v38.2v7.7c0,84.2-68.8,153-149.2,153c-15.3,0-26.8-3.8-38.2-7.7l130-133.9l0,0L479,347.1z
	 M215,699h76.5v-42.1c-30.6-3.8-61.2-15.3-88-30.6L261,569c23,7.7,45.9,15.3,68.8,15.3c103.3,0,187.4-88,187.4-191.2l0,0
	c0-23,15.3-38.2,38.2-38.2c23,0,38.2,15.3,38.2,38.2c0,133.9-99.5,244.8-225.7,263.9V699h76.5c19.1,0,38.2,15.3,38.2,38.2
	s-15.3,38.2-38.2,38.2l0,0H218.9c-19.1,0-38.2-15.3-38.2-38.2C176.8,714.3,195.9,699,215,699z"/>
</svg>
