<?xml version="1.0" encoding="utf-8"?>
<!-- Generator: Adobe Illustrator 18.1.1, SVG Export Plug-In . SVG Version: 6.00 Build 0)  -->
<svg version="1.1" id="Layer_1" xmlns="http://www.w3.org/2000/svg" xmlns:xlink="http://www.w3.org/1999/xlink" x="0px" y="0px"
	 viewBox="-285 377 40 40" enable-background="new -285 377 40 40" xml:space="preserve">
<g id="avatar">
	<path id="path-1" fill="#FFFFFF" d="M-258.2,401.9c0.9,1.3-0.1,3.1-1.7,3.1h-9.7c-1.7,0-2.7-1.8-1.7-3.1c1-1.4,2.2-2.7,3.3-3.2
		c0.2-0.1,0.5-0.2,0.8-0.3c-1.8-0.9-3-2.7-3-4.9c0-3,2.4-5.5,5.4-5.5s5.4,2.5,5.4,5.5c0,2.1-1.2,4-3,4.9c0.3,0.1,0.6,0.2,0.8,0.3
		C-260.4,399.1-259.2,400.5-258.2,401.9z"/>
</g>
</svg>
